<mxfile host="app.diagrams.net" modified="2023-09-26T02:42:38.204Z" agent="Mozilla/5.0 (Windows NT 10.0; Win64; x64) AppleWebKit/537.36 (KHTML, like Gecko) Chrome/116.0.0.0 Safari/537.36" etag="IRqubz4T0JOWC7jdVrJw" version="21.8.2" type="github">
  <diagram id="prtHgNgQTEPvFCAcTncT" name="Page-1">
    <mxGraphModel dx="2245" dy="729" grid="1" gridSize="10" guides="1" tooltips="1" connect="1" arrows="1" fold="1" page="1" pageScale="1" pageWidth="827" pageHeight="1169" math="0" shadow="0">
      <root>
        <mxCell id="0" />
        <mxCell id="1" parent="0" />
        <mxCell id="nJHd5v2eKX-yQzIDTByT-6" style="edgeStyle=orthogonalEdgeStyle;rounded=0;orthogonalLoop=1;jettySize=auto;html=1;exitX=0.5;exitY=0;exitDx=0;exitDy=0;entryX=0.5;entryY=1;entryDx=0;entryDy=0;" parent="1" source="nJHd5v2eKX-yQzIDTByT-1" target="nJHd5v2eKX-yQzIDTByT-4" edge="1">
          <mxGeometry relative="1" as="geometry" />
        </mxCell>
        <mxCell id="nJHd5v2eKX-yQzIDTByT-1" value="&lt;h1 style=&quot;font-size: 20px;&quot;&gt;&lt;p style=&quot;margin-top: 0pt; margin-bottom: 0pt; margin-left: 0in; direction: ltr; unicode-bidi: embed; word-break: normal;&quot;&gt;F&lt;span style=&quot;font-family: &amp;quot;Times New Roman&amp;quot;;&quot;&gt;ew/zero-shot&amp;nbsp;&lt;/span&gt;&lt;span style=&quot;font-family: &amp;quot;Times New Roman&amp;quot;;&quot;&gt;industrial&amp;nbsp;&lt;/span&gt;&lt;span style=&quot;font-family: &amp;quot;Times New Roman&amp;quot;;&quot;&gt;semantic&amp;nbsp;&lt;/span&gt;&lt;span style=&quot;font-family: &amp;quot;Times New Roman&amp;quot;;&quot;&gt;segmentation on &lt;/span&gt;&lt;span style=&quot;font-family: &amp;quot;Times New Roman&amp;quot;;&quot;&gt;segment anything &lt;/span&gt;&lt;/p&gt;&lt;p style=&quot;margin-top: 0pt; margin-bottom: 0pt; margin-left: 0in; direction: ltr; unicode-bidi: embed; word-break: normal;&quot;&gt;&lt;span style=&quot;font-weight: normal;&quot;&gt;&lt;span style=&quot;font-size: 12pt; font-family: &amp;quot;Times New Roman&amp;quot;;&quot;&gt;Problem&amp;nbsp;&lt;/span&gt;&lt;span style=&quot;font-size: 12pt; font-family: &amp;quot;Times New Roman&amp;quot;;&quot;&gt;definition&lt;/span&gt;&lt;span style=&quot;font-size: 12pt; font-family: 等线;&quot;&gt;：&lt;/span&gt;&lt;/span&gt;&lt;/p&gt;&lt;div style=&quot;margin-top: 0pt; margin-bottom: 0pt; margin-left: 0.25in; text-indent: -0.25in; direction: ltr; unicode-bidi: embed; word-break: normal;&quot;&gt;&lt;span style=&quot;font-weight: normal;&quot;&gt;&lt;span style=&quot;font-size:12.0pt&quot;&gt;1.&lt;/span&gt;&lt;span style=&quot;font-size: 12pt; font-family: &amp;quot;Times New Roman&amp;quot;;&quot;&gt;Location defect&lt;/span&gt;&lt;/span&gt;&lt;/div&gt;&lt;div style=&quot;margin-top: 0pt; margin-bottom: 0pt; margin-left: 0.25in; text-indent: -0.25in; direction: ltr; unicode-bidi: embed; word-break: normal;&quot;&gt;&lt;span style=&quot;font-weight: normal;&quot;&gt;&lt;span style=&quot;font-size:12.0pt&quot;&gt;2.&lt;/span&gt;&lt;span style=&quot;font-size: 12pt; font-family: &amp;quot;Times New Roman&amp;quot;;&quot;&gt;Real-time&lt;/span&gt;&lt;/span&gt;&lt;/div&gt;&lt;div style=&quot;margin-top: 0pt; margin-bottom: 0pt; margin-left: 0.25in; text-indent: -0.25in; direction: ltr; unicode-bidi: embed; word-break: normal;&quot;&gt;&lt;span style=&quot;font-weight: normal;&quot;&gt;&lt;span style=&quot;font-size:12.0pt&quot;&gt;3.&lt;/span&gt;&lt;span style=&quot;font-size: 12pt; font-family: &amp;quot;Times New Roman&amp;quot;;&quot;&gt;Auto provide prompt information&lt;/span&gt;&lt;/span&gt;&lt;/div&gt;&lt;/h1&gt;" style="text;html=1;strokeColor=default;fillColor=none;spacing=5;spacingTop=-20;whiteSpace=wrap;overflow=hidden;rounded=0;" parent="1" vertex="1">
          <mxGeometry y="290" width="620" height="140" as="geometry" />
        </mxCell>
        <mxCell id="nJHd5v2eKX-yQzIDTByT-2" value="&lt;h1 style=&quot;&quot;&gt;&lt;p style=&quot;margin-top: 0pt; margin-bottom: 0pt; margin-left: 0in; direction: ltr; unicode-bidi: embed; word-break: normal;&quot;&gt;&lt;font style=&quot;font-size: 16px;&quot;&gt;Experiment&lt;/font&gt;&lt;/p&gt;&lt;div style=&quot;font-size: 14px; margin-top: 0pt; margin-bottom: 0pt; margin-left: 0.19in; text-indent: -0.19in; direction: ltr; unicode-bidi: embed; word-break: normal;&quot;&gt;&lt;span style=&quot;font-size:11.0pt&quot;&gt;&lt;span style=&quot;mso-special-format:bullet;font-family:Arial&quot;&gt;•&lt;/span&gt;&lt;/span&gt;&lt;span style=&quot;font-weight: normal;&quot;&gt;&lt;span style=&quot;font-family: &amp;quot;Times New Roman&amp;quot;;&quot;&gt;Refine&amp;nbsp;&lt;/span&gt;&lt;span style=&quot;font-family: &amp;quot;Times New Roman&amp;quot;;&quot;&gt;the segmentation results for different defect types (size, shape, contrast)&lt;/span&gt;&lt;/span&gt;&lt;/div&gt;&lt;div style=&quot;font-size: 14px; margin-top: 0pt; margin-bottom: 0pt; margin-left: 0.19in; text-indent: -0.19in; direction: ltr; unicode-bidi: embed; word-break: normal;&quot;&gt;&lt;ul&gt;&lt;li&gt;&lt;span style=&quot;font-weight: normal;&quot;&gt;&lt;span style=&quot;text-indent: -0.19in; background-color: initial; font-family: &amp;quot;Times New Roman&amp;quot;;&quot;&gt;&amp;nbsp; &amp;nbsp; &lt;font color=&quot;#000099&quot;&gt;What are the current limitations of &lt;/font&gt;&lt;/span&gt;&lt;span style=&quot;text-indent: -0.19in; background-color: initial; font-family: &amp;quot;Times New Roman&amp;quot;;&quot;&gt;&lt;font color=&quot;#000099&quot;&gt;SA for fabric segment? 【Weibo】&lt;/font&gt;&lt;/span&gt;&lt;/span&gt;&lt;/li&gt;&lt;li&gt;&lt;span style=&quot;font-weight: normal;&quot;&gt;&lt;span style=&quot;text-indent: -0.19in; background-color: initial; font-family: &amp;quot;Times New Roman&amp;quot;;&quot;&gt;&amp;nbsp; &amp;nbsp; Design an optimization plan for &lt;/span&gt;&lt;span style=&quot;text-indent: -0.19in; background-color: initial; font-family: &amp;quot;Times New Roman&amp;quot;;&quot;&gt;1&lt;/span&gt;&lt;span style=&quot;text-indent: -0.19in; background-color: initial; font-family: &amp;quot;Times New Roman&amp;quot;; vertical-align: super;&quot;&gt;st&amp;nbsp;&lt;/span&gt;&lt;span style=&quot;text-indent: -0.19in; background-color: initial; font-family: &amp;quot;Times New Roman&amp;quot;;&quot;&gt;point&lt;/span&gt;&lt;/span&gt;&lt;/li&gt;&lt;/ul&gt;&lt;/div&gt;&lt;div style=&quot;font-size: 14px; margin-top: 0pt; margin-bottom: 0pt; margin-left: 0.19in; text-indent: -0.19in; direction: ltr; unicode-bidi: embed; word-break: normal;&quot;&gt;&lt;span style=&quot;font-weight: normal;&quot;&gt;&lt;span style=&quot;&quot;&gt;&lt;span style=&quot;mso-special-format:bullet;font-family:Arial&quot;&gt;•&lt;/span&gt;&lt;/span&gt;&lt;span style=&quot;font-family: &amp;quot;Times New Roman&amp;quot;;&quot;&gt;Use Know distillation cut down the SA Encoder&lt;/span&gt;&lt;/span&gt;&lt;/div&gt;&lt;div style=&quot;font-size: 14px; margin-top: 0pt; margin-bottom: 0pt; margin-left: 0.19in; text-indent: -0.19in; direction: ltr; unicode-bidi: embed; word-break: normal;&quot;&gt;&lt;span style=&quot;font-weight: normal;&quot;&gt;&lt;span style=&quot;&quot;&gt;&lt;span style=&quot;mso-special-format:bullet;font-family:Arial&quot;&gt;•&lt;/span&gt;&lt;/span&gt;&lt;span style=&quot;font-family: &amp;quot;Times New Roman&amp;quot;;&quot;&gt;Auto&amp;nbsp;&lt;/span&gt;&lt;span style=&quot;font-family: &amp;quot;Times New Roman&amp;quot;;&quot;&gt;Feature &lt;/span&gt;&lt;span style=&quot;font-family: &amp;quot;Times New Roman&amp;quot;;&quot;&gt;select&lt;/span&gt;&lt;/span&gt;&lt;/div&gt;&lt;/h1&gt;" style="text;html=1;strokeColor=default;fillColor=none;spacing=5;spacingTop=-20;whiteSpace=wrap;overflow=hidden;rounded=0;" parent="1" vertex="1">
          <mxGeometry y="515" width="620" height="165" as="geometry" />
        </mxCell>
        <mxCell id="nJHd5v2eKX-yQzIDTByT-4" value="" style="shape=image;verticalLabelPosition=bottom;labelBackgroundColor=default;verticalAlign=top;aspect=fixed;imageAspect=0;image=data:image/png,iVBORw0KGgoAAAANSUhEUgAAA+8AAAHACAYAAAGkGGl5AAAAAXNSR0IArs4c6QAAAARnQU1BAACxjwv8YQUAAAAJcEhZcwAAFxEAABcRAcom8z8AAP+lSURBVHhe7J0HXBRH+8ff95+86THRaIqamGg0PbHF3nvvDXvvvXfF3gtiw66o2EURRAUBEREUkd7LHQdHx97Q33+fYRcPuOPu4IAD5+vncWdn23F7z/5mZmee+Q847yQGufH9VjXAgDWNuRWwmaxuJH7j+ccgN97x3gUxxSlIjPrGx8TEiCn9OXjwoJjiqMOob/wHH36Ip0+f4j//+Q+cnZ3Zkvjmm2/Y8uOPP2bLVq1asaXbLTeMHz8eDx8+zNxXoVCgRo0aLM15i1Hf+Nu3b4spwNraGomJiYiLi2PrdHMTEhLw6tUrtk5ERUWJKbB9o6OjWR7tZ2dnJ27hEFzj31H4jX9H4Tf+HYXf+HeUYnHjvRVu8FH6GYWVFPiN19NUiVMmIjYuQVwrXvAbr6epou3Gt2rWAlbHjotrb3kVdtFg9sxmnHhW/eA3Xk9TRSaPQ7RMIa5p5tTJU2IK8Pfzy3HzxgzoCsst8/Bjhe8Rf+8Ey7M/vAoff/g5jm2dh3CXg0jwOg7HkxtzHPvcbqJ4Zv3gN15PUyWvj/rsNy8/xj1eg3nH+mDmwhkIfRyBkAdh2GG5U+1+upoqSmUCM315crSLweyZ9SjxrPpR4m+8b7w/ApKCEJgSjDGTRiE4LVTtfrqaKvkt3JX9srSYyslRS0sxVTC8c496v8QA9mNQt00XUyW/N97W5pKYKnwK7MYnpSgRePYSEpMV2LHjEBJTE3D3figSkuNwz9UZ8clJiEnIeOGiiqFv/LCxwzBz0UzIX8bAyc8Zp6+dwmcffKR2X11MFc873vC4c09cy0rMfTliQ2KZxQmmipRvCHM7cEs8q34U2I2/O3szvAYsgv/S7TDvOQXuU9bi/NDluDJwLvY36YtDnUdgd/Oh4t5vKSmFuxj/mCymDIoXt+Tclh8zuhuflJqI+weOITZZjo1mexGXqMCN20FQxslwzmIfIuQyBIRn9QSiON34m27ucLv19tWxhPvh2+jQsi0eRD/A66Q3QjXtB+adEqo3Li4oDlfOXMHimQuxcMZ81PqnBuZNnQNlsBKeDp54KHuAdi3a4Luvv8YnH30Es9VbsxxvdDe+1/BV6NdmFAaMXom/6g+CybAlaNllOjqZzEDD2j3RtusENOk8Rdz7LSXB41VvjKpJqNuWVzO6Gy9XKuC81QLxSQps2XEUcSnxcHEPRUC0DAfXm0OekAgHd39x77eUlEe9sZPbjafeS7qYRJYbv2anI9aMXA7Lk54YO3MHTl7yx479d3Dhsh/WzNyCCw7B2LDHSdz7LZpuvF9CoFFYYfH48WMxVTAU2I2PSZTBbdNOJCTIsG7zPijiZbC+7Iljk+fj6OrNiI4Kx05LG3Hvt6i78cbMZVs7pKakYOK48WJO8aDAbvz89sMw7eemWNF1FHr81Q6mHYZjYpNBWNCwKwb+0QgzOw1Bu3+6iHu/pbjdeE3YXLzIltOnTcctt7zpcEFSYDc+Ol6Oqys3IDJWhg2bD0AhlOpPnLkh5MuwbdpyhAj5m/fkvMnGfuM3b9qE+97eGDN6NH6tWg2HDh6EUqlE00ZNMGjgAERGhIt75p309HS8fv1aXCsY8nrjq1evnpmWyHLjO47bidaNJqDzGHP81mKmsDTDv12XofuEHWjZYjSGzNuDRgPXZ+ysQknxeGMnrze+SZMmmWmJLDf+weMU+Jy5gMdpSbCxccDjBym46xWEB8kJuG1thydC/lXHnHXg3G58iqCl27Ztw4oVK3D16lUcPXoUXbp0gYeHh7gHR1fyeuPbtm2bmZbIcuM5xRfVG53dPvnkk8y0hEFu/HXvjEJRbnTo0AGnT59GvXr18ObNGzGXow8FVrgjgoOD2aOYxrHVqVNHeOTb4NmzZ+JW9XCNLxwK9MYTtAONXzt58iTTh7CwMHGLegx54+maIaEhmDd3Hg4dOiTmGgdffvklGjRoIK4VPrndeH0xyKP+XfD4b7/9VkwBnp6eYiqDl2EXDGaeo6qIZ81Jib3xFhYWYgpYvGQxGjVqhF9++UXMKVrWr89ZjZXIfvOeBZ/HoO7N0buDcKOUV5EefhH1avwClxPr8Fpmh9dRl4BoOyyc2C/HsYa48dJ31rJlC3Tu3BkvXrzAp59+yvIkuMcbgOw3j+yVcLPphkvrbyIvZdlO9jrSJkeeLjd+yJAhbKmOjRs34tatjFZHKlBLuLi4iKkMCuzGt5zuqrOpEuDnB2VsLFyuXxdzMig78gxbfjLwBL4edZZZhbHnWd7PUy5k5n0kbCeG7byVmffF0NOIiH+M/dcj2Hkor8zwM9h1JRTJj5/js8GnMvfttNaZHU/noXVduDftnyz2wxcf5Mg7OvjPHHnnR/6dI+/OmF/Fs+akWDzq1d1gTaZKcGAgkhMT4eqccQMkpJtcHNiwYYOYMiwl+sZr8nh1N/7O3Tv47bffWJo0bODAgZg3fx4sLS3x8uVL1KpdC/v27WOth4UJv/GiPX/5Ost6dlPlmr09bgrefvHcOTEng46rc/YDMBYUQQrEBMQYxOLCcnZmlSh2N554/foNdlqHY8vpMKw4HJRju4Qmj1fH3LlzMXv2bEyfPp2ZxM9VquDnn39Wa9mZMWMGO5aW8+bNy3IeXcl+43ds2IG92/YizCsMa5auwfrl6xEfGg9PR08khCVAEahAYlgiYoNi4WxzPcuxJerGazNVrl2+DFcnpxweT4UxVT744AM8fPSQpc9bn8/SKvXmwVMxpRsUfOnzzz9naSsrK7bUh+w3/mncU8j95VCGKJEUkYSUqBSWTzc9TfYgc7+44DhhPS1zneWVlBvfcKIzVhwJZo/7zvNu4d8xTlhyIBAtpqm/8bpq/JEjR9hSGadkN93d3Z2tE09WnWCmjcqVK2PEiBHsRySxaNEiMaU7NgttDGcLcvZwkijRHq9LqZ4aJajTA73soZt+5coVcUsGL6xzvjpWx7Jly9jxUmw+uVye5ckhYWpqKqaKlhJ94zV5fLmRutWpdWX/gf1iKivqgizm98ZXrFhRTOWPEn3jL9vY4PKlS7AT+79lp1+/fmIq70TLosVUTgrixo8bl7dh0dkpFjf+ydPnOpsu1FuQ9XEuk8nElGHw9LzDlvzG64G6G29oJI2n/gL5RZ2OSzrPb7weGOLGP3nyhC379++PXbt2Ydq0aVk6gEg3vnXr1rhka8vSBQG/8XpQGB7/5bDTYgqYNWsm89ry5csjIiKCdRT56aefxK1ASoclmaaJOXPnsCXFzQ0KCmLnq1+/PtatW8fyVeE3XgOFceNfpmftsz5r9izWElelShV208qWLStuEZ4eZtZ4st2GmTZKly7NjqcfDp3riy++ELe8hd94DRTGjZ9+yEtMZXDt2jW2pE4H1BCjyptXug9s+L/33mNNvxKqjTkS/MZrQPXGS2+mlizR/JhVJT7+bfCB3FD3dq5jhw6oUKGCuPaWV56hYko7q1atYksKpf5P9X/w3XffsXVV+I3XgOqNp8fmli1bWPq///1vZmz69h3as+X//d//seWff/7BOnTqiuqNd3NzY4Mz9u7dy344gwcPFrcAx48fz6zqUXx8fenZs6eYesvy5cvFVN6gdwGG4J181JfN1nLXuHFjMZWT+/fv4/nz51meJsnJyWIqK5T/4MEDNkECIdUkjLHv/zt542vNvcyWFQXPJ+8n+3JYxhu7v2faquRlRKScdeQeyo/JyPta+NF4hCbD0U+J78acY3m0ba11gHCDgS+EY6Tj26/OaCqmble0bkwY3Y3nFD8McuPVzZHGzfBmSLjHv6MY3Y0/fPiwmOIUJAa/8bNmzcrSoYFeqnz11Vc4deoUFi9ezErbEtI+c+ZkNJ8SH3/yCVtK2zgFg0G/Xbqp9LLl+vXr6NixI06cOMHawmk+uYCAgByvUimfjKDqE7W5S/PU0XBqdZ0jOYaBu9U7Cr/x7yj8xr+j8Bv/jlJgN95XmfeJBQxp53yPip+Io8o7d+MpgHFxDWJsSPiNz8bZM1mHahGP9zVUO5tUXs0YeOduPM05l9u8cw4ODmIqg+ZNmqq98YunDMGkId2wa9VUzB8/ABsXjMXAbm1guXU+kOoCpLjglrMl7A+tynGsMcA9XoUxI0fB1sYGd8Q+9hLc4/UgPzf+rswLE2eMxzG7Y+jTvzeq//232v10sew3Xtu8cz26dhNTb3m8t57a+eP0smNv08aAUd74wJQQBCYHwz8xEHei7uZr6jF9NZ48Pq8EBweJqZx8KQ7DNhaM9lFPN5vsRqCr2u26WmHe+NyYMWWamDIOMm/8Ta9ApMbG4FG8DFevXkdicgLu3AtCUkoCLDeYIzk1Hqt3vB3UoI283vi//vgd85bPw7//1sI1LwdMnj0Jnbt2VLuvLpb9xtOcc5rmnVOdG877jLeYC1wytc2yLb9mDGTe+LNj1yFwljliVx6ExwJz3J21EbZjV+KiyUysrd4B57tPwMQ/c+qfJopb4S7QITDLTFEUrkTikqldlm262t+//6k2Pz9cuGiY/o2ZN/7UpZt4GCtDUkgwAkKEL0EZDQ/vYCiUMdhjuhJypQwrtmqPMiFhrDee5pxTN+8c3ZCd63fC45oH0qIesPVXLzK6hme/8RH3IvAs7hlq/10TIwaOwIl9VgjyCMbJ/SeQnpiOuMA4eF2/C5OefbFywYosx5IZA5k3vl772Rg0ejkGDV6IHkMWo+fgBejebyE69JqKun92RMfek/BLnbf917VRnDz+6rprOW4OmSIo47GcV4/XZMZA5o0/cELQ9ZgIyIU6bHRMNOISlQgIliMmKR4zlx6AMlWJzXt1L/gUt0e9xKTxE8RU8YE6vlCPJV1MIjPVY9QOWBxwgMXmMzh69g6OnvPCsbM+OGHtA6sjN2Bjfx/z1+vez9w/ISjL3G9FZef9jomfSDccr2VtudMV1S+1sMnXjd92+LJQqo9GpKOT4PGCp8fJERwWBbkiCntNJiAqMhxme7KGICuOUNcuZ2dnfPbRR2JOVuR5jLSxZs0aMVX45OvG96rZF0u6DMeCOl2wuPMwLO4+CkvaDsO8NibY12YIZrTqjS41dS/Vq8P8XISYMj5iFQqcOXUa1O9v6eIleKTHuLunTzPi6q1du5YtC5vcbny1atWyrEtkprYeFuqqQj3e7aAlwoVffagsAiERsYiOVyIyIBByeRS2HrIX984bO84X/o0/ZnkUzk4Z4VDDQ0Mxa8YM/F7tF7Rs3hwjhg7DiePH2ba84uzizMbe0bxzRUW+PP7XjivQa+p+dGw3G70nW6D14DVoO2QT2o/cik79l2LwjN2o2T1/o0aN0eMvXSyYlrrCJLcb37Rp0yzrEpkpW+d7ePIgAYG21/DwYRIiwyPwIDUFD9NShXqrN56lpcDhetbgBNqoVasWnARvk8KFVm89nnW3Vg1bwsk/ud14mlKlU6dOmesSb1OFwEkn46jDljS0Per//fffzLREodx4ml6bBkfsOe/PIkSTJnIMR740npgyZQrcbrnBzs4Oa9etZcECVHfOL9zjC4Z833gzMzNERkayNO1EAYZUd84v2m787du3sXLlSpb+SEM9uyipVrUqm9GpJGC4u6oD9cdnjUhd3GjRooWYesv9mTVzzCSVHyssCvXGa4JKnTRiljo6Uqw5ggIjffPNN9i0aRNbNwZ0vfGzRvfEa/llrJs3Qli/KPwx9lDcPoIJgzphTP/2GNm3LVbNHorXUbY5js0P9HT28fHBhQsXkJSUlJmnDqO48cWBTz/7jN14in6pirobT3PO0fJN1KXMNBmEGw2acDDSJku+qhkCKpvZ29uzSRc0hZMrkBvfYqqz2vDk6qz17KzTdVKserLsSPPC/Tr1ElunIEZS3nv9Mlrf6sy3z8yjueRSHr9gAY4o1j3lfTnsNG4EJeBmUCKb6kTad+Hx+ywI0gcDrDLz6i64guTHL9l5c+PuhF9zzB2nzryn65ZXWBjdjafZKciMgdQn2m98caXYeHx2evfuzSJZS5EpKZImTVlC0DToVGagSBz5iSrJb7ye5OfG05xzZMZAig43Pv1VepZZpPJrhUWh3HgiIfU5ppn7oONctyzb8urxFM+e5oijmDvUGkjzxhFnzp7NnGMuux07nrNTxmzhyUBBjLPPXacr2W98tG80/G75YfXi1Vhrug6+N33RuH5jJEckw8nGCasWr4LZGjP06NQzoyuWyrFkhYXReTzNOUemDYq1U65cOXRo307MyYAmOtAVqurs3r2bpR89epQjcvXDZxmdLXMj+41/GPOQ3eTkyBQkhiciwjuCzS/HtskfsjnoUqNT2T7Uk1f1WLLCosBv/IK9ATh7Q4G645zgdC8RbWfexL2wNI03XhePr1TpR5QqVYpNVCBBmk+YDByQMedctvj26hg7dixb0jy09COoUaMGW5dIe6rbjVc7f1werbAwOo/XpVT/008/4uOPP84MNExeLjVUmAzoj/QA7d2nLl68iISEjE6X33//vVBHb8nSqvDCnZ7k58Zr83hPT0/ECtulm5YdXR/1UstWbuhSuNPGs+fPEB4eLq4ZD0Z342nOOTJt5OfG00TEumCEkcsNRoHceHVzy2m2tzNN6YN04y9dyqqL2m78DXcfMaWdZy+Lrh9dQVMgN94Q0Dvm7Ki+cJBuvK+vL1tKaLvx6a9fs3lpdYFrfCEQGBiIvn37otKPlXBWqItr4s6djGgV+XnUU5djXaYt4TfeiPDz82NL+gHQwAh6ClCHTgqcTJgMGqB1zjmifPnv2MRDNEcOxc6lAtjp01mHgfMbb4S899577KbT9GOq88WZDBDq8TrMOUdzz0yYMIEdT616dC6aPEmVF3pMY1bcKLY3nm6UNMEQdd6kHwJhYmLClvpgZWWV46YTr0twsd6gN37gwIFiSnf271c/j7s2bO0y5pelPoL0I5CaXk1I45/r/og+fOQwe9zTVKXZMUQ93lgx6I1Xir09mjdvzpY0rIhGclCsenqcEqmpqWxJ0IuWFStWiGu6cfLkSbakZlYq0e/YsQM2KnFrqM1dQrqZmqYeI6TCorpOlFzjixH0pk0q6ElVPZoivHv3nAM+VWfLUCqVmXPOST8CfuONAGleuKpTMgIE/jz5YmbeJ4MyngIDt93KzKMJCmOSn8DCISxzrrlvRp+DjZcC/vIHKDPiTOa+dBzxycATmXk159jh0XPtL2mKKyXO4zkcjmaMxuELY5ZSDqewMORssIaEOzyHUwBwh9eCOoeXXp9Rl5vChpoCOZy8wh1eC+ocnqJoELt27WLv6okFCxawnrFSj9r//Pc/SEtLY+kyZcqwNneJq1evomLFilneu1OnSglyagptRrRv3x4Ojg5qR5jSOH1patSqVauy/n40fSqHownu8FrQp0i/fv16TJo8SVzLP9RDW92LOU1Q34+8vITkvDtwh9cCr8NzShLc4bXAHZ5TkuAOrwXu8JySBHd4Lejq8F4xN7Hcfhw3FVtxpfhNn1PS4Q6vBV0d3lvhZjTzWhmLZZ9fS5XEpFTEJyZnGqdw4A6vBe7webfcHD5OmZg5wV5uk+wZAja5fqSdUdozm7wHOcwL3OG1wB0+75abw9OIIFXTh+FDh7KlrtOpM4cPu6iTpWdb37Z8Spa8JdOGIj3cJss+6eEZS8guI/LGwcz17OdSZ9zhM+AOXwKsoBXeViX+1D2vnJOPScMOdXH48YO6YePC8bC1XIMfK3yPTz/+Asn3TiDixgG0bvgv22fi0B7Ys3o6+ndpjTkTBuCnHyrhwl5TpPqcxssIG9y5vAtXLFfj8Lb5CLi2N8eDQZ1xh8+AO7yOFpAcDL+EALXbitoK0uEVMQq0a90GC+fPF3M0o4/CF7Zxh8+AO7yO5p8YiICkQIQ8CENwaghuR3jiGV5A9jIG5ofN8WPF7+EVc0/tsQVtuTl8eIRcsOhMywuzZ+kWAVIdmzdtFlOFR7fOXcRU0cEdXgu5Ofzpk6dw7eo1/PbLLzjjcoQX6bMZOfyF89aZ9k25cjh2NOMhYJAivY51eHXY2mgPR2toZkyZJqaKDu7wWjBmha9dqyYqV6oEs/1m2HV0F2Jex+GEnRXkrxTYe2ov7sf5YsS4YejYsR2+Kf0VfOML9/PlpvC+fgGCBWZaXrhkmxFtJi9css37wyKvTJpY9P0SipXDezv54mmkDOkB4ZAfPIN0nyA8vicUay9dx/YFG6BwcIXc+jI89p/FrZ0nEH78PPz3W2HPgCm4Om85bm/aCde12zG9ywRYz1gqnjV3eKNd3s3QdXinbc4Zs+NosLunczbcEZdM7dTubwzmdiAjnFVhUawc3mbnSTzy9MaLm/cRs/sEXnv542VwOOLv+uP47pN4FirDc1kcIu4EI/BWEJ5EyZESGISza81w5+R5JEWGQynUF9dtOIyocO1zghDc4fNuhnT4gMsBzEHGDB6FZXNNkRiahBDPEJw5dBYPoh/ihfIFEkITcH1rztmhcnN4Omb90nW4eOwCNq3cyM7duU1HtG3eGvVr1UXX9l0wvP8wLJg2H7evuEMRoIDMV464QCVOHTiJlwmvEO0jw8IZCzBl9CQM6zsYDWrXRY8O3fBN2XLo1KYDlMFKtdcmK2iHv3TpEguxLlnjgb9lpocPH2408RXUfoodR+zhExiGQMHRbTbtgYfDDdhctsep07YYPnYpdlpYYqPZXixdtReTZq3D4qUbmQ3o2B8jeozE2CmLMGbyQtRoPAhd+kwWz5o73OHzbrk5/HUnV8FuZlpuJEeK058JDiL3k2dxGFrPnmcrOLgquTm8MjgezjYZJQfVc8mEpcxPxtIbTddnbqelZNmvnX07mXQOTcYVPgP1Dm9pj7CYBMRFxeKWxVHIfAKgSFAiVCjmb9l2HNGKWMQkx+G+8BS+4R6GaGU8LjjdhsW6A7DctgdRsdGQKZRYvvkMHDz9xbPmDnf4vJshFP7V81ewW3EZtsvtctjllfZq88nsll0WzyCUDJdcyrH9kqltjryCtotLbXLk3dznJn7KwiEvDk8z71BJwJCWHbUOv3m/PbyD5PD3CcPZRVvhbueKW3dDcNMjBItWHBScPBjXbwXigr0PDp/0xGVHf1x1DkKPgWuwfOpa2F67L2zzx+yVF7Bhj25TAXOHz7vlqvDOrnByvplpeWHt6jViqnAoW7asmCq+FCuH333UEbLEeCTGxsJjuyXCXNwQlxAnqHaMUJw/BZmg6LEJiQgW6u42V+5BHquE7L4/9kxdgAMrt7IQUPKEWOHBYY19J6+KZ80dXR3+1euXePLyEbdspkp0dMb7dq+7XnBzy1A2mq1ph7k5fq/2K3r16IHqf/zN8nXB8ZqDmCoc1qwp3AdMQVCsHH764HmwWrkZOybMxOomnbGh92CsHzUJq4dOQu/63WA6aDQWC3nTOwzA8IZ9sKjnMMxs1hPL6nXCsN8bYmqbXpjRcSA6/t0Vnap3Fs+aO7o6PCfv1K9TBzOm6T8XviqODo5iquDgDm84y45ahz9w5AqS5dGIjwiF57a9CLW+hLjIcESHhsBi5zFER0YgTh6BqJAInLN1RVREGOLlkfA7fh5mJhOFun8U5PHRMD9ki3Xbz4lnzZ2CcPgd53WPU1fSGD9uvJh6y29Vq7Fli2bN2FJXnj19hlNWJ1CmVCl4uN8Wcw2Hi4tLjknH/P39i3XcwMJ2eArCqi4/O2odvoHJakxZdRSjFuxBp8ZD0KfbFPSbvAv9p1rg71az0GvSLvSbvostG/ZZgx4T96LLhD1o0m81mjQYL+Sbo/2Ybfi13XL81tGw7+H14V1yeOrvvmblKuzbsxd2drZwEn488+fNwyUbG+y1sEC/Pn3Qu2cvtGnVCgNNBqBdmzbo07s3TPr2Q42//sGypbrdJ45uFCuFX7vHDpHKBMjjYmC7ci0ctuxCXJJCUO0ErNl4AO7e/ohNTkK0UI8/ZOXIlvIEBZzO22D34nVQCvX3uOQ4rNt1CestCk7h27ZtK6ZysnLlSpx0imHpe/fusSWHU1gUpsOTurdt1xbflS+fY1t21Dp8UdBqTmU0m/m9Vqs9IWNmaOLTTz/F5MmT4eHhwYqAQ4cOhbm5Of76+y/MnDkTf7UYw6YVnT59OiZNmsSKiP/73//EozO4cMtS7XW4ccuPdTOtKf7CdCevDv/5558z8VO3LTtG4/DLj07UyRYcGCEeoR1SeJq0IjfuhrqqvQ43bvmx1Vb6N44WWZFe4vDhw2Iqd169yv/0uvmtw585c4YtaaZ4ExMTLF68GKPmH2BpUvfbtw3f2MThaKJY1eElDh06xJb0Xlf14PJCXWHhwoUsTQ6m7sT6UhCNdlIdPi/Q++udO3eidevWrLhE1QJi/Pjx8Pb2RlRUFFvncNSRF4cvDPLvqQbC0A5/PzQNcy38xDXDYGFhgVu3CrdPdnGmRYsWYgoICAgQUzm5M+YXeI6sbJR2d8I/4qfUD+7wWigIhc8LVD2hhj4JVSUPCQlhS+q1RkgTT0r5qtBcdXPmzMmwuXOz2Lx587IYTZCpaosWLco0KklR9UTVlixZksWWmppmseXLl2exrWZmWezgwYNZ7Ny5c1mMipaOjo6Z5uXlhbt372YaTcCpaomJiZm2b98+9l6drGbNmplpV1dX8ZvJyf2ZNfEy7EKe7FX4BaRH2GSuPwk6l2W7qqnup6t5jqoifkr9KEiHj4uLE1M5KVWqlJhSD3d4PXj58qWYysmu3bvE1LvNunXrxFRWhX///ffFVE50cXjILwMPXIDHN/Eo5DzWzBkG5Z2jiLt7FN+XL8v2aVL3L5zYPpdVMc/uXgD3c5sR62kJxF+DzQFTIOYy6lb/BTHuhzGiT5sc11BnRenwUlXZVHiI//LLL2wILhETE4MOHTqwdLVq1dh+L168YOufffYpW2qiWDl8uRpjBBtrcPu6Vs5eaRI+Qn1dTj0HRbt+7Zq4haMNZXy8mMqd/Ch8QZshHP7169es5GVI6tati+cvMqIF60OxcvgWU53Rcrqrwa31bE/xCjkJEIrvytjYTHMRiru5MfXgXTFV8kl5ornEY2h0bRim/TZt2iSuaYb2o+pRQcHr8FowVocP9PdHvFBnkkybw795IyZygYpnhK4/YmLt2rVsKcWAl14zPn36lC1LOhs2bBBTxQPu8FooKQpfenhGf4DcoN6B1G+AltQAmJaWxnoLSkNZKSwSbZN4/PgxawQkSL0uXrwIT09Ptg+p1LUiqmakGkjh37x+g6trr+La2msazWa5jdr8gjb6XHmBO7wW8uvwEs9epOOmbzKu30vEv2OuY/YuP3Rd4A7vsDS1x5EZ0uErjD0vpko+hnL49FfpUAQpEBMQUyj2QPZAbb46iwvT3CKeG9zhtVAQCt9kiguSHrxA48kuardLVtgOLxXlHz58mPkahTr3uN7MeHBlL+r3798fbx4UTNFduta2bdswd+5clv7ss89YQxORW7WjsBw+NToVT2KfMEdNjkhGYlgiXiW/YnmJ4YkIvRsKZYgS86bNY/t/XfZrtu+iWYtgd9oOz+OfY/uGHUiKSELlSpUxc+JMlP+2PII9g+Hl4pXjeqrGHb6AyI/DtxCswQRnNJt6A00E5240ySXTyZtOzshrMc0VjYV82if78YZ0+CqTco/hHhQUhNTUVJQpU4at9+zZM/N1i/TqKnsvPpOBA/B4+fFMw6sMZzQEHp4eGDcuYxqmihUrZvZBkBy9ZcuWbKkOQzXaFbbC62Pc4QuI/Dj8uuMhmLHDF1PNfdg6Ofic3X7MuTeeCEXbWTex6mgwJpvdZ46f/XhtDq9Po502qLsyKTY5FPXxHzFiBEuPHDkSnTp1wo8//sjSqpgMGIBnltfx4tp9pAuOoVPLYC5IHYW2b9+OYcOGsetPmDABo0ePxv/+9z4bdUijCkeNGoVGjRqyfbWxbNkyMcUhuMNrocQ02g3L2WhnaWmJNm3asDQV4Tdv3ozTp08zR6MlOd5HH32EU6dOsTxra2u2r4TJgP54ceYW0n3z33+fOsN88sknrHX/119/xfnz51kDIl2Xrl+rVi2m+NJnmThxonhkTp68SBdTGZ1DihL6rMYEd3gtlBSHz16Hp1dwycnJWV6fJSToN8cblQgMQe3atTMDXOoKdb3VhGodvqgdXqqWGAvc4bVgrA6vL6oOr0l1CtvhFXFJeVZA7vB5gzu8FnRx+OLAVyPeFulTUlLE1Fuoz3N2h6d36rmRX4e/6ZFz1KCmGAahYaFiKoPcHF610Y47fFa4w2vBWByeRnu1atWKpStUqMCU8csvv4QiVsEiq+7alTFIhsbF6wLVibMH3yiKIn16ejpmzJiR2VNPV3Jz+PTXbxsPucNnhTu8FoxR4f/9918xpTvd1ruIqbfY2WXMwUYPE6Ko6vDEjRs32DIhUbfPkJvDv0x/+3qQO3xWuMNroaQU6TV1vKHGuy++yAjASa3jUuOZVLemrrPUqEZQiUIVk0EDkNpjZQ7LKzRGXor5LnWyoaG/0meh13NOzhmzw+ZW9+d1eM1wh9dCSXd4olGjRnB3d2eBMyRHoro0Rd8lmjVrBl9fX5ZWheLyvXmZ/7iBqnz11VcwMzNjaemzbN26NTN02X//+19WDaDXc5rgDq8Z7vBaKCkO/+Ww02JKPdSbLe1hGoJDglG1alWW99NPPyEwMJClydGyYyIU6V95hgLP3zqYIZAcferUqdiwfj1Lv/fee2xJA3aoN+DRo5onquQOrxnu8FpQ5/AbN25ky2fPnrEiJ40qUweppFwuF9eAJ0+e4MGDB6wLKx1DreWv0l9ltporlUq2pJBMBHWM0XRufYlNfSamNEN1+OxGn1l1vbCga9F3Rd8NfR+qn4EsPpcgFs9eGk/HG+7wulFsFJ6KmtI4ckK1bklFYYL6qVOXUNVXTlQspbHk0v7S8s2bN6zVmqDhqNSabggOOeWc3qp69eqZytm0aVP2GaX+81JcvCFDhqBKlZzRVagUQHVsKupT99fZs2ezfHrAUUBN6tJKMedKly7NYp1Rd929e/dmPixzQ92rOakff4wiBo0bN0bnzp1hb2/P8ji6wx1eC+9CHb6wGDkqa1/8giLlsWGrGCUJ7vBaaDe/GlrM/pEbtxJhfVfVF3/ZxoXRODyHwyl4uMNzOO8QRuHwnRf/hQFrGnPjViKs78p64i/b+DAah+dwSgpHrmV0aDJGuMNzOAaGO7wWuMNzShLc4bWQm8PHxsaynnZFBXXQ4XD0gTu8FjQ5/P/93/+xZX7nYv/ggw/ElHb02ZfDUQd3eC1ocnjqyy11ha1Rowa2bNnC0sRvv/2W2Tee9pEGn1CXU1qXxrLTsFPpHAQFo6B1qdTw/fffY8DAASxN/dmlhwz1K6f9KHY8QWkK+EjQfqrn5HBU4Q6vBU0OT3OTEzR+nPqfS0hT5UqDX8j5qB85DZYhNm/ZjAYNGrB0cHBwFuf08fFh6zRghJDiw1OIaEJyeIL2o4cOQUNYaToogvrG5zaohPNuwx1eC5ocnuK/7d69W1wDwsPD2ZIcb9asWYiMjGR1fHJ8KvbT8ubNm2wfaaQX5ctkMpZH0Pxt3t7e7FiFQpH50KD48ERkVCTbRteibVRCoPNQms5DD4rQ0FBYWFiw/Tmc7HCH10JujXbqoNjqhqRPnz5iSje6d++OsLAwcY3DyQp3eC3o6/AcjjHDHV4L3OE5JQnu8FrgDs8pSXCH1wJ3eE5Jgju8FrjDc0oS3OG1wB2eU5LgDq8F7vCckgR3eC3o4/DL7ccLNo6birlHOYjfDscY4A6vBX0c/tjdnfBR+nFTMY/o3Oes5xQu3OG1wB0+f6bJ4b29fRCfmJxpnne9xS2cgoQ7vBa4w+fPNDr8fV/ExiVkmoenl7iFU5Bwh9cCd/j8mbE4/Kuoa3gVaWd09sLvuPgJCwfu8FrgDp8/KyiHV8Yrcdvdnc3F17ZVKzFXM68iLuNV2EWjsxe+h8VPWDhwh9cCd/j8mSaHpznpKNCHZM9fvBC36Mfz58/ZsnGDhmypCX0dPj3chi3fRF7CrImDMvPfRNli75oZSM/cL+txrRrWybKuzbjDv4U7fAkwTQ5/z9sH0TJFpt10ywjgoQujRmbEByC0xfXbsG4DW2pz+DcRl+B6dguObpmLe7bbgXQvPAg4C/sjq7Fg6lAg9ip7CKQKebTPLafDSLx3AsGOe1Djj18xoHtbdGhaH5OH9UTTOjXwn//8D0N6tsfrSFu115OMO/xbuMOXACuIIv3SRYvE1FuF1zaltjaHfy04/AO/s/CwNoON5WqE3TkOTxtzjOjfBbMnD8adS9uEfWywc800zB5rAtPpwxBx4wCOWixDnX/+xJTRffFH1aro3bEFKlX8AYOEB8DauaPUXkvVuMO/hTt8CbCCbrSTHN7puvrrSPA6fAbc4bVQHBy+a8/OavONwQrS4adMnIQhAwernUs+O9zhM+AOr4Xi4PC/CEXJalWqCPYzM3oAmAwxQcdO7dCnX08cOXsEwWmhao8taNPk8E+ePoVSmaBieQu8efzYMTGVO0+Odhasi2HsmJq8PFtGgNLCgju8FoqDw3fr1RV16v6LTp3bY+7SOahUoQL+/vNPDBjSHzHpsQh7HAlHHye1xxa0aXJ4r3v3ER4RnWkuN26JW3SHWvotDx8R1/TjyZPHYkp/WjRtLqaKH9zhtVAcHD4oJQSBgtEyKDUE/kmBTNGv3r2GqXOmFJm6kxVWHV5fmjdpKqb056svS4sp/Xj+7BkWzJ0nrhUN3OG1oM3hL5y3Fn4AX2LJosU45rVL7Y++SC1OTV4h2gHb7ew7Ils4fyG6d+2Gx48eFbnD61Lv18T0adPEVPGDO7wWjF3hfRMCsiyzbIv3R8/e3eEjLKX17PsUtBmrwnOHNz64w2uxsEfh2LpvC846nsXZ6+dQ859/sNZ8HXYd24Wvv/gKV+5eRR+TXthksRHXfZ0RC6Xa8xSkaXL4pKQU+PoFvjXfAHGLfqS/ybvj5pVJUyaKqeJHsXL4TRbnkZCUiIRkBZx27sZ1i71ITJQhPjEWGzfugourK5LTkpCYlohTF5yQmJKI5NQEeDu7wHLTNiQKx8WnxGP74UvYfcgODx5kTP+UG8bs8MGpoejZtwc27tyAjYJTz1s2F526dUTlH37EiPEjWMv9r9WqoXKlSghIDBTq+cFqz1OQllujncede5l2yfaquCV37FdfQWxIrFrzs9f80FCGKdUeU9QWdSd/k5HqS7Fy+H3mZ/E0XIbHoSHwXGcGnw0WeOodiFQvX1iYmsNl33HIbOwRffEKTi7dBb+DJxFseRrOq8xg0X8S3NaYwWn1ZqwwmYXJHcbAcdVm8cyaKQ6NdsZshi7Sh9+OQIx/jHoLiEGYi/pZdxRBCvXHFLGFe0SIn7BwKFYOb9pmPO7OMoP/QnM4tB8PhzbjEL58P/yX7oR5j6k4NWQ2bk9aBYdRi7Gn22xcMJkDe5MZONN9PNbW7IxL/abjZLexmFmjByZX74ULo7W3mHKHz58Z0uE9jnqqdRpVc9vnJu6dFUM4fGxgrNr87BYfHI9wrzC127JbUTv806dPxVTRk8Phty3YgYQbHnh0+w7uLTNDwLrdSA+JxIvQCBzYtBfu56/gaaRMKAXE4PKp60gJluFZtAwK9zs4u2EnksPDkCKLxtFjl7FtlzWSlLHimTXDHT5/ZkiHv3fOG1E+UTh76CzaNmuN+rXrofw336Bc6a/wXbly6N6hG3PsR0lPxCPekpvD/1u9Nto0b41vhHOcPnQaN2xdYbHZAlZ7j8PxvAMmjZyAOZNnYajJYCgCFNi8YiMqf18J3339Nb4uUwbtm7cRzlELfm4BOHv4DKJ9ZOy8SWFJ2LRiE+ZOmZPjmpIVhsOfPXs206aajsyyTrMQ99Zz/sKCIofDr9lhjfikJKEeH4tra7fCbfNOoQ4vPHnjZViz0Rznzl1EjDIa0bEynL5wC2GyWCgTFQj388HeddugiIkStkXB4qgd1u88L2xTimfWDHf4/Jkmh4+JUcDt1u1Mu+GqXpklZHcEJxKK7NetHSH3l+P78hVwYNt+/PHLb8xhI+5FIC06jTkR1fOzk5vDD+kzCNZHz6Pm3zVwYq8VHskfwd/NHw+E5UPZI5zadxIR3hEYNWgku3bPTt1x084VVatUQf2adVCpwveYMX46gm4HYbNQTVQKCh/pHSk4fjTuOHiovaZkvEj/lhwOv8TsHHyDo+DtE4hji9fhwLQlcLt5G9euuWDMpGWYPnMFdlgcweoNuzBszDLMXbwBS1duxcI5K9G3w2DMmLUMk6YvReP2o1Cj6RBMmmYqnlkz3OHzZxoV3tsX151uZtq585fELepx3u6S6STkdGzpJ4fMT8ZM2kZGjWHZyc3hWzdtyZaq56FzS7Zm0SpB2bMeo3ptSkt5tKRSgLSU8jQZd/i35HD4SjVGoO+wVeg3ciU6NOiLVrW7o//I5egzbBn+qD8AtZsPQc/BC9C171w0aTsBrbtORpveU9G52ySh+NcLnXtNQqdeU/BXveGo8u8gDB69WDyzZrjD588MUaR/lvYUsUG61Z8ls11qJx6dgSHq8AVh3OHfksPh5607ieBIJSKiYuGy6xAurTVjRcMYZTzWbTmEffutEJMYB1lCHM7b3kVIdBwilQk4ZncbezbvE4r0MYiKU+DclbtYbnaW7acN7vD5M0M4vM3iS7BdbqfW7FZc1piviu2ynPvk1S4utVGbnxezW571cxY0eXV4qusb0tzd3cUzvyWHw68wPys4bALiEmRw3bUfjsvXC3V4BeKT47Bu/Q7s3H0YylQllCkJuGjnJTwcYhGXHI9zTv5Ys+owYhXRUAjrtje9YXboMuJSEsUza4Y7fP7MkI126rh6Vbf395wMipXDz19zFt5hSvgEynDR7CBOzl2HO15huH0vHLPnb8LS1QfgdCsITu5B2H/UHefsfHDFJQB214KxZMkh2Nnehs1VX+w54YVpy8/C4Wa4eGbNcIfPn2ly+PDwSDg538y0K1fU76eNq/Y5G+gKEhqhV5wpVg5ft9sarN3tjI27r2PxqJVYbDIHllbusDztiWFj1mLKgr04YeOHc/ZB2HPYCyes/XBGWD9z4R6WzdmNi+fccf6KD45a+2Lm6rO47qa9l5M+Dn/caxf8EgK5qVh2h69aubKYMgx57UufF8qWK8t+rMWZYuXwVIePUCQhJj4e909chOPKzUIxXajDC3XxLVv3YPO2g0JxPx6KJKXgzAHw8Q8T6vgyOJjvx66F6xFw9w7kyjiExCRi1Y5ziE1OFs+sGX0c/snLR9yy2avXWaPRVvy2PCoI9mvVavjj199Qu0ZNnLCyQlJSEm7evInYWO19I1QpTIcvCRQrh1+0wQrRcfGIT5DD5/Q5OC4W6vBCvTwuUY6NG3dis5kFYuOjBaeOhotQtL/nKzi8nw9M63TAgla94WJnC5ksEoFRMmzafQ6KeMPW4Tna+aFCBVSrVg0tmjRFh3bt0KFtO5ht2YKzZ86y7ZERkWypK+np6WKKowvFyuH7d54Iy9Xm2DdnKdb3GAjTum2wdvBIrBgyFt3/aYFuNZthSZ9BmNPNBJPbDsXkdoMwv6MJBlaqjrXtB2LYv80ws8MAjG/VH23/6ADTITPEM2uGO3zhMHPGDMTI5eKa/vTp2UtMcXKjMB3+v//9r9p8Mp0cvmmlVpjXZSRMu43CnLpdMaVqY2zoMRbLuo9C92pN0OmXpljedTSWdBiG2a2GYkHbYVjUth+W1++KSws2YEytVpjWri8mtByAFr91wPrJhu14wyl4ypUugx+//x7lypRFua/KwtzMnDWkXb5sx51eBwpb4atXr642XyeH32FujdhIOeJlEYhwcMKdrRZICg1GbHQEDuw8DPMtexEnbIuJDoermw/u3vWHQh6BxKhwrGrUFRcsDrBXc+FyBZZvsYIs1rB1eI5uPH32TEzpz2+//IZvvvoKDerWxZ+//obZM2ex/Fu33PBtuXIsbShu3LiB1NRUVKpUCT/+9CMaNmyACRMm4Lqjo7hH8aMoivRffPFFjjzd6vAbTyM0NgEKZQyiPe/AcZM54iLCER2rwOZt+7Fs9RbIE2IQGRuFG7fC4OEdjJgkBYIjQ3Bx/1HYHT2FCGFbiCIBpltOIzKeO3xBs8zUFEcOH8YFa2ucPHECE8aNZ1NLLVq4iNXdQ0KC2X4Wu3ezJfGCpp168waODg6wuXhRzC183Nzc1M5so222G2OmsB3+hx9+UJuvk8P/3mkBRi87jonLDmHSdHP07zYRw6aao++UHajVfhaqNZmM3tO2o8eEbeg8ejvajzBH1wkWaDViC7oNW4m2fRaiy6Tt6DpxP6q1XoTxy8+IZ9YMd/j80a1zF7wUHHjd6jWYOmUKBpj0x8xp09m22jVrseWwwUNY49u40WNw0/Um7O3s2MQSSYmJrBWfYziKVaNd2Toz0XbcPnQetxu9hm5Aj05zMWCSBXpNtkCdznNRrekUwZl3oM+UvWgxcCPajdiGTqO2oJfg5C3aTEXvYaswcOYODJt/GHX7rMeCLdrVgzt80eLv7y+mOIagsB2+ffv2ahvvdHL4FVtt4Bkci4iEWChDguB96AQSY2SITYqHja0jFq/YDnl8AutPf8MzBDfvBkGeKEeUUo59a8xwx9EZcclKodifgsUbTiEmIff5yIi8OLy2d8MJwueRWLFihZjicAqewnT4//u//0Pbtm2Z02ffppPDX3S4J9TXE/DgcRJexMdB7uSGF0lJeJiWBK+7Xrh82RmP0pLx+GEKwsOEunxULB6mJuJRahI87a4i1j8Az9JSkJKYhAu2N/E45YF4Zs3kVeFHjRqF7777Do0aNUJCQgJkMhm6d+8OExMTyKPCcOTIEdaCOUUo5tJEiIeFei59ERxOQVLYCt+uXTs0b94MP1TKWpfXyeGLglZzKqPZzO91MokHDx5g69atKFOmDD755BMMGjxI3JKBxU4zVKhQAb///juz5s2bIzIyEvPnzxf3yEDdNbhxy4+1nvuz+OvSD1Vn1cc6duzIfuvZ843W4QsDRYxCTHE4xkl2h9XHOnTokCPPaB1+8eExWH50ok6mjocPH4qpnJC654a6a3Djll/LC9kdNr9mtA6f31b6r776ihVrNm7cyNZpkMi3X3/J0k+ePEHnzp3Rpk0bts7hFDSWDtvElH6oc9r8mN4OP2DAADFVsOTX4aln1sCBA9GpUyfY2dnh9OnT6N2rO3x9fVlr/tChQzFoUNY6PodTUBSr9/Cq9OjRA3Xq1GHv+AipYSA5ORk7duxAzZo12T5///03255XjPE9fExMjJjicPSj2Do8veIqJ/adpmD6dBLCxsYGs2fPNlgJwBgd3ny7OQ4cOIBr166xdWrdnzVrFszNzdGzZ0+Wx+GoI68OXxjk6vD0KuvTTz9laSoaSw5PfP311/jwww9Zn+dDhw6JuXnDGB1+9OjRcHJyQlhYGI4cPsLaCerVrydu5eQGvS6lPhL0cKRx+e8axdbhs6Pq8IakIBzeykGO/ZcMO4ng9u3bsWTJEnGNow51v5H+/fuLKXW8gefIykZpHiN/Ej+jfpQYhy8oCsLh1x8PwcuXxTsYYklit8pIvey8irTFy7ALRmevFQ7iJ9QP7vBaMJYifVxcRgz98PBwREVFoW/fvmw9KCiILevXr8+GlV4Uh5NSbz9NzJkzJ8Pmzs1i8+bNy2ILFizIYgsXLsSiRYsybfHixVmMShiqtnTpUiw1Nc205cuXZ7FNmzdjq5lZpplt24aDBw9mmpWVFc6dO5dpNBeao6Njpjk4OODu3buZ5uXlxao5koWGhiIxMZGZra0tXFxcMo2GvkrpDz/6SPxmcpIfhw++bpFl/XHgmSzrqhZ984DafE1mjA5P9zQ/cIfPBjlxdHQ0XF1dWeNc2bJlWT4VVemNhVwux6VLb6dsunXrFsqXLy+uvdvEx8eLqZz89Zfme6yLw/dq3xAWqyfh3G7hgTjZRHBGe5h0aYovPvsEg3u0ZPtMGNwZ8XePCfnNAGH7hMEd4XZmI4IdLbB8xiBsWDgSw3u3hvOpdejTsXGOa2Q3Y3B4+t3du3ePpakvCbUlEfXq1cP337/tak770dszbXCH14HcgjG0bt26WAdrMDR+fn5iSnd0cfivy36Jzz/9hNnIvm3wKvwC/vntJ3xTtjRehF9EesRFPA44y/bFM3fm4Ii2xbfC9g/+9x4sN8/CRsHhobiCZ6HWwvEXc1wjuxWlwz9+/Jgthw8fDg8PD5Ymh6exIwSVzKi0JUEOT2KkDe7wHINDpR5V7O3txZR6dHH415E2mYYoW+aw5NBSHu0DmV1GvrCk9fQIm0zHfhN1Ca+FdTqGHg7SeXOzvDr8UUdzMZWBuoZMXaAqlQRVl4KDgzMiFQls2LAhswpKVTPqcEbk1s2cKDYOb3nKHuVqjC0Q+/KntuJVskKvIuVCXV7VOLrx6tUrpOXSxqFKSW+0y6vDa4LaRmhIeF4oNg5/8txVtJzuWiD24z/dxatkhRxeGRubxXLDKzIFX486i88Hn0L9BVdYmqDlp0Je6WFnsuSRfTnsdJa8OvPtUWpI1rzuG13wwQCrLHmjd3uwc1L68fN0tjS/HIxSQ0+j3MizuB2SxPKcA+LZOl3nnIec5QXIH7C8UkNOYc35AJaX9Og5ygnLz4W8Ubs8WJ50rU8HnUCnNc5Z8koPP83ShsB72j+4l4v5z6wOvzn/qt2manSeqU2/V7tN1Wi/4XXLq92marRfXuCt9FooKQ4vT34ipko+XwgPhsJCCsOsDU9PT532o6KxoVVXFe7wWjBmh09OTMxiueEr0x7Oq6Twjaj2xga9YdGFvDQu6gp3eC0Ys8PHx8VlMUOgb1dkGqREqFUl/oIgC9zhc4c7vGCGKtLrqvDr16/PHHhEHWfo3ernn3+On37K6MpJnVgIaU630aNHwdramh1DI6DolYwExfIrCrjCa4Y7vBZKisPfj04VU5pJSUlBfEI8myhi27Zt7N3qpEmTMHnyZGYUgFN6jdWlSxe2pO3Uu4+CcS5btgympqYwMzNjHV327NnD4gAUNt+POy+m8s/V1Vdxbe01g9iV1VfU5mc3+1X2avOzm9MWJ/FT6g53eC3k1+EbTHBGg4nOarfpYrk5/E1n5yyWG2HKR2Kq5EMt/IbCYYMDYgJijNIuLtB/Vh7u8FrIr8OPXOeF4YLZe8TDwSsBw9bcZccokjLmV5MnPsXCvQFqjyUr7CJ9ScCQRfrCdHi5v5yZum3qjDt8AZBfh6895jqqDryKqgOu4O/hDth4MpR1dw1TPMaAFZ7s+B3nI9QeS2Yoh9cFCh4yd+5czJgxA9OnT2cDaGg5c+ZMNtiG0vv37xf3zuDHHyrh559/1suk9oDcMF26NPP69HmkNH0O+jyU1tZzyxBoc/gT+08g5G4IbE/aQhmshMxPhuN7j0EZokRccBzcrrghLToNm1duZvuvWrwa913vY8OyDUiOSIavmy+cLl5HcmQyLLZYwN/dHwtnLISDtQPcr7nnuJ6qcYcvAAqqDh8uODwpvrptqlaYCk+O1apVK5YuXbo0q88TUgs8NeLRLCKqPJbn/jowr9AkHqdOZRTNpetTANCKFSuwdPkKFRAbp/5vLkyFr1i+Ij784EOMHDQSH330ESr/WBm/VfsNTRs0xeB+g7FxxUY0qNMAwXeCkRgmfFdPgFCvULhedsUHH3zAHPzQzkP4tepveKZ8htgg4W8SnmN0nLrrqRp3+AKgIBvtmkx2UZuvark5vKuTUxbLDW2Nds4uzpmORdP7SqObpDwa7kpDZBs2bMjWJQrC4SlklxS+TLo+jRSURv7R9M00cYdCw0Ou9QrDTeeszeHLf1ueOemjmEdM1UnlKS2Z+XpzVkxPjUpl+9MyJTIFqcL9oHU6hkoA8oCMfRJCE9j2h/KHWa6jzrjDFwD5cXhy6MaTXNBIsOz5zabeQHzqczSc6IKmU26gsQbnN5TC+8tz7zs+duxYFmGX3qvT1FeE5GzHjx9nLfBE06ZN2VIibdkxPF5+PMMWWYq5+YPU/c8//8Rnn33G1mOFv61cuYyhwB3ad0BERARLa1J43minGe7wWsiPw6env8GMHb6Ytt0XnebdYo7vEZiKfqYZdXdl8nMERD3EiHVeGlvyC7NIT0VSCghKqCr72rVrWfr9999nsQRVebDiOJ6sOsHs8dJjYm7ekYbz0vVfv36NoKBgNtafoFiFqakZJRXarohVP2PPN6POian8Y7PQxqhNX7jDayE/Dt9cUPFmgnpPM/fBlG0+WG8VIqj7DUwV1ptPu4El+wPQfdFtNJzggklb76s9R24Ob6iedt9++y0GDxmM2rVqYcyYMXhPcOxhw4bht99+Q4sWzVmaHGzcuHE5FP7hEUc8s7yO9GAF0gO1j3nWBgXorFTpR6byFNWHPpt0feoLQAEoaVZSyuPhuvWHO7wWCrIOr4vl5vCG6EtP45bpXETffn0zi9HdunVjobAJSe3DI8LZPGGqPDrvhhfWt8W1/EHzCdBEHcQPP/yQ+XCRrk+KL6Wppb4wGu1KGtzhtWDMDq9PkV5To52V1QlWJ65duzbGjx/PWsbr1q2LwYMHszQ5GMWTO3PmDEtnH+v88LTg8GeyBpXIKzROnSBVpxBJ0vUtj1qyBwGlaUkz+TRr1gwxCvUKP35vRpXJGEhKSmQhyYwF7vBaKCkO7xOdU+F79OzBHF2KRUYOr43srfRPnhpm2C21wFN3XnpDQFCjnTY01eE/HXRSTBU9LVu2NKq5A7nDa6GkOLy6Ij05L81fL1FUDk9F9YoVK6KySoec/Dg8L9Jrhju8FozV4Sl+2OVLl7KYPlDDV5nSpcW1DIrK4amo3rBBA3Etg/w4fNqTl2KKkx3u8FowVofXF1WFp04rNPlmdorC4XftskDv3r3FtbdwhS8YuMNrQReHf5WeLvzwnxeIPRXMEATHvu13fuzoUTH1lubNmmHq1KnimmY0Obw0saW+zJm3UEy9hR4A2WPFP3+R83vQ5PCrzvqLKU52uMNrQReHLw6ottKrc2xpzLs2NDm81723ccj14etvcpY0Nm/enMPhX77MWUzX5PBfDC28mHbFDe7wWihuDk9dZNWhWqRXfZ+tSn6K9L5+vmypL8EhwZmzAKuSvUhPnzk7mhxeimDLyQl3eC0Yk8P/+OOPCAkJYWma9YOggSY0ZNTf3585MU0/RRMDaKPsV2VzvFMvyka7UqVKiWsZ5KcOr1p94WSFO7wWjMnhJ06ciKNi/Vvqc7585UrWGcV8uzmmTZvGHJIeANlR91pu6NChmcNhiaJyeIK68aoqPW+0Kxi4w2vBWIv0V69eFVO6Ea7MmA9MlfXr1uGbb75hPdeIonT4mrVqst590gSZ+XF4m7vq8znc4bVSEhvtVJk6bSquXLmC2bNno1+/flAoFKyITdNSU0BKGqxCUy//97//ZZMkZK8GJLVfjJQOS7JYcuucLe+6EBQUyAJoUj/6mrVqsWoK9QKk69OD4KbbTchksszPp8nhyxhw5pmSBnd4LZQUh9c0eEa1MYxa6aXGPHoASFWD9957jy1p6Gy7du1YWiK523Kk9liZxVI6Z4yd15ebN2/Cx8eHpamIL/UVoJFz0kAZ6fPt3r1b4+CZsiPOiClOdrjDa6GkOHxus0ZT/3Ua816lShVUq1YNlStXZo5FS6pXU7H/119/ZXlNmjQRj8ogbcNpPNluk9W25j1MNI19p+mb6LoU/44G0lD3X0rT9atWrZqZ1jQF8Qk33eK/v4twh9dCSVd4CeqqS3Hsbrq5YdbMmSyPnE0ZnzWuXY46fGLu580r3wnXprYFaf5x6foUekuKq8cb7fSHO7wWSorDxyRnRLLRxMaNGzFr1qzMhjvqay8hFelHjBiRI4jlk2TDvwIjFae6u/QKUnJ2UvT69euzNH0mTUV6WZJhGhJLItzhtVDSG+0kqBFMciwKZfX6TUbdniKrEj179mQhqrMr/OPbwXgpmCE5eeqUUG//lqWlzxQUFIQ//viDpamIT6MFucLrD3d4LWhyeBpHTp1eVJF+nIaCAlEYCm1FeoKCWFLdmQJRkJqWKVOG5VMnn8uXL7M0je9WpSAcnqDXctL3aWlpia5du7I0RbN9/PgxUlJSCyWIZUmDO7wW1Dm8VNylmGsU4ZVar8lJ6AdKr65Uefb8WeaECffv32dL2o/qolRvpuOlkNABAQFsSYSGhaJ79+5sHwpDlV9epufsmpqdJ0+esMkiaRJIaZnd0h4UTJ09OxSDXrqmps8ilUKys/Y8HzyjCe7wWtCk8NTARa+GpC6uFy5cyFQkelcsza56/bojC+5Ar7l69OiBAQMHZO5HkzdSmt5/XxLHs9O6FBKaHL5evXosnV80KbynZ0Y4KHooUT2eoAcPtdBLdWhNs5lSMZvekaty+/btHCGd7t7NmF5LX6g3IX2G7B2CKEa9KlJJRIIX6TXDHV4L6hyewjkT5JwUyZW4ePGtw6tCs62S8+zcuZOtjxw5ku1HpQJaksNQ3HVJ3Slv5cqVLE0PiLZt27J0fkl+9EJM5Y6zszN7/00BJGnaqcDAQHFLVjZt2sQccsiQIezBRA9AqltTGGt6n3727Fk2syy9QqPtVESnd/jUmUYbVFXq2LEji0xLfPjhh2xJD1h6LUgTYhDSg4gcXvW7f/5Se2nmXYU7vBZKSqOduph2+YHq1KS05NwUbHLNmjUYOGgQDh8+jDt37rB3+jTYhxz9xIkTWL58OTtuxswZbJkbVD2SOgRR0V6CHjKEVHoiHj3MOSsuV3jNcIfXQklxeF0a7Qqa7C38BcVHA06IKU52uMNroaQ4/POX6agw9jzKjDiDypMusDRByy+Hn2FjyFXzas+5jHIjs+a1XnEdXww7lSVv6HZ3lBqakffkecY1Nl4IZNehdEzKE7Y87hqNb0efE9T3HK7ej2N59BAqP+Y8u85W22CWp0x7hvLCko5fdOI+y3smFNFpWVr4nCZbb7K0dH36PDVm22XJ+3OGfvH93iW4w2uhw8Lf0WL2j9y4lQjrsPA38ZdtfBiFw3M4HA6HwzEsXOBV2G+/EYevbuXGjRs3bkZoRx23i09rji5wgVeB3hU439cempLD4XA4hQuJu8nqrLHAOLnDBV4FEnjHexfENQ6Hw+EYC9S5hQu8fnCBV4ELPIfD4RgnXOD1hwu8ClzgORwOxzjhAq8/XOBV0FfgKYq8lZUVCxdBYSFoLpmiJDIyUkwZFgq7SRw/fjxL+AsJCh5WWANyORzOuwkXeP3hAq+CvgJPYvf7779nTi9LkSkJEsLGjRuz7RERESyPgufRFLKfffYZi0NNoWlpMrn//e9/MDExYfs6ODiw8LmUvnXrFjuOZrKUzkXhbSjwHE1ZY2FhwfIoiB9Bc0TRuhRfWoKu//XXX7OwOKbLTFkeTWxPweYpMigdY2dnB2tra7YfxfoiFi1axKalqfRjJTbZnXRe2n/79u1sOX5CRgA8CjZIfwcxeMhgfPFFKbRp04bt4+7uzvIpvtg///zDztO7d28MGjSI5XM4HI4ucIHXHy7wKugj8JKoEzt27mRitnjxYjg5XWeBJCnWPAXMlMJi03bCy8uLFQoICgn9n/9m5FPMOmkfCpVNwSKjoqJQs2ZNxMTEsNYB2p9o0KBB5hTW33//PQvXTZFwpeOzQ1NDU7Reabvqtah2rhqJVsqX8ijOnerMOKrXkNIUxloKNkpRhKW55ylKL81sQ9CceqqhwzkcDkcfuMDrD3/SqqCPwL98+ZIJFQWSpclZSGjd3NzYtvfff4/NIEW18Q0bNrDZZGnfDh06CLX1/qz2TVDkZ0nsfH19M9NUU5dqxFJU6IaNGmLixIksj2rthw4dYmlqEaBo19LnGTBgQJbCR6lSpVj0bakVgFoRQkNDM69148aNzDQhzfEhIUX4pto+QWmar4MC3Ur7UXRtKa16vjNnzuDzzz9naZpFiwomffr0wYwZM7IEw+VwOBxtcIHXn7dPck6BdbLr1r0bq0U/evSITctINXwqFBgT6a/TMWbMGNb8r1pAMAQyeUatXpo3hyLnb9/BA1ZwOBzd4QKvP1zgVSgogedwOBxO/uACrz9c4FXgAs/hcDjGCRd4/eECrwIXeA6HwzFOuMDrDxd4FbjAczgcjnHCBV5/uMCrwAWew+FwjBMu8PrDBV4FLvAcDodjnHCB1x8u8CpwgedwOBzjhAu8/nCBV4ELPIfD4RgnXOD1hwu8CgUh8N4KNxz32o3AhBAEJARz46bWrP2s4BF9XfzVcDic7HCB1x8u8CoUlMAfu7sTvkp/+Cj9uHFTa+d8j+ot8MnJKQgMCs7VOJySAhd4/eECrwIXeG5FZXkReO/7vohTJiI2LkGteXh6iXtyOMUfLvD6wwVeBS7w3IrKuMBn5fGhVoK1EKwlN13tcGs8s50ifoMlDy7w+sMFXgUu8NyKyoqzwKelpuG6gyPc3G6KOfnn8b6GeBVxGa/CLnLT0V74HsYzm3HiN1jy4AKvP1zgVeACz62oLC8C73XPB6FhUQgJjVRrTi4Z0xcXBL4+Pthubi6uAbY2NmymRIkO7drna1bCohJ4yC7jRcgFtdvI2PZQzdtzMzr2ZR6P1cW4wHOywwVeBS7w3IrK8iLwT58+g1KpFGrx8WpNGZ8g7mlY9u3Zg9evX4trGWQXeOKW2y08SEsT1/TDEAKfHm4Db9sdUN45BmuLpXjgfxYnzRcCUbbMzu9eApnbYbwW0g5H18LlxAbIbx3G3ClD4W+/C07H1uFN5CV2LhLnq0dWY/+66Ti4fhaguIKzwvHhLvvZdUKc97NrvIkUzh1tjwtCOthxL15H2LB9L+wxxcQhPRDlegivhXMeN5uHh35nkOh9EuFO+3Fp/3Kki9fKq3GB52SHC7wKXOC5FZUVRhP9Xc872L93X77s8MFDaNmsOY4cOpIlf9aMGTiwL+u+Bw4cwKjhI7LkqTPLI0dQqUJFlCn1BUYOH46rzrfw7GDjfAs8ievssf3wJMgaO5ZPgY/dLjic3AjbI6sQfH0fdi2fjF8q/wSk3cDArm3Qrll9xHkexV+/VMO+9TOE40Vxl19G1R+F/WKv4Lb1VpwSCglVfqiEN4Jwv4mwhfnKKUgWCg/pQu0cKTfw/XflBVG/Cr8ru7Fv3Ux8U/Zb4dirMJ0+FHEeR9Hw35p4IRQKILOH/1ULmC+byAoJ2T+/vvbC5xBkh/pg794DOb7jA/v2i7+C4gsXeP3hAq8CF3huRWXF6R18SnIybC4KwqeCuhq8Sd++Ykp/DNVEr3C3ROxtS8TcOoIYobYee8sSspuHxW1HmKA/C7ZGiCD4iXeOI9r1IDsm1ftU5n5kkNkhQBDjNJ9TgqhfYqJP6yTw6cL2VKEmTuLNtinshcLETrwIsc44VtjX23Y7ku6dYOehdR/7nWy/KOF69NkM0XTPa/Cc7HCBV4ELvGEsIDlYbT43zVYcO9kNHzIUV69cYelr4pJYv2YdDh08KK7lDd7JTn/jAs/JDhd4FbjAG8aiX8TAN94fEU+jEPIgDBFPohD8IBSRz2S4H+eLwJRghDwMY0vaP+xRRMY+aWHsuHAhHfIwPMd5S7LlReDv3fNBjEIJeUycWnO7dUfcs+C5aH0BL1++FNfyDwl8epQDXkUKIs9NJ3vhf4wLPCcLXOBV4AKff/NPDET3Xt2EZQDq1PsXYY8j0bFze4QKgj1n6Vw43HeER6QHlq5bihr//INbobcxaOgAOPvfwLaD2/DHr79i7c51mLlwOgKTg9ReoyRaXgQ+Pf01nj9/kasVFt99/Q26dOwkruWfN88e4M1zbZaGBwkxavILzvDiAUL9vAA12wrSooJ9hGs/VLst0+g7e/lI/AZLHlzg9YcLvApc4PNvXvJ7aNehNcwObEXL1s1x6tppYb0NdlruRJ8BvbDabCUGjxyEIYI1bFgf7mG3Ua3Kz0zYO3XpAPs7V/DXn39g3rK5rLCg7hol0YpjE70q6t7BFzRHDh1Co/oNxLXCITk5GR+994G4VnhQB8SoyEhx7d2EC7z+cIFXIT8C//TpEzx99pQNH6pWpQoWzJsP73v3BGH3xFHeyU6jURP+/jMHcM7pHGuqV7fPu2Ak8LcirrLfUHY7eeIkunXuDKvjx5nASLzrAk84X9evUGQI5s+dJ6YKj3mz54ipdxcu8PrDBV4FQ9XgVd9F8l70utmdaC+cdz7H3sGr217SLbca/CsN77bfdYF/9eqVcN1L4lrhMX3aNDFVeMyYUvjXNDa4wOsPF3gVeBN93s36xgX0MekFW3dbbD+8HavNVqN+g7pMsAOSgzB28mhMnDmBvYtfvmkZa6K/5nUNgSkhmL1kFttmMrAfwh9HYdq8KRg6egjuyLwwetJItO/YjjX9q7tuSbE8NdF7+yIhMQXxCUlqzeMOF/iCgAt80cAFXn+4wKvABT5vFpgShJYtm0P2SsGGyB08d5B1mDvjeA4Wx3ej4rffQfYyBkGCmC/buAxmB8xY+tefq2LCtHG4FeqOezH3MWCwCRo3aQjZixh2LtcgN/xYoSLrja/uuiXJ8iLwhY0yUAmbJZdwydQuh9mvvApbNflkFxfZ4OVT/XrY2yxVf53sdlm4rrr8gjL6Gx3WOqrdVpB2Tbimpu9XMttldnDbV3DhiYsaLvD6o5PAL9t2Aldc7yFWEYP4xFgolJFIi4qE08YtCD1xHs6bt+NRdCQSFFFIihf2iZfhtrsHVq/bjZWrzXH9mgviZVFIVMqQEB+NBGUM7nn64cTpa/C8G4A4BeXJkBIvR7IsHP6OjrBaby7YVty9chkp8ig8jlMgJSYGcVEK7Nxjg9UbTsPc3AYJ8hg8jFWInzR/cIHPu4U+CmfD3shoSFzwgzAEpYWy4W7UWS4oNYTtQ8PkmGALy4CkjF7yVKsPexzBhsf5CN8THUvD5mhb5HPZO9Fsb+yd7B7GP4LDRkfEBsUixj9GL4sNjhVEXqhp6xGangRLEaRQez5u6i3cIwJuB26J32DJgwu8/ugk8D2+b4iljfthT/uB2Nm6J/a06Y39zfpicblfsLNac5iW+RWHm/SBecMeMGvcDbua94NprXYYWKkOBv9UH/P/bomdjXvhQKt+2N9mMI60HQyzZgMx948uwnIodjTqjb2Ne+NomyE42HYQdjbpjdnCsXN+ro+tNTviSPuhONxhKKx6jMOx7hOwsM4QTKvVHwsbj8UZk1lwmr1O/KT5gws8t6IyYxb4l89e4vIKe8SG6C/ukikCFLi4WPfm9JIt8HKkRT9Uk58/4wLPyY5OAt+tXB1M/qW1IODdsatZT2z5tx0s6nbHotJVseXHRsLyZ+wVxH3Lvx2wrXFnmDftjjUNOmPID/Uw4ucmmPtPK2xr3hu72/bFno5DcLjXSJh1HIaFDfthV49JsOgyHAd7jIRlv3E43Hs0DvYcjgV/NsXimq2xoWEHXJw0F5enLYTd7KW4OG8VVvSbgWWCsK8aNB/OGw7AY/ch8ZPmDy7w3IrKjFngbQRhjg2Jg9xPjuTwZNxz8UZiWCKShPRdp7tICkuCIlAhbCchj0VsQBxCPEMQ7R0NuSBmYXfDmQDJvGWwW35ZPGvu5FXg2WeMSEF8cDxC74QiNigOSiEtbY8LjIX/LX8khCYiLTJNyFPA96YvUiNTEXArQPi7kvAg+gH7O/zc/NnftmyeKTwdPN+eQzhngHsAuwbL81NAGaRkhRi6fqpw3tvC/imRKcK1lex6tC1WOGdCaALuOXtj8phJCPcKQ4rwWT0d7rDPTNel74u+O4V4LX2spAv8OY99GLq1ubiWFQsLC/znP/9B3bp18fBRyY0FoC86CfzqbWdwxsYV8co4JCXEITFejkeKaDis3QLvA8dxZfk6PAgLRXxsFGKUkYiLiUKAvz9WrjaD2daDOH/6IuTRMuE4wTmEYxWxMbhzNwhHjznA9XYAopVKKBNjEZ+sYE31Yffv4cjqDTiwficcjp6AUjhfTFwk5HFRiBKO3XX4AlZvPYU15ucQHC5HQnK8+EnzBxd4bkVleRV46mSnjE9Sa3fueot75h16f64IimUCtWXF5kyxepPyBuVKl2EC5Wp7A/OnzsXfv/+FZ7HPULdWXaRFpaFj6/a4d/0e3C67ZYpQmHs4HDc7imfXTF4FnsR3SJ9BrFARdDsQw/sPRd2a/wo15gcYNWgE7jjeZYWUH8pXgLfLfcybOoeJ66hBI5EYmoRa1WvixN4TOHPwFB7JHuG3n6thwohxCLkTws6fKBQMavxZHTeEv5mMBPuXn6viseIJGv1bH3eve+GA+QEm9BB0pswXX7LvIkYo/LRp1grVfqzCPsu44WMRH5LIviPbk5fhIRQIXC46w2z1Vvb9Zv+7dLF3uQa/cuVKDBs2TFzjSOgk8Eu3nsbR886CwAolVRLiJAXS5DI4b9om1J4P47og9KkhIUKtIRrRsRGIS4hBQHAwNmzZg207jsH6vD1kCqEEmxQHWUIsIpQK3PGPhNW5G3AVHCdcEYeYBCXkgrjHCAWHcP8g7Fu7Ffs27Ybd0VOIlsuFQkAcIoXrh8kV2GN1Bau3n8GmvTbwixAKB0kp4ifNH1zguRWVGWMnu0vL7JhQSQJCtVHL3ZbYuGwDq+mS2C2bsxR2J20RcS8SW1ZtYWmzNVtx3dqRid+ZQ2cQE5BViAIdgnBrv7t4FfXkR+CHmwzF+qXrYLXXSqglh2Prqq04tvuoIKjxOH3gNNYuXi3Ulh9i72YLbF29BSf2ncCWlZtx7sg5QWDNcGD7QcyZPEs4bgv7G6lGvUY4hs5N16DWi4XT58PWyhbRPjLhHFthfdQam4Vz0N99/cJ1LJg2j7VwUOFhvek6HBbOmRCSgMj70Zg2diosd1kiUKjcBLkHYqqwLveVY8f67awQFRuYt1chvImekx2dBL50lS74o+FQtOo4Bm17TEC7TiPRtes4tPy9JTrU7ITmvzZHXyG/vZDXrc80dOwxBe27TUC1v7viz3/7oXq9Hujabyp6DpyNrn2mo4ew7NBzOpp2GI92fWajeSfh2F7T0HnAbLTrPgnduk1C8+pd0LBmLzSp3w89B8wSbDb6DVmAPkMXomazccLnGYW/W01CB5OFmLlou/hJ8wcXeG5FZXmtwVNNnZrp1ZnnnXvinvpzbb0DIu9EqRUSQ9g96/u4b+0jXi0neRV4qv1GeUey5vm81ITpGCoUUAtAXmvSRWVc4DnZ0Ungy1Rph7/qm6CvyTR07zUB/ftMQs+uI9H+rxboUr0NWv/WCIN6j0UfkwnoM3ASBg+fhfETTVG9dg80aTEMbToMwYRpizFrwVrMFmzeok1YuHQHRk9cgzkLd2Ddpv1YtX43Vq3bBdOVZpi/eB0GdhuGEf0nYdKgidi/9xisTtni2Ck7nLN2woKVhzBz6X5Mmr8HlufdcOuun/hJ8wcXeG5FZcb0Dv7GbleE3gxnPeYLzIJj4XncE+FuEeJVs0ICrwyLU38sN7UWeTeKC7yBCAkJwYQJE4zaInUIXayTwK/YdgYHTjkiOj4esnihVBsvR6wsAj5Wp+C57yiurFgPpY8P4hOE/CShFJyoQGSsDBs27cKGrQew/+BRKITj4lKomV6wZCX8AuWwtb+PG7fDEBIdL+QnC+eOw50QGdbsscW8JbtgtnEvjmw1R6w8OqP5PkEoncfGwvaGDzZa2GGthQ3sb3kL50sQP2n+4ALPrajMmDvZ6YKbuxve6DMOjsPRk8IU+OvXr7NOe8Zs7u65v+YidBJ4U7NzsDgmCHxCqiDUCYiJkyNJIYfb/iNw3bwXtotXI+r2HcTFCgKfEAOZUhBiuRwbzfZiy86T2LXvBGTCAyc6XomYxHgoBEH2C1Xg8nV/ONwMgl+4sH9CPORJ8YhQJuCaewAWrz+HRYv34vCmPUJJJQpy4Vh5XAqiY1Lh7BmJzRb2WL/bDhcdAyBLSBM/af7gAs+tqCw/neziE5LVmiE62elKhW+/xdBBg8W1kgdFzeMULVzgs5rBBH7cvFMw3XIZZ+wDcd4+COds/WFtfQc7F+zBwTk7YD5hDU7uvwZLq1s4aOWOfcfdcPCEO4ZP3IAx03Zi5ORt2H7oBjZYXMPWA87YuOcKlqw7jxmLzmDaglNYsPIMVm6xFewSth9wwVpze/QZsA4m/ZZiSJepmL9gHxavOY05q60wxfQohs48hEa9VqFJ3zXoO3EPlm+xFj9p/uACz62ozBg72emD4zWHIplspjCIjo5mD9TOnTuLOZyigAt8VjOcwC+whOmmC7C7HohL1+7jqpM/XFy8cX6rJc6Y7sCRmavheOoanF184OLmB+fbAXC65Yf5ptuwcJUgzmv34cbdYLjdCcFtrzDc8YmEy60Q2NgH4NipO3C5GQxvXznuCvl37obAy80Xpy2ssGXRZlgsNYPXzbuIiFAgPDoWIdEK+IQosXb7WUHYz2LnMQdEKo23Bu8V44qVVyZhzbXp3LhptNXXpsI9ykH81ajn2bNnbJmamoonjx/j4YOHLC8+PmOYKNUyA/0DWJoICwnF06dPxTXAz9dXTBmekizwNKPfihUr2CRSL14U3hz7nKxwgc9qBhP4JZtPYts+G8TEJyAuOQYJCXKkKKPhe/4i3M324uriNQi/7sTGxyclKRAjbItNUGL9+u1Yv/UAzHYdhiKRhsLFIDY+hr3DDwyPhKtHMGyueMLLLwhypRzRAT5wsziEtS174+zUpTi9YisOr9yEm/Z2kMfKEK2UQS6cI0SpxG6rK9i49wJ2H7uEuMQk8ZPmj4IQeA7HUFSr/DNb/vXnX2zZvmUrtuzetRtevHzBppVdvXIVDh44gL0WFjh7+gy6dOzEpjCeMnES6ziUlJjIjjE0DlevlViBJ9asWSOmOEUFF/isZjCBX7n5NLbuOweZIhbxgsgmxUbhgTwc944dg9smc1wzXYtgW1s8iIlEWlw0UgQxToyJwVZB4Ddt2C0szREbEYnk6CikyoXCgTwaytBo3BFq/A6X3BF2LxypETKkBYbAZe1OrKzdHgv+bYfTpltwevVWXLU8hpDbXvC76Ql/tzu45+qNjesOY/WKA9i2wRIhdwLFT5o/uMBzjBWF4E83XV2REK/EDWcXxMhj4HrjBiLCw9kyICAAF6ytoRQKv9bnzwsCvweHDx3G+nXrMG3KVCQnp+CopaV4No6+cIEverjAZzWDCfy/FZuhS41eWNBzPJZ0H4uVJlMxt/1QTKnTCRN/boLx1ZpjVoPeWNR+BOZ2HI4F3UZjsbBvl99bo8s/XdHtz05YYTILi7tNEI6fANO+k7GwxyTM6DwOkzqNxexukzCv6xgs7DYGC9oNxcS/W2Fu1caYX70Fjs5cjokte2B2zzGY1XsCZvSagLl9Z6NLvaHoXG8YOtUfgg0zN4mfNH8UJ4H3j3oopjicwuFVejrevFHfU16heDvhU1RUFFs6Ojjg6pWrePTokVDASGZ5xZH27dtjz5494hqnqCipAl+xYkU0bdJU7bbczGAC3/WfzhjWfAgspizGoamLcGTGYhyetgBbug3GlhY9sKVZZ5wcPRXXNm2H3dZduLRlB+zMLLBg8ETMGTINC0ZPh4vVKdw6cw73bezgc/kK7py/jBsn7WG99zRunbBFhOtNRAo1kXC7q7i+YQdW1GoHiwETcXi6KVwOnkBSQAgSQ0MRGxwEeVAUdllYY82m4zDbeR7REcYbqrag2HFe/fhhTslm9szZSEtNFdfUExERjuFDh4prwF1PT8yfO4+J8+RJk8Rc/fnj19/Z8puyZdmyYb16bBkREYFlS5di7uw5uHnDFRW/+469+7965QrKlfmK7WPMLFy4EM2aNUP58uUhk8lYZ7rw8HD8+eefrOBSvXp1eHh4oEKFChgwYACCgoLQtWtXBAYapuWQoxslvQZfunRptGzZUu02dWYwgV+05jh73x2miIMsNgpxyigo5OGIEkTZccUG2Juuxr2jx5EQFY6YOBmzqOhIbBbE3mz7EawWBDtMHglFYiTiEiIQEx+FCFk0bnoE4JztTdy7HyKcVyEcJ5xbODYhOgKhN9ywfegUrO89CfYHjiJe2F8Zr4A8QQ65Mh6b99hgxZaTMNt3CdFK4w1VW1BwgS95LJg3H7179oRc+K1PmTQZA0z6o0njJpg/Zw769OwFF2cnTJ4wAQP6meDrMmURr1SypvgD+/aja6eMHt79+/XDsaPHUK1yFbbeo1t37N65C10F0XJydETrFi1gc+EiGtSti25duuL4sWOs49iE8RPQtFFjTJ0ylR2XHYU8BuvWrBU+mwzr1q5FtFBL37hhAwIDAmC6ZCmuXb2K2TNmwv7yZRzcv58JpMVuCxwTzm976RK2bd0qnsn4uHXrFpYtW8bswYMH+PvvvxEWFobu3buz/gs//PAD0oR8Ev4rQqHlyJEjLNDItm3bxDNwCoOSLvAffvhh0Qj8km0XYHb4KoJiHiIqMRUyZQJilIkI9fDB5TXbccVsH1yPnEVkVBzC4pIQFquEf6QCW/ecxPL1h7F84xF4h8QgWJGEAFkCfKPjcScoEZduRGL/OU/Y35HBLSQB131lgsDKcNrxPo6fd4HVcTusXrhHKCScxIXrAbjoGoRLriE47xiKCcvPYPAcSwxbcAynnILET5o/uMBzioqTVlbYv3cfS1sIgnzD5QbrJHfv3j1BsI+yfOooN2rkSFY7TkxIwJHDh9mEL0RyUhJcXFywZNEitv7rL79g186dsLO1ZettW2V0yGvepBnreT9s8BCkp6cLy4yx6yOHjWDXexchod4gFFY4xk1JF/hvvvkGv//+u9pt6sxgAv9VzUmo2nIxWgwzR4vBa9FiwCq27NxvORr/OwLtmk8WSv/j0K7/KrQauh5tBGs3ciuqNZqAn+tPRuW649G030o0H7ROyDdDq8Fb0HaYGRr2WYfqnZagscl6tBLWmwn59fquRsP+a/Frs1n4p/k0/FOjP+q0mY7m/VahYV/BBqxF/X5rUaXlAvzUbA4qt5qL4QuPi580f3CB57yLtG3Vmg29I1tuairmcjjGBe9kl9UMJvBthu1En6kHYGrhhG1WLjA/6YwD1m5Cid8FqyethsXCXdg8ZyuuufrDzi0Azl4yOAm18o07rDF7+RHMWnEY1o7+cPVTwM1fCc/gZNwKSBVq8NE4dNYbV2/FIFDxEIExSQhSpCIkJhl2569g16rd2LViJ9xdvBChTEFkYhrC4h8iKOYJNux1xLx1Z7D50DVEJjwRP2n+KE4Cf9o5RkxxOBxOyaekCvz//d//oW27tmjdpjWaN2+OL7/8Uu1+2c1gAj9/9Ums2H4G7kGRkCkp1rwcScIyJTgQl5ethtfOQ7BftwkpsQokJMuRKJgyPhoXLl7CChr2tmEXPLy9EZNI8ejjoEySIS5RiZueATh6yhE3vQMQnRCDGCFfkaKALCEa7pftsFM49/b5pnC/YoekeJr3XYbYpGhhexzWWZzD4k1W2HrQWjiu+I2Dpw48hGogEomUlIw+BfRulJpR6T0gLcnohyePCsVF92TExcWx/Qhqdh0xYgRLy+VytiSkICgcDodTnCnJNfjatWujbdu2zFq2bKV2n+xmMIF/VyCBd/GxE9cKlsqVK7Oeu4S0rFmzJn755ReWHjlyJFtWqlQJc+bOhYmJCRN+Ozs7RIQFYuC0HWw7jXuWQmiOGTOGdQDauXMnduzYgY4dO7J8isDF4XA4xZljjjtKrMB/9NFHbDgmCXyHDh3QpEkTvP/++/jvf/+rdn8yLvAlmLOuSjGVla+//hpJSUmsRzCHw+Fw9Kco3sGXKlWKiXv7Du1zFXbJuMCXYE468XfwHA6HUxAUhcBLRu/k1eVnNy7wekJN9KO3dMC0Xf0MZmPNdJuBit6hf/755wgMCoSrqysuX77MAmmcOHGCNbHb29uzZnciOjIUczZas1mufvrpJ3asm5sbTp8+zSKGOTk5sfG6uuAWcFXt5+bGjRs3Y7JhG1rzXvQqVqAC/+TJkyyduUoCRd2L/osvvmDLqVMzgo1Qj8qlS5eydL169dhsYQcPHoQsKhT/KdeA5depU4d1pNuqEkhk9OjRYorD4XBKBnyYXFYrVjX4unXriqmiozgNk+NN9BwO512CC3xWK1CBp+hPPXr0YGmqea5atYql6cJU05TSzs7OiIyMZGlqPl60aBFmz57Ntg8aNAi7d+9madpe1HCB1w16HcDhcDiFSWEK/NWrV5kmGbPdvHlT/LSaybOqHjp0iMVqJsqVK5c5gxRdWBrbTWmJn3/+GX5+fmxihzlz5rC8YcOGcYHPI0Up8DTe3tPTE46Ojux3EBoaigULFuD+/fuIjY3Fe++9x/YbO3Ysc5Q7d+6w3wgVAhs0yHi1wOHkFapAUGXh8ePHYg7nXaAwBb6kkGdVdXBwwI0bN1iHMDIan3379m1Wqrh06RLbh0T7+PHj2LQp63SuNFab9rO2tmaCQFAtn85XlHCB1w7dM+obMGvWLMycORP9+/dnc2XTGM4lS5awmbdopi0an08tO9QJkMb0nzp1iq3HxPBXCxz9oWcJPV8kWrRoIaYyoHHDFy5eFNc4JREu8PpTYNVmqp3TrExDVaatNHaKi8DXG++EltNdMW2bj5hjnNA84NQZk8PJKzRyRN20rNkFXuLDjz4SU/pxf2ZNQOmM1zEO3HQ0pLjDc2Rl8RsseLjA60/Rt4sbEcWpBj9u4z0xVTRQTb5v377imno+/vhjMQVW27e1tWU1LQ5HF6i1Z+3ateJaVjQJPEEVC30hgX8VaYuXYRe46WivFQ7wHJUxLXFhUJwFXl1Icl3Ib6hxLvAqFCeBL2ho3H1wSDCLqEQ9SumhSR0re/XuhenTp8PX1xfly5fH4cOH2cN2+PDhLJQuNaVSmuLm07j+hw8fYv369RnzggsC/9VXX7F3qLQfvdqhJv2NmzYiLS2N5dHYfk7x482bN2IqJ7RNmktBk9G8C9mNOnPS6z16HZjdatSowabHzZ5Pv1XVgqWuGFLgX0fY4FX4RcEuID3iYmb+K3EbSwvbX0cK+0VeYr97KOyRLuRJ+5K9ibqEBRP7Iv7uUbYOYV3aRvvSOVT3zdwmXNPvyk6snDWErbPrCJ+FpYXr07q0b37sXRZ46gNC4cbLV6jA+iERjRs3Ru/evVmahjVPmjQJe/fuZfeXpoGl/ki9evXC/v37WV7VqlXZvhSGXCqU0utNGvpMfPrpp6w/U14KrBJc4FXgAv8WHx8fNqsR/VCpf0TPnj1ZAB3qIEk/6D179uDHH3+Eh4cHE3lTU1M0bNgQrVq1YuEWLSws8OGHH7KH8Pfffy/UxNaw8fkUWz8xMZH9wEnUP/jgAza2f9q0aawgwOGo8u2334qprGiqwVNHTwoOpS+GEnjE2OOrL0sBLz1ZRDLAC+8LD+k3MltcObISrRvWYEL/wf/eZ8INuR3KlSmF7m0bAImO7Bwk3JOGdMaLUGscWD8NjwLO4NNPPsKahSNRqcLX2Lp4DJ4Fn8dVy5VAkiOqVa4IpDgxnwpy2I1zuxcK57HGmjlD0bFFHaxdPBrff1dOuNZl4Tr1gbirWT5zXu1dFXgKBc4KZSKdOnVifZHoWSjNJXLmzBm0adOGpcuUKZMZM4aejVZWViwtDcUjpCW91pTSdAyJfH7gAq8CF/iigQoTLVu1xNYtb4P1cDgS//vf/8TUW9QJ/KhRo3D37l1xTT8MJfBPg8/hF0FwHU+uY0un0xvY8knQOfz0/TeYN74P9q2dij+rVULfzk2R7G0lCHQFeNmaoepP5ZF47zg7z7OQ86j4bVn0bNcQmwWB9rpkhs8//RjXjq5ihYgKwrbOLerijZDetHAUhvVtA7dzG1lLQLWfKmKEsN6zXQO8EGrzX5b6FFOHd8OhDdPw7z/VhBr829p+fsyYBF4aml1YVKlShdXQCUmQpYoLCfc333yTKezfffcdli9fDktLSzYxWOvWrdn+1AoVHh7O0nQcFQpowjFKUwuq1CIqXScvcIFXgQu8ftA0tvFxcYhXKjWaUmVKWw4nP5ibm6NChQoYN24cfv31V9b8SaM0aAju8+fPxb3yBn8Hr78VhMBTMzYV1NTZgFkd0cu0jtptNFKHxFAy1REXxgTN8Hny5ElxreDhAq+CoQT+5LmraDHVmfV0Ly7WerYnfvwnI66BrtBDNcDPD8rYWI3mIpRmORxjhwT+tfwq0qPs8myvBKPacXq0+u15sdfRlwVTvy0vRud6HWWrdpu+hngXo6nBp79OF1McVbjAq8AFngs8h5NXHj56zGqPPfvkPrpEHz75rBQ7p6EoU/Zrg56vMCnOveiLCi7wKnCBNy6B95WlocLY8+Iap6TwzaizSH3yUlwrOVDnU+oRTZ1OKXpjfqGmXDrX5s2bsW/fPjE379A7Xjrf6tWrWU/u4gYXeP3hAq8CF3j9Bf786dO4eO6cRjst9hjNC/ejUlFq6GlxLe/QGFSpM4sE9YQNCAgQ1/IPDevKfg0aJeDv7y+uqYe2P3r8SFx7N/hxgjXSSqDAExs2bBBThsPQQ0cpZHhxhAu8/nCBV4ELvHHV4MPjH6HrOhdxLX9InXAIGuLXsUMHvE5PZ5HSaIjLtWvX2BA+ml+Bxvk3atQIu3btQmpqKgvLS8NbaJw1heSlXrE09I+gXq/U2ZCYMWNG5jXOnj3LAgHRGO8xY8agT58+LCwz9Qhfs3oNG05DQ8BowqWEhASsWLmSfY5794o2gFFh8N3oklmDJ7jAFxxc4PWHC7wKXOBLbhO9FHWPBJhEVxqqkjFWGazZkibEIUqXLs2WVatVY0NdCOnBPWTIELYkPvnkEzGVwdixY9iSrkHfDTXXEiTqL1++ZONfaWgM8c03X7MlNZVSTZ+CAhEbN25ky5JMSW2iJ9ZvMHwsB1mMTEwZBv/A3FuVjBUu8PrDBV4FYxD4hhNd1OYXtPFOdrpDBQQapkU1b07JIP1VOhw2OEARrEBMYAw3HS0uPA4XFxTOJD9c4PWHC7wKRS3wTafcEATeGU2EZasZrmgh5DUSBL/VjJtoMjlD+JtPu8H2o3SjSS5oP8cNdcc5ocW0jPXWM2+yfVTPq4vlVeCDAgKQGB+v0W44OYl76w/vZFcyMcYafKbABwkCHyCIFzedLC6MC7wxwwVehaIW+DpjM8Twj6EObPn74Gt49uI1qo9wQEziM9QThPx+2AO8evUatUZfR9rjV+g87xZev36DEeu8cOSKDNO2+6LfMk+158/NjLEGfy8qFR8N1D/sKMe4qTHHDg+evlsCrwjU7bzSfvGh8Qi+E5Jje14sISwB1apUg7+7P1vX9bPoYlzgjRsu8CoUtcB3W+iOoavvYrBgtCTRlpbD1txltfQp5j7ov9yT1eyj459g3GZvHLaPZnkmgrBPFwRequHrY8Yo8MGxD1F3wRVxLe9MmDiBzX5HEzc0b9GcvfN+8PABwsLC2OQ3pUqVQnBwMMt79PgxBg4cyCbZsbY+z/JoytutW7eiZcuW4hlz0q9fP+Dhc0DznCtGxx9//IGlS5eyPgMWFrvZxECPhb9fmgyjXbt2rJMhfQdBwUGsnwC9mqARCJQXGxfL+i3E6Rmt8P1+x5HyuGQJPAky/b4UAQr23ZGI1qpeCwG3A1Dq8y+AJxl9M54lPEWZL79CSmQKvi//PSLvR2LUkFFwv3oL3Tp0g6WFJYb2H4rlC5azc8j95YgLjkO7Vu1x/WJG7PLgO8Ho1rEbDu44CLvTdvjztz+BZ0DNf2oh2CMYqxatQpBnEDq17YTxI8cjITQB/Xv1R4R3BL6vUBGOFxzxv/fex5qla7Bn655M4c+LcYE3brjAq1DcOtmRkNcf74zmgvCr266PleQm+mbNmmVOAkFQzGia5IY601HnN4JmPKNZ8OgBSjPfSRw/fpzlTZ8xA02bNhVzc0I94B/LE/HmQd6mhSxsHjx4wCYDIoGXoPjX9Lf26NFDzMmYrpKEiwpCEjQhBo0koFnbqPOhIlYhbtGNkthEnxqdygqFRy2OYsbEGTh75CwqV6qM1KhU9OjUA5tWbsSwAcPgf8uffZ837G6gbJmyuGh1Eb/8/AsT+l+r/oqJIycywd1vfgAN6zZAUkQSO/85y3Ps3jSq1wiHdhxC88bNsXTOEowdPhb7t+3HZ59+hsH9BiNN8JmPP/oYpvNM4eFwmx33k/A5Kv9YGcvnL8fwgcNR6rNSWL1kNTq374x5U+exAkT2v0dX4wJv3HCBV6G4CTxZm1k3ER77BI0n5a9zXkntZEezMdGDkYakkShRmowmi6AJIWjKW+oNT3lly5Zl+9C+JGiURyJIQ+IoP7e57JnA+0UiPTQWryOUWSw9LFbcyzigICxff/01EyT6uyhNfyv19qcZAul7Ufddqeax/b7+hn2/Mrlhe3kXBfkV+Jv2NwUR38Rqzuq252bKYCV2bdqFTSs2spYAdfsYq3GBN264wKtQFAJPtfDbASlYdzwEypTniIx7gsS0jIkzqKOdX+RDbD4VhrikZ+i5+Dbc/JIRL+w3ZM1d9s59jXAcUXuMExKE487diIXlVZlQIwVSHr7A7F1+aq+b3YxR4PNTg6eZmJo3z5hxbPbs2UyUqHlZ4lX6K/zzzz94//33ccv9lpgLNusT7btp8yYxB7hw4QLLo7HwmjAZOAAPVhzHk1UnctjjpccEBckYK1/UmJtvw8WLGQ/kH3/6if1dM2fOZOuEo6Mjy6NZryToPv9c9Wd89tlnrBlfom27tmxfaqrXB2OuwSuFAllcaBw3HS1BlsAF3ojhAq9CUQg89XwnMV4rCHVi2gustAzGzJ2+sL4Zh07z3Nj5ZgkiHaZ4jC2nw3DKKYaJ9qL9AXj1+g2Grb2LR09fsff3xIwdvrglFBh8Ix7oVas3VoGvmAeBpyAzNB/9ypUrmQCRxcTECJ/3GZKTk9nsYx999BGryT5/8ZwNe1uwYAHbb+HChewcFJmOQoVSXteuXVkezXevCRL4tOVWb0V9pZAmwRfs8SJLoxB4mqv/4cNHrGBDfxcJNkHfAc3iRXk0DeuLly/ZvU1MSmTBf2g/fz9/th8Z7UP72traYv/+A1Ao3go8fe8U2Cc3+61Jd4wYOVrtNgrLyuGogwu8/nCBV6E4NtEbyvIq8OfPnIHN+fMaLT+hav3laag6Wb/aAQW0iYyMZJHppkyZwvKokx11Hlu8eDETJheXt9HxnJydWF6rVm870NG+FABHCnwjkavAD+iPR+fd8ML6NrP0AONqtpbeoVPN3N8/I5LZn3/+yQo31ERPHQ1Voe+Dvpdbt962bpw9l/Ee2MzMTMwB1q9fr/c7+E8GntDYyc7U1FRMcThZ4QKvP1zgVeACX7yb6OkdMSHVTGvVrMUEid6j05J6zUu0adOG5VGTtISlpSXLGzFyRGZneKr5UzS72rVr59qL3lgFnjoPUlM8xeP/7bff2Dq9a6e/kzp7sRr7ixdsXxpdQP0PqM8B9ZSXaNa8Gdvf3T2jlYigiH6UN2zYMBaCVx9ya6J/1wX+77//FlOc7HCB1x8u8CpwgS++newqVqyIEydOZL47r1ChQqagT5gwAZftL7PaKBkJ1e3bt9lSyiOjPDJ1edScT/HpNdHfpD+evHgmrhkHoaGh7G+nUQRUUKH35599+qm4Faj2yy9Z/l51f7+670rKI6NXGgqFfjX43HiXBb5q1Z9ZoYleH3FywgVef7jAq8AFvvjV4OVyOYYOHZoZP56amqmDnSrjx483SFjZ3JroqRf9k6dPxLWiZ/v27WxSnfoN6kOpVLJe8NmhJvr8cvDgQYMOk3vXa/BUIOOohwu8/nCBV4ELvP4CHxwYiOTERI3m6uws7q0//vIHqDbFRlzLyZEjR1C7Vi02bp2Ga7169UrckpV3TeB79eqFatWq4cqVK7k2+RaVwC84fh9PX6SLa1l51wV+3LhxYoqTHS7w+sMFXgUu8PoJfEFzPzoVX2qYD75nz57s3br03j033iWBl8bwd+zYUczRTFEJfKkhp5DCa/Bq4QKvGS7w+sMFXgVDCbzV2Sv4q8d2/N1zZ7Gxf/rsQfnf3459NgY0NdFPnToVVatWFde0o4vA01h5begr8GPHjRVTBc/N2374z3/+L8t0ttrQJvAUppaa+XMjLwL/9UjeRK8JLvCa4QKvP1zgVTCUwHMKFooLT03Pf/31F4unTr3DqUmaRP/nKlXw008/oUrlyixSG3VaouFuFJ42NwYNGiSmNKOvwEvj5wsD19u+qFO3IfteSLhVvxca91+lcsb3QhHo6DshozHuuUFhamkYXG7kReDD4h4h/bX6oP1c4LnAa4ILvP5wgVeBC7xxoakGLwWliYqKEnNyR5cafG5R6iT0FfjchtUZGme3+/j089L49JO3veS1oa0GHy2TsdgBucE72RkWLvCa4QKvP1zgVeACbxjCw8PZsKzstGyZETpWV4IUD1Fnvr24lpWdO3ayCWMoKtv9+/fFXPW8S+/gaQa4H3+sxILXaOp0KFFU7+BPuUfjxSv1kf24wHOB1wQXeP3hAq8CF/ic0FSpM2bMQEBAAI4ePSrmZvTUJugd7X2f+zh9+hRGjBgBb29vFjCGgp9QMBlVWrduyWYimz9/vpiTO95Rqfhk0ElxLSdBQUGoUaMGZs2axSaCua5hSN671ot+48aNqFmzJlxdXdnoAk2fq6gEvuyIM7wGrwEu8JrhAq8/XOBV4AKfExpDTWPNqUYeHR0t5maEhPXy8sqcfETaRtHQiKjojOZzql2/fv2axYCngCgk/DKZblHedBkHT6FWa9Wqxd41E/Te+9SpUywt8a4JPOHp6YlFixahQoXybP2LL75gneZUKSqB/4oLvEa4wGuGC7z+cIFXgQt88YWmevX19cWAAQPYOok6dcajAsekSZOY2K1atQqbNm1iE5qsWbsWq1evZrZu3TqWt37D+sy8NWvWsDzan9YpnXskOxM8eZN7k3hh8/TJU9StW5fNFnfNwYHlUdM9dZ6jAhl1uqO/Xfr7Mv7WNWw963f1No/mf6e8tesyvr/uPXogRpHzdUxuuATE41U672SnDi7wmuECrz9c4FXgAm9c6BuLvn79+nj27Bl++OEHFnt9+PDhbNIY6pD34MEDJtqUvnL1ingE4OHhwfIaNGgg5oCd438ffIAvv/xSzMkgtxq8yaABSO62HKk9Vmq1lM7LxKMKh1JfZEwkI004Q38r/c0UQ+CN8K9CxQr4+OOP2TYJ6nRI+zg5vX3tYWdnx/LWCoUjiS1btvBOdgaEC7xmuMDrDxd4FbjAGxeypCcYu8dDXNONVatXsQlk6P18+/btWd6cOXPYkDkbm7dR8agGSmJFtVKJu3fvsglYmjZtKuYADx4+YEPO6BVA9j4FqhizwBM0F37663RMnz4d9vYZHRdJ8GmooTTZDC3r1avHwtqqTsxjarqUfVfbtm0Tc4ADBw+wvMaNG+s9H7xbcCKvwWuAC7xmuMDrDxd4FbjAGxcskt0w9ZHscoM6BE6ePBkLFsxnIkT28FFGXwF6P0/r3bu/jdpHses/+fQTVvOX4tjTrGvUgY9qtlLnvVxr8P1N8CT5Ad5o6B1uDND0ucHBwfipcmX2HVQon/F+nmgv1Nhplrlz59+2mNDkPbSfiYmJmJPxbp/ypNcV1KFS3xp8uZH8HbwmuMBrhgu8/nCBV4ELvHGhbxO9KiTQVapUYWkSNnrXTMK0cNFClkfQrGiURzV06qxH0HH03ppm9KJ55SXGjRuL1m1ai2s5IRF8kpiGNy+N6z18dqj2vmHjRpb+6++/0adPH/Yd0Gx5EhTVj/KWLl0q5oAVcihP6uNAhIaF4v3339e7Bl9aKLRxgVcPF3jNcIHXHy7wKnCBNy6oEfdlet5rxC9fvmSiREbj5evUqYMa1Wvg888/Z3k0pSy9j6bob7Rd2rdx40ZsnZqrpTwahkemCarBP74VhFceoXh1OwR4brxCL/U7IGvUsCGqV6/OCjVSHqVpZAK1YNAwO8qjqHf169dj30v58hVYHvXMp456NMpCH3ZfDRW+Hj4OXh1c4DXDBV5/uMCrwAXeuMhPDV6Vbt26sWFy0dEyJkzNmzcXt4AN4SPhfv9/77O5ziXmzpvL9t21a5eYo62Jvj8e3w7GK89QvBSWeK6+hmpMUDhfgt6t099KrRwSzs7OLK9t27ZiTkbnQyoc0fv8J0+esjyayY93sjMcXOA1wwVef7jAq6CrwFOTLr3LJM5bW2fplKUOelAaEisrKzFlGKgzGr1LNTaUqc+w5nyAuJZ3aI5tugfUK37JkiWYN28ea4amZnjKHzd2LAu+QyFwqdZKeVQooDzal2Zmo7xmzZqJZ8xJr1698dg7Eq98o/HKJwpvNEyHakxILRlU4KG/nf7WXr17sbxffvmFhamlPBpmJ8X1p3Uy+m7KlCnD8ii+gT4okp/i9RveyU4dXOA1wwVef7jAq6CrwFNvbHqwVRZqQBSZjaCwoNQjmSbnoHnSaQjSuXPn2Dbal5oyqdfyJ598wvJUuXnzJtuHJgWhzmGUlno2U8cvirlOeRQlTnpv7OLiwoSe0lQLHTNmDOv9TGkKQDNy5Eh2PDWxhoSEsAcHNVFTwBnKo2lFqdn15MmTrMMZza1OQWtKly6dJaBNUeITnYavhdpeQREYFCim3lJepePZu8TEiRPh5ubG+i1IwYvyAv32K1asKK6ph88mpxku8JrhAq8/XOBV0FXgDx06JKaA1WtWM5Elhg0bxsYFE1QrunAh41zSdoIefhRohGpENCRL2katAHZ2tixNhYHAwECWd/v2bZaniur5Fi5ciKFDhzLxpv1Pnz6Nho0ympKpBkZjwyWoBku9oJctW8ZqZRIk8PR5qRe1MUFN9N+NzigkaeP3P37H48ePs3w3JDYU2IXyqWB19mxGYYEKOESLFhmx8WkYHRWiqFmaxs7HxcWxwpI26B09YWtnp9d76Bs3bjAx1Qb16Jd69RuSf//9l9XApe9q69aM3yxBhUzVeQTMzc1Zkzz9PmgEAi3p+6Fx8rSk3xx9zxQDn77H0NBQ9t3t378/c9x9dr4Yqnk+eBK4adOnvbNGvz+OerjA68/bpyFHZ4GnzlnUvEs9ij/88ENcvnyZ5VMYVnpokpBScy419xK0pNjg33//Pfz8/FieKlTDpuNoH6m3Mj1ICanJmJpDJeg8dH2qrRNU65agCVhUoaZomi6VxitTiwJFditVqhQrXFAvcX9/f3Z+mlqUHuyUrl27NuugVtQ8e5kOP0HkdYEKJ1JLiGqTMa1TvPyrV69i37597HugfSkEL20jYafWDOowRu+YqQZra2vLvl8qZGmDxs7TeeiVDQk3FaCoVYS+y+UrlrPvURpmRgVDCtNLn5MEPikpiUWLk+a2l0LHHj9+nE3Ys2LFChagh6DfAb1eMASjR49mgYCo8Eefj1p8CAsLCzacUHVufGrNoaiANPTwypUrrHB07dq1zAIQtTBRJDv6DuhdPgk8pWk0Ai3VMfnAXTwpBq8wOMYFF3j94QKvAu9kZ1zkt5Pd3bt3hFrnSSY2BYHVCSvWEkI1V4JqrfSqgwoUJNIkeFSooslfSNSlddqHxJQKWDt27GBCToF5aD+Cas00Bp2ayqlQQlAHQG2zwxUEGzasZ/MOGJLcOtlxOJrgAq8/XOBV4AJvXDx4+hKuQYniGofDeZfhAq8/XOBVIIG/5X9NXOMYA9FJby1K1Hp58ts8mWAsL+VtXqS4X5S4TkbHELRNyosVJ1dT3U8h5kUkvM1LEPucqR6bIk4cp5qXqibv0fOMPNVrPBMr4vT3SHkvxWHhqvtJ0VyldTKJ3PLoHAQNxc/ME65FPBMqztnzHr94myd9d/T3Zd8v+fHbPPp+CPpupDzpWPpepTzps6jL43D04aSzBRd4PfkPvWfkFojgoGB43r8lmDs3bty4cTNCu3P/Nnudpe4Zzi2n8Ro8h8PhcDglDC7uHA6Hw+GUMLi4czgcDodTwuDiLpKQFodDV7fg8NWt3Lhx48bNyOzglc14+vyx+MTmaIOLu0iw3AfdTWtiwJrG3Lhx48bNyKzrkn+Q8lAcrsHRChd3ERL31nMz5grncDgcjnHRfNYPXNz1gIu7CBd3DofDMV6az6rExV0PuLiLcHHncDgc44WLu35wcRfh4s7hcDjGCxd3/eDiLsLFncPhcIwXLu76wcVdhIs7h8PhGC9c3PWDi7sIF3cOh8MxXri46wcXd5G8irunpydbKpVKtizJpKWl4cKFnNPjXrx4EU+fPhXXOBwOx/BwcdcPLu4i+or77du3UaVKFbi7u6Nu3booV66cuKXoKKgCRkJCAh4/foxGjRphyJAhYu5bevTogeDgYHGNw+FwDA8Xd/3g4i6ir7iXLVsWXl5e4hpQtWpVMVU0WFhYwMXFRVwzHJs3b8bdu3dZetu2bRg8eDBLczgcTmHCxV0/uLiL6Cvus2bNwn/+8x9YWVmx9cjISLYkatSowWryHTt2ZOtv3rzBDz/8gG7duqFt27bMaF7in376CadOncKHH36IMmXKwM/fD++//z4qV67MjiPq1qvLjm3YsCFbHz9hPLvuoEGD2PK8tTWuXr3K0nTc4cOH2X4SnTp1Qvv27dnnef36NQICAvDzzz9j//597JgfKlVi+1USlt9++y1CQkLw5MkTfP3115gxYwbbhwou9DnNzc1Zzf3777/He++9h/T0dNy/f5/9HW5ubvDw8GDbjh07xo6rVq0aOzdBn2HSpEmoWLEiOnfujJiYGHELh8PhaIeLu35wcRfJyzv3sWPHMhErVaoUHjx4wPLq1KmD6OhoKBQKts0/wJ+J/ZUrV9h2ynv16hVLU7P+nj17WPqLL76ApaUlS9M+qamp6NOnD0JDQ5kQUp6NjQ07ltKE1z0vJsgEvRpwdXVlaQkSX2nf5s2b48SJEyz9999/Y9XqVSz9wQcfZAqttC9B+xB//fVXZgsFiXvt2rVZmgooO3bsYOny5b9jwk5UqFABe/ftZWk636NHj3Dd6Tpq1qzJ8saPH49FixaxNIfD4egKF3f94OIuoq+4P3v2jC2pllteEDRJGGlJ777lcjl7V01ibGJigoWLFmZup/fXxG+//YZ79+6xNNXOqVBAfPTRR0hKSmK147i4uMxzvXjxgh0rXUsmk+Gzzz5jaSpUXL9+naVVoeP/+ecfZsePH2d5tWrVwo0bGU34VDiQWh3o3fnkyZNx9OhRREREsLw///yT9S8gSNypxYCYMGEC1qxZw9JUs5fEnVoAqHWAoBYJKqRQAYUKEcT06dNhamrK0hwOh6MrXNz1g4u7iL7iTgKpCgkuCTnV4i9cfNuj3M7Wji1JvHv27AlHR0e2TuQm7okJiay5m95zSxw4cIAVJiRxp/0lcf/333/h5OTE0hKxsbH4+OOPWZqEW3qFoCru33zzTaa4U7M9nbt06dJsnSBx9/TMEO68ijvx+++/sb9/7ty5bJ3D4XD0gYu7fnBxF9FX3P/44w907dqV1bAdHBzw6aefsnxqOieBJLGVRLhd27Zs/169emHUqFFITExk+V999RXs7DLE//PPP4ezszNL03E3btzAnTt3WLp69er473//y97dh4WFZZ6XatRSunXr1ujSpUuWJm96f07bt27dypr969WrxwoHJOhSEz0VJNxvu7M00bJlSybiEvSuv3fv3kzIp02bxpr3CXpvTq8lCPrsZ86cYWkqTKj+HWHhYawA88knn7Dva+DAgayPAIfD4egDF3f94OIuoq+4UwcyEkp6Z579XXdSclKW8eDUFO3v789Ejd6rk9DRmHFqaqfaNy2ldHx8PBP/qKgoduzDRw9x/vx5liaouZy2U1M97UNpOpagzm3ZoesmJiWy9+/Jycl4+PAh25+a9On1AaWjIjOuRVDHt+z4+PiwJbUE0DF0HlrSOqWl81EtnZ1P+FzU54A+G31e2m/jpo2sNz8VAqgAIRVwOBwORxe4uOsHF3eRvHSo0xWqwd66dYulaVx8hw4dWNqY2LRpE6vhU49+Q0N/P71eePnyJWvp+OWXX8QtHA6Hoxtc3PWDi7tIQYo71WppfHj37t1x6dIlMde4OHToEKZOnSquGR4aVkc19iVLlog5HA6Hoztc3PWDi7tIQYo7h8PhcPIHF3f94OIuwsWdw+FwjBcu7vrBxV2EizuHw+EYL1zc9YOLuwgXdw6HwzFeuLjrBxd3ES7uHA6HY7xwcdcPLu4iXNw5HA7HeOHirh9c3EW4uHM4HI7xwsVdP7i4i3Bx53A4HOOFi7t+cHEX4eLO4XA4xgsXd/3g4i7CxZ3D4XCMFy7u+sHFXYSLO4fD4RgvXNz1g4u7CBd3DofDMV64uOsHF3cRLu4cDodjvHBx1w8u7iJc3DkcDsd44eKuH1zcRbi4czgcjvHCxV0/uLiLFJS4m14eh2X247CcG7dcbKHtcPEXw+Fw1MHFXT+4uIsUlLgvvTwGocmRCEgI5sZNrYUmR2ERF3cOJ1e4uOsHF3eRghT3wMRg+Cj9uHFTa4EJIVzcORwtcHHXDy7uIlzcuRWV5VXcg4JDERgUrMFCEJ/AH4SckgMXd/3g4i7CxZ1bUVlexd3xugsSklIQn5icw9IePMItd09xTw6n+MPFXT+4uItwcedWVJZXcb/m4IQ4ZSJi4xJyWFJKGhd3TomCi7t+cHEX4eLOraiMizuHox0u7vrBxV2Eizu3ojIu7ll5FX4Fjw+3weNDLbnpbC3weH9j4PUr8VsseXBx1w8u7iJc3LkVlXFxz8qrMHs8s5uKV5H2gtlx08VkDkzkubhzJLi4i3Bx51ZUVtzF3d/PDw7XriE6KkrMyR8Z4j5FqMHbCOmL3HSxyMtc3DlZ4OIuwsWdW1FZcRX3GdOmY+G8+YiLjcPY0WMQFhoGk779YH3unLhH3uDingfj4s7JBhd3ES7u3IrK8irul2yvIDQsCiGhkTksKjoGN91ui3sansYNGoqpDCaMGy+mgMjISCyYv0Bc05+iEvfXwvUQaYt0NdvI0oXtbyIvadyem72JsGXLvByrk3Fx52SDi7sIF3duRWV5FfcXL17i2bNnGi399WtxT8OyeuUqMfUWVXEnXJxdEBIcLK7pR2GJe3q4atoGKb6nUa7M10Di9Sz7SZbid0bY/g0Qe5WtZzleXGauZ9vmc80C1X//FZBfzrKfwYyLOycbXNxFuLhzKyrLq7gnJCYgThmv0R4/fiLuaViGDhokpt6SXdyJfn36iCn9MJS4J3mfgpeNOU5tX4THAWdxce8yRLseRnqEDfzsd8HaYikQZYtHwrZL+5Yh9f5p/Pv3n0C8I+wOrkTCXauMc4VeFPY5B9sDK/DXb78AimuIdD0Eq20LANllYf0KLuxZitDr+/BaOJ/P5Z04b7FE2GbHhD3M5SCuHFmFhrWrA3FX4XF+q3D+FUC0Hft8rqc34ZFQcMj++fUyLu6cbHBxF+Hizq2oLK/iftneEdGyWMEUOYzexbu5eYh7Go701+nwvndPXHvL1MmTxdRbpkzMmaeOiIgI9OzeA7aXbPHyxQuh1nvVIOL+JOQifqr4PV7HOaBsmXJ4neCIsl+VA5KcMbJPezidN4PTyQ34o1pV4Q+7ixM7F6PuP3/B+tBKBDsJQi0UAug8VFNvVrcWkOKCKpV+xIvIS5g9rj8sts7DuIFd0LRubeCBK1rW/xcBVy1wRMh/HmWHyj/8iGcRlzBv0mAm9PWq/w2PC2awNF+IoSZdYC8IfsVvK8D72h4ke5/M8fn1MhL3gy3Eb7RkwsVdP7i4i3Bx51ZUVlgd6nbv3In9e/fly3Zs346Vy5dnyTtmaYlO7dvj4P4DmXmU7talK6yOHc+yrzpbIZzv808+RZ2atbB+7Tok3TtrEHGnGnW9Gn8JYu6EXysLvp12A999/R2QegPThvfCCbMFuLjPFDKPo/jog88R4GCBJnVr4k8Se6GGLZ0n6uZBrJ4zEpDb489fq8H/ym5cO7EBT4XaPIn6DxW+z6jBx17BypkjcV+oudO1y39THqd3LYafsD+1EDSo9Q9WTB+GJL+zeB5kzZr/f/tZ+Fxx17J87jyZIO4vrTrgwN69Ob7fvRZ7EK+MF38FxRcu7vrBxV2Eizu3orLCEndDsWXzZjH1lvw0y79Kz9qUbKhm+Tcx9hm18mQXlP+2PPDQFZ98XAox906iV4fmWCEI9t4NszGgWxvg+W307diSCXuaUGP//eef8VoQbDrPy5gr+PijUngUaYuvviyL2LvHUa50Odic3CiI9VDU+usPbFk+BaP7d0HsnePo3LIhXiVcR7dWjRHndQJ//lINCT6nWSHA9cxm1BUKHCcOrIDD0dVCzV34XErDiDtrln+TLn6LJQ8u7vrBxV2Eizu3orLiJu6tWwgiko3s4p7+6hW2b9smrumHocQ9XhBasoQ7x5B4xwrJXlZIvGuFB35nEOy4l3Vui3I9iOR7J3D73Bakh10Q9hWO8aT9jyNOqNGzjnKhF/BSsOBrFkgUzvFGEPknAWcR5rSfvTeHIP6+9rtYzZ6u+zz4PHvvLnWeo/Mrbh1B2v1TrAavFM5P13gRbM0+T4z7kRwd8vQ2/s6dkw0u7iJc3LkVlRU3cU9PT8ek8RPFtQyyi3uTho3ElP4U1VC4Ym1c3DnZ4OIuwsXdcOafFKQ2n5t6K27iTiQnJ6NPz15syB0xaeIktpTL5GjauDFL5xUu7nkwLu6cbHBxF+HibhjzjLqDCdPGwS8xQO12bjmtOIq7BHXSGzViJP6tWQtjR42Go6OjuCXvcHHPg3Fx52SDi7sIF3fDWEByMKKeyxCYEoyQB2GIfCYTavKBwjIagcI22if8cSQinkbBJ84XfgkBCHsUwcw/MTDjmKfROc5bki2v4m5/xRFyhRLymLgcpkxIgtstww+F08TI4SPEVP5h4n55Gl5F0cQxl7npYmzimFZc3DmZcHEX4eKef6Pa+sbdG9Gla0dstNiIf2vXxLAxQ9Grbw9MmzcNI8YNx53ou+jTryfatGsJ33h/LF69GLuP78Zv1arhzLUzmDhzAgYOG4BTV0+pvUZJtLyKe3xCIpTKBA0Wj0ePH4t7FiwP0tLwyf8+FNfyz6sQWzZm+8nRLtx0tq54tLsWF3dOJlzcRbi4G8bofXunzh1wO8ITI8cPZ7X4tu3bIOxxBP788w9WM7e+YY1mzRvjuo8z/vjtN8QiHlV/qoIzDmcwbf40LN+8HLuO7WLir+4aJc3yKu4Ufvb58xcajTq+FQaHDx/GV1+WRmpqqpiTT9Jf4s2zB3jzPHdTRAYCavIL0l48TMTLR8lqtxWU4cUDJMhD1W7LYs8M9P0bKVzc9YOLuwgXd8MY1d47d+0A93APDB87FJHPo4VaeiuEPgzHP3/9idPXTrNa/cJVC+Dk54ILrhcxf9k8eMnvwcruOCbPngx5ugKzFs9EYEqI2muUNMuruNvaXUV4pAzhEdE5TBYTV6ATx6ji7OSMTh06IjoqWswpHLp26iKmCo+D+/ezzoSFyaNHj9TG83/X4OKuH1zcRbi459/o/fmWvZvRum0rbNi1Ht16dsGh84fRsnVznHE8i6ZUW/d1xt9//gnTDaboO6A3a4Kv8c/f+On7H3A7yhPdenVF3Tq1cV/pq/YaJdGKc4c6CXVBbAqaTz/8CFGRkeJa4dChbTuYbdkqrhUO58+dQ+P6DcS1dxcu7vrBxV2Ei7thjDrSBQk1brZMDUFAchCrgQckBbF8amoPSg1ly+iXcvxarSruxd7H0UvHcOmWLetU967U2CXj4q4/CfEJKF2qFAtXW5h8VboMqv/5l7hWOLRr3Vb4W7/AmwKa5a+4wMVdP7i4i+RH3F+8eI6nz57iydMn2LljB7p07owTJ6zwMO0hTC+PfafEXS+L84Nr0E3sPm6hfvs7YhniPgKvXqSz35GqvRYe6D+Ur4gFc+fhXrYJW971mvvqlSvFVOHh5+tbaH0ZVDl+9KiYenfh4q4fXNxF8iPu7m7uuHj+Ai6cs8a0qVPx9Vdl0bNbD5y2OoWV1yZwcdfFBKFXm/8OGIn78mvjcPHsJVw4b53FrthfwReffY7fqlbDooUL4eHxdnjbuy7uSxYtFlOFxy03N/YOvLDZv2evmHp34eKuH1zcRQzVLP/ixQsxlcG71iyfV7ty96ra/HfBtDXLZ/9NSXBx5+L+LsHFXT+4uIvwd+75N2noGi2zD2NTXc++jd7N16lTOzPITW7HlkTj79zzBhf3dwsu7vrBxV2Ei3veLfhBGKbPn4bBwwfifpwvho4eglETR2LJ2sWsg9y2g2boP7QfG/rmJffGuKljMWnGRASnheFGoBtGTxiJmjWqM3E/de0MevTuhus+TsJx27Bq6yoMGTWYdchTd+2SYHkVdwdHFyQkJiM+ISmHpaY9KtQIdVzcCxYu7lzc9YWLuwgX97wZ1apnLZyB7Ye3o3O3jmzc+i9VquABHqHCN9/CI9KTbSNxtrCywK8//8xC0Vqc2IMNuzagWtWfEfM6Di1bt2CBbpq3aIqdR3ei3Bdf4cCZAzhkfZgVGNRdu6RYXsXdzz8Ivn4BggWqsQAohRp8YTFqtOHCz+rKggXzxFTh4XbbDU9fPBXXCo+9ey3E1LsLF3f94OIuwsU9b0ZBa6imrXijhOxlDG4Gu+G3alWheB2LShUr4qiNJXZa7mSR6+7K7qF8uW9YHPmbwbcwz3Quqv74E4sl36Zda3jH3MdQoZYeLZyHmurNhJr7ySsn1V63JFlexb2wsVtpj0umdjnMVjCHNdfVbiO7fdBdPINuxHjH4NIy9edStWtrHNm11W0rKLu84kqhX5Oud2XVNbXbVO3Cgot48/qN+C2WPLi464dWcXf18MeeY5cRm5CMpJQEpKQpkZSgQIizM27u3g/XvQcRftMFiQkyJCYrkJgUC7kiBmvXbsH2HYex1WwnEhLikZyWJByfiPjUeETKBBHwCIKjmw/Co2TsvMmpiUhMUSI5MQ6W681wfPMOWO3YjqR4ubBNuGZKPBLSEnHrXiC27LPBtv2XcP2WF+KTDHOzubjn3axvXMQP31VA1x5d4CXzxtelv0Lk42h88t6HrJb+5cefo7dJTxy3PY5FqxdixeYV6DugD5tQpl7dfzFz0UwWxGbPSQtW6+8nbBs9aRRmLJiOlVtW8HfuGjhz7iI873jD4869HObl7YubboZrlk8ITYDzdhcoQ5WIDYnV2ZThStgKQv06Xfcx2gofBTyOeiIuNE7tObnltPjweNivvlqix8JzcdcPreLu6HofW/ZbQx4bj7jYGMQlyREfE4UIx+u4tWUH3Mz3Isz2ChLkkUiKkwvCL0dsXAy2btmF9ZsPYv26bYiXC6KvlCE+LhoJ8dGIDouAi4sPHJy9EBQULOTJkaCMRmpsFB7KI2C1YStObdyJE1u2IjkqAmnC9dJiYhAvk8HDPQhmu2yxftM5XHfwRLLMMBGquLjnzyi8LJvpTUiToPsIghz5XM7Ww59ECtsjWNo/IZC9W6c8am4PeRDOAt5QzHmqrVOtngW/EWr6dE56ny9do6RacehQd22jIyI8IhDjH6O3eZ29D5+LvuKZtEPi7n7EA4oAhdrzcctpscGxgrhf4eLOyUSruHu4+uD0wctICZbjWbgMT8Ij8Dw4HAmXneCzcRd8N+9F7GlbPPHywzOfIDz28ccD7wBYrjLHjqWCzV0O2VVXJDrdRKytA6LP2yLwpFDr3nYCDmZWuGNhhdBj5xB06CSCLE8j+MAp7B82FXsHTseefqPhs20/PDbugKtQm79muh5n5q7D3J7TMKPrJGwZMBWnxk4XPmX+m6K4uHMrKjN2cX+S8gRX111jAqJOWLRZbFAsLi21Fc+mHS7u+hsXd052tIr7kbU7MeSPttjRbgh2tuiJ7a26Y2+z3tj5b3uYlvsNa8vXxLZqTWFetxt2Ne+Lnc17w7xZPwz/vgaG/twEwypUx86W/bG3eR/sbSUsW5hgd/MBWNugP9Y0HATzxv2xXTj2UHMTWLYdgsPth2H2j7Uxp0pDzP2xLqw6jcSBVgNwvNc4HOs2DjvajsLMWkMws+5QbGk3Aae7GaaXLhd3bkVlxi7urnvcEOQUrFZUdDESafeDtxHpHiWeMXdKurgrg+ORGpmqdltejYs7Jztaxd3W4iQ29ZoDj/m74T3HDL4LzeE/eyvujl6B620n4kbXafAesRyhS/cgau0h+C/dDr9lFtjdYwIODF+CrR2G4/bsTXCftALuk1fDfcpqOE1cjdPDVuBAj7m4NGwpLprMxpVBc2DXbwbsB86GWZ2u2FS3JzZWb4dzgnhf6DUZJ7uMwaEOQ7Gn82hMrWGCsX90xeJafbCvqQnevOE1d27F14xZ3NNfvYbtssvs/bc6UdHZfGNgt/yyeNbcMSZxl/vJES+IsbpteTH6my4cs0a9WnUEkVeq3Scv9q6L+44dO8QUR0J7zX3Vdgz9pRU21O8J84ZdsaVBB5hVb49tf7XC8rK/Y/W31bHmhzowq90RZg07CzXxLtjVuh9G/1gLI6u1xIif6mBr837Y1aoPLDoMxP4uQ2HRdRg2dxyNlS2EdLex2NdtOE4MmoJDvUfhSN+xWPBXYyyr1QFL/mkqFAImw2bKPFwQzH7BGljNXAHTfnNgKhQI9kxchZvrdnJx51aszZjF/d4Zb9y/6MMEhDrV3XO5j6SwpAzRC0mE9w0ftp4alQq5sM99Vx/Eh8Yj0isSYXfDEMoslDXNO5k7IzEsUTyzZvIj7snhyYjyiUKQRzD7XGlRaYj2lSHwdiDbdsfxLlIiUti55X4xiAuKg8xXzvYN84pggkv7R/vIWA07NjAOjes1FPaRsfPL/eXC8am46+TF/pZU4fwxwrnY3x1C+8ci2DMECv+Mz0419NsOnuxz0HeWEJqIqPuRqF+7Xsa1hOtE3osUPoeSHRvlHZWnv/tdEPc2i38S/lcf1/8///kPs4MHD4o5HK3i7n7tNg6uPoRoRw8kutzCwzteeO5+HwmnL+P+MjOEbTkA+aEzeOkbglehkXgdEY3nIZE4v/sITuw9g+PbDuJRkJAXKcPTaAWeRgk/+GAZ7rv446adJyLvhOBRRAyeRkbhWbQMib7+uLzdAufW74St2R6kBgpOGhGGxOgIJAn7BHgHY7vFBWzedgrWNjcQG6VbU582uLhzKyozZnG3WXKJ1dqVgviM6D8UcYFKNtUqCeDowaNw1/EOE79DOw6heYOm2G+2DxuXrcdwkyFwtnGC3UlbwdfvMwGKvBOJqxsdxDNrJj/ifvm0PX6u9BOsj1rj27LlcHzPUfxbvRZmTpiOJvUaCSKejOp//YMQjxBUqlAR54+cQ9XKlXFg2340qlNfENoolP7iC1w8fhGff/KJINgJqFe7jiDIUez8JM4jTIYJz66bMOnRF3u37EGrxi2wf9s+rFu6Hhabd8Hd/ha7plIoODQWrklC/93X3zDxH9DTBH43/dHo33q453wPV89cwajBI4XvyQ6lPv0M65asZQWF7H+XNisJ4p6WloazZ89qtD+7lcORYwfVbpPE/bPPPoOb203xjO82WsWdesvvOGgLuTwBCfFxSFQKpeM4GWQurnBZZ4abW3fDy9IKybHRwoNGKHXGRSE+LgY7d+zFVvMjWL/aDDJB0JWxQklfqYBC2C9cKADcuBmEcza34B0QhtgE4bzJcYhLFJwnJgpndu3C4XXbcGLLbsQEByMuNgoyRTjkcXJ4+gZhy54LWLvtPCzPXBfyFeInzR9c3LkVleVV3ClCXXxCMpTxSTksNe1hvsU9xCkUty09hJqpUCAXap5//fo7ksKT8ETxFCvmL4ernSur8Vb5oRJChUL6/7N3FmBVZesbv/GfO3fudHc4o446tmOM3d3d3d3dLWIgEnYXBqiUiCghqHSHdKfY7bz/9S32VpRDHCT1+/l8zz577bWT43n3u3LxrMUIuBKECSPGS0dMojd+6DjcUOqXqcuWzdrzuJt6VzmDZl6vWD4OrRu3lNfbsE59WXowY/wM4bbTUK1SZaQIcTbZbYJtwjzUrFod6cKF/ymEmNz8lNGT5DF+L1MOt6JuY+b46XL/+kKI1SJ0n8s+mD9tHixMLMRLixc8LnpixYLlCHENxtQxk1GxbHnh0m/JkgzLY5bYvGqzfDFq36IttqzREy889tL51xPOvU+XnrAR4m5rdkHe6x/lKuBOzJ1M95L3eNuL5d9//324ubsrawyRq7hfcvbD1n1WiIxLRXJ6MlJuJCE1JQ7Rjs64uHYzXA13I/DEaSQL0U5ME1+y5GjEiRcA4+07sXHrHmzaZIjwqAjEJEYgUewXlxyD65HRuOjkj9PCubv5hCAqPk5si0diciwSoiNx3NAQO9dswh5x/IhAf8SIY0cnRCAiJgru/qFYZ3QKKzYdw4ETlxAWHa1c6evB4s5RXJFfcXdyvgJnl6sa47LYFhbxeqVaNHhKXFBGC3kSv5+//16ImQe2rtsC+7P2GNJ3MB4nP0bl3ysi3CMcS2cvEWIYhslCJEkMG9dvJJyx2UsiFOIQAqcdOTur1xV3KkF4mvoMVSr+IYV12ripslj8M+HIHyQ8xJoFq+B72Rc1KlfF3bh7UtzvxNyV4pwcnCKdP9KBJuL678beRS3xEhDmGSaPT0XrP3z3vby/ySMnIfhaMFYtXIlwz3D5ctC6aUuc2ncSliaW8LjkiUrlf8eTlKeo/kdVXDC9gNFDRiFNPMuqf1TBlrVbMGPCdIR5hEnhr1C2HB4mPHrlfvIW3KCOeZXcnbsQ99UGJ3E9KgHxUoDjhIMX/+mcnHFh7SY46+8Uzv0IUuKjEZsUhTgRscJh79p7EHrGR2BgsBcREeJlQKRFJ4pIjkdIbDwcrl2HqeVVuPmFIjopCbEiPS5JvBhER+HU3sPYvUG49w3ixSA4ROwbjwgR4XGxcPMPw8Zd5lhrZIpDp50QEV8wf2wWd47iivyKe2ES5yv+jxo5Ii4wk8AKsZ0xbpqsU6a6aMtjFlgxbznSI27igPF+IfpbcdD4ADat2IjkkGQ4WDjIeumXROi62E+8NDx9+EQ5U1ZeV9z/qlUXS8SLRsr1VFncvnnVJkT5CPMRnISlsxbj4umLUpRJUM+dOAd9IbKm4iWE8pnsMcEf4mVltXgBCL4WJBvTrV285nnVAl2TnXDac6bMESKdjn2Ge+Vxju82kcsb4lksnL4Al85elHndLrph0YxFzxvmGW/chr36e3Fs1zFZCqK3ejMM1xsi8Eqg2H8Lzh45k6/7ZnFnXiVXcT9/2Q+LhUt2842GX0gEfPyD4esdCBczaxyetwanV2+F2cbtcHV2xXlbO1kPeP68I+Yv1sWIiaswZNgsbDU6iG27D2H77qPYtHU3VunsxNzFRhgzaTWmztHBouUbRX4dLF6xCUuXbMCIPqMwoNNQ9G7ZB7OnLcX4SQswftpijJowB32GzUDNJkNQ9a9+qNt8GLr1Hs8N6jhKdeRX3E2Om+Hipcsaw97BBS4u+S+Wp+LzaJ+MRmSZI7PwkGBl/hwtImOZdb/M4WvpB4+TnsqZsvI64u4lRLhqhT/EvhklDpquR73uzNf7YhmLTz78EPHK/ppC3V/9rOm+1TxyGZB1f3V7rP+Lz+p1ZM6b12BxZ14lV3FftfEAytYdjEZtx6J1l7Fo0W4EOnYagy6tBqNVhRZoW709WtbuiO49p6JLr6lo3Wk82nWfhGq1u6PCn31QoWpHdOozGZ16T8GA4YvRrd8s9BgwF217TEeTjhPRsqvYp+sUtOw2GZ3FtnZdJ6HVX73QvHZP1K/RA117TEG3AbNFzEKvQfPRoc9cVG04DlWajUHN1uKc/ecKcVcu9jVgcecornidBnVUv06N6l6NtPRb+a5zT49Nh63uBdnCXZOQvG4khCTIhnrZjYP+OuJORdz0UkJOXdP23CLCKwIxvjEI88zfaHzFFSzuzKvkKu66hqao3kwI7OC16DtyDXqPWI1+o1diQL/Z6FSvD7o2GYyOzYZg4MiV6DdiGfqNXIVew5ajdlPhrhsMQ9V6/dBbiHpXIcI9Bs5HN7Hs3nc+uvdbjAatxqJZx8no0GuaEO3p6NBvhngRmIlGdXugXvWuqFOtMzp0HIsOPSahYy+Rr/sUNO80CRXrDMNvf/ZH2TqD0bTDWDwrgC80iztHccXriDsJeUG3lncwcEDY1cIVN7cj7gi+FKKc8WVer1j+7QwWd+ZVchX31bp7Ua52b7TrMhE9e09El65j0K/HBPTuMBity9VHjzod0LZOO3TvOgL9Bk9Gr/6TMG7CErRoPRB1Gw9Bvfq9MGXWasxeuC4jFqzD0hXGmLd4G8ZP24B5C7dAZ+NOrNHdjjXrDLFsjT5GDZmEgd1GYUSvUTDauAP7Dp6EyalzOHjUUsQFTFuyC5PnGWHW8n04c6FgJsdgcecorihJ4v7g1gM5+1tiaJJ07oUVCdcTsx2SlsT96kFXJAQnaNyXI2vQBD0s7gXHhAkTSnzkRu517o6+WGt0Bm4BMbgenYSIuBRERon/nN4BsFi1Gdd2H8Wl3YeRGBOPuIQExCYmIzIuAUdPmGOTwXGs09mOgCDhApITZWO6uNQE2QjusmskDh23h6t3BKKTxDETE+EfFo0th81x8IA1jFZvw05dY3g7uyIyNhpRCTEiEhAZnYpVhqZYtPYw1hidRHA8d4XjKN1RksT9yr6rsBbibrnCSqsgYdGUnlNYiYjxiFHO/IJYz1jZ6E7TPpnDfJmFxvRCjeUa0oog8nKvGVO+srgXBGq/+ZIcuZG7uNt7Qnf7GfiFxSFGCHRMSgwSk0T4+uDcuo3w3HMELjt2IzUuCnHJUbK7W6wIUzNz6GzeDV29nfAPDERiWpwQ9lgk3hAvAEnJuOIWKdz4ZVz1DBPp6WJ7GgIiwnHW5TqmLjHG6jU7YbxOHx4O9ohJiJZd6GKSEhAqXi50d5zBKj0zrN9hilAh+AUBiztHcUVJK5bPD6tWr1I+MUzhwOL+cuRGrjkcrgZAb48VvIJihSinICE1DgnxEUj08sLZJWvgse0A7PUMcSNeCL4Q/mThzBNS4mFy/BR0hbiv0d2GwKAQJNxIRNLNZCSmJyI+JRVXPSKkc3dyDUFsahri05LEMhFXA2OwdtsZjJ+qj50bd+OarZ3IHyu2i5eC1GREpaRDd6cpdIzMoL/fClFJacqVvh4s7hzFFaVd3Klh3Afv/U9ZY5jCgcX95ciNXHPYOftjww4reATFC3FPQ2xyAhIT45Aq3PjZJavhbnQQNrpbkBoTI7bHID45HhHxsThjYYP1evuwfvM+ePmGZPRlT01F7I0kxCSnwsUjEgdI3N3FtpQbQqTjESPE2zssDpt3WmLoxM3YseEALp61lv3cY5PFuRNvIiz2Nrbus8WaLaexcdc5BEamK1f6erC4cxRX5FfcL9jZI1n836FR6l6Nm7fvFJm429jY4NMPP8L9+/eVlDePgmi0y7weLO4vR27kmsPWMQBrjc7B9up1eIfEwTs4Br5+kfB18cGBWatwfu1uHFmhB1/3UCHYIXBxvw5n8dl4tylmL9yK+St2wczyChyvBMP+agguXQkULwzBOGrqgQ0G1jhi6g5LuwBYX/QT5wqGtZ0/1utbY+xkI6yauxX6a3fC+rw3LGx9YX7eD2dsQzFnjRmmLj2BKSuO49R5zS1utYXFnaO4Ir/ibnP+Ii7aX8YljeEM/8AgJWfhEihe9Pv16Ys7d+4oKW8W8fHxaNmypbLGFBcs7i9HbuSaw8I2APPXWeKAmQ9MzP1wyioApy18cfaIEwynbMDRJbuxecZGHDtyBftNrmDvERfsP+mKRasOYfjETcKB60HX0Ab6e+2xafclbNppi3X6lli09iyGT9qFWUuPY/kGc6wUob/HAXo77DBu1l4MG74Jw3otwJBes8Q2U8xfewwzVx3FtOXH0by/Dup3W44WA3Qxdv4hHsSGo1RHfsW9JDFrxizl05vHjz/+KH9Mnz7VPCMZUzSwuL8cuZFrjm0H7dFhmHDg6y2xUs8G67ddxNZd9ti21Qxze82E/qQNWDVhDUyEuB84fg2HT7hhn1iu0j2B0VO2YLgIo332OCic+nHLABy38BcvCEHYc8QTK3XPY+9RL5w4648T5iLOeOGstR+2b7fBxlVHsGnJHmxYbAQra2+csfHCmQti33NBWLrpLGasNMEcndM4YVXynXtIWhj8kgM5ODRGSGp4ruK+ccNG+Pn5KWsljzdV3K+HXn/+Y9qqVSsllSkOWNxfjtzINYf5eS8s2HAWh83cYGnrCxsHP9he9MFlKxfsmrEG1jr7sG/hBjhf9IL9ZT84OPvLRnh7Dltg3jJD4cyNcNLaBU5uQbjmEQ437zC4ekXIYxnvughr2wB4+sSKiBLbr8PDNQjnTKyxf/MebFthiP2bdiA8JBrhkQkIjUlAcGQi9hy/hBWbjmPdNnO4BcYrV/p6FJ64j8U62+lYy8GRQyywGKZ8Y7JHrdN+9PARAgIC5OeQkBcvt5T2+NEjZQ0ICgxUPgGxsbG4feuWslbwvKniTs/88ePHclrRu/dyns2OKVxY3F+O3Mg1x3kHX2zcZQMXr3BEJ6UiJiUBicnJSAsOh916I/jvOgGrdZuQEhOLpJQkJCQnICoxFtbn7LBFfz82GxzEJWc3xCUlIC4xCfEiT3RyEpw9AnDkpCNcXIMRFZeE2Pg4xEWEw/usLczX6sNg+iLsX2sME8PtiI2kqWSpj3wiIhMTYHrhGjbtOov1288IcQ9TrvT1KCxxv/foDu495uDIOe4+uq18YzQzeeIkXHa6jHPW1ujQrj2uXbuGurX+RFRkFMaNHoPpU6fi3r17KF+2rMxfrUpVJIj/M/Xr1YPpKVMkJCaiZrUaIq1guo6+yptcLE+cOXNG+cQUFyzuL0du5JrD8VoQdIxP44pw1fEpcUi6EYvUpBjcjoyA7fot8Dbaj/NC3NNjIoS4k8BTl7kYnLe1x2odQ2zcug92Ti6ynzq1pI8T26IT4+Ds6odjpvZwdg9CZJzYJyEC1x0dcGj0LKxr0QunF2/A8fWG2LtuPWJiIuWMcrHi2JFiX6vLHti8xxz6ByzFS4K/cqWvR2GJO8MUBCdPnJDiHh0dg636+riZno5RI0bKbR3atZOtudesWoVK5SvItJ+//wE3btzAvDlz0axxE/ESIP4PRUUV2iAnM6bNUD69mbC4Fz8s7i9HbuSa44KTN7YcOA9HtxDhyKORlBaL5KRo3AkPxbmVuvDffhDnV2/CzahwJCXSIDZRchCbCxccsXLNVqzRNcaFiw5yPvZYsT0mMRIxCTFwvuaP42aOcLomnHtULGKiQ+G47zC2dx8J464jMaduO+ybtwZ7N2xCZGiw+FGLQETkdYQKd2/l6IqtuyyxcacpLnu8KHp8HVjcmZKMybFjcHJwEP9PYrBpk/j/dvMmhgwcJLeRuDdt1AgPHzwUov6jLEYeN3o0Ljs6yu1zZ8/Gep31cL58GedtbGRaQUPX9ibD4l78sLi/HLmRaw6qQ9+6xxp2VzyRkBCLxPgIpMSE4U5IIGxW6sB3+z6cW6WLe5HhuBEbgbS4SNxMEM78ggN01upDZ80WXLK+gCQhymlRkbgVH4ubMTHwcfGF5Sl7+F8LRdL1GNwIDUP6VW8YdhiK1bXbY0X7ATi1zggHV+kg8LILQt18EODsBi8HV1iYXsKm9UexWecAzhw6p1zp68HizpRkHO0d4OLsDB9vLzgLBx/g5y8E1RGRwpE7CmFNTkrG2bNn4O7mjrTUNMyeMRNbt+hjYP/+cn/zs+ZiX2/5mdEeFvfih8X95ciNXHOYHjuHCQPnY920VdizeB12L1iJHTMWYN+0+VhQtyX02/XDnNrNYTB2MjaOnoTVQ8di1ZDxmNZpIHrX7YwutVtjdOuuWNBrEBZ0H4C53fpgbvfBmNC8L0Y16ocpbYZhdtehmNtRHKdVb0yt3xFjytTCgUHTMK5KYwyuWh/zuvTHjPb9MbFVL0zvMBhDGvZF26qd0blGV/T5s0uBFDWyuDNvCtTvvFH9Blgwfx4WLVigpBYtIcEhKFfmV2Wt9MPiXvywuL8cuZFrjp2b9qFjrT4Y2WIIFnUbg2W9JmJexxFY3m00RpVpgBl/tMXo35tjZaexmNduBJb0moAFYtuYpv3QpUoHdK3WFSMa9MWCLuOwuJvY1nkMVvWfjjmdx2F4s0FC6KdiYc8pWNh9DOa0G4IFLQZg7C91MbNsPWzsMhQbRk7HvO4jMa3raMztOxVTu07ExK7T0b72EHT6axj6Nxtdovu5FwbPxP3ee8h9bpmi5/btjIFqbt160QAwNSVF+UQjuT3F3bsZrcq/+/prPHr0CA8fPpRVBaWRpUuXyqWtra1cMsXHmyrunTp1wmeffaZxW06RG7nm2KW7B93+7IvRQojntxuKRR2HY2mXUVjWYSjGlqmPxdXaY/QvdbCpyxgsF2mruo+GTr9JmNK0NzqXb4bOlVpj8J8dsETst6j1ILGfeDHoOBLzWwzG+Eb9Ma+1+Nx6oFj2xrK2/bGsYVdsrN8Dniu2YW6HfuhXri7mthSOvmUvzOo0EOOb9cHYVoPRpnJntKjcAQMa9HnrxP3Rk2dISHuorDFM4TN29GgMHjAQUydPRr++fWG01QB79+zBsaPHcO7cOVT9o7LMN37MWBgbGsnP3339DYKDg3HowEG5XlrR9PsycmRGY0am6HiTnXvnzp3xr3/9S+O27CI3cs1x0OAAhrYYhrk9x2PnhLk4MH0xTBaswoHJ86DTtBv2dB6ETc0648J6PVjp6sNisyHMNxvg8KpNmDNoCuYMmwrjpavhduYsPM6Yw8/aBj5W53Fh70mcMD4Cp+O2CLnghFCHS4iwuwSfo6ewo89obG3eFwdmLMORBetwwzcYKUHXER8chNjAELi6BGCj/glsNjiJU6ZOypW+HizuTEnH3dU1T8Xs69etg4+Pj7IG2WL+wYMHmDVzFu4/yN/470ePHIXdBTv4+vjK+vv0mzcxc+o0uW3Htu2oVrmK/Fz2lzLQ27RJfqYW+yOHl+yR96hEgX4o58+fjx9++EF2J1y9ejW6du2KmJgY1KxZE0+ePMEHH3wAAwMDfPXVV0hOTkbr1q1LbWlEaeVNL5Zv0qQJPv74Y43bNEVu5JrD9Vow9h6whYODB5IiI5AUFY7E6HDcCLsOJ73tuL7fBA7rtyDN3w/J4WGIjQhFbPh1eDq7wXDzLuwwOgwb6/OIFfvFx9C+oYiPioLHNR+cOHMJzlf8EREeKSIYCTERiBf73wgIhHHf0VjduCe2jJ+NhNBQxEVHIi4xGuFxkXD0CMY6o9NYt/UUzp73VK709WBxZ0oDLZs3Vz5lj4lw09euXlXWgJnTpuHe/XvKWv44YXIcly5dQoC/PyyEuN++cwfzZs/B2JGjpCA2adQYd0UauVzqkkfjsX//7XfYtGEDzpidVo5SMvnll1/k8qOPPsIqce1R4veJYvbs2Zg1a6YU8b/++kvm+fnnn+WyV+/ecskUHW+6uP/0009o0aKFxm2aIjdyzXHRyR/rjM/g9IWriIqPRUyCEPikaKQIgb8gRN3LYCcsl6xEuhD7xJhIxAgBjo6NlDNSrVtvhI1b9uLoqdOIEvvFJQuBTwlHTFIM3Dz9ccryMpxdgxERHZ8xZ3t8JBLEvumR4bDfeRAr2gzC9slLZUv7pLhY2Uc+JikOjq4hWGt4BusMhLhf9FCu9PVgcWeKEwtzc1nM3bxxE6Snp+P7b77F0iVL0LhBIyycNx+/KqLy689l0LpFSzlRC7FsyVJ0bNcOcXFx8Pbygt7mzWJ7C7i7u+P4sWM4sG8/qlSshIePH6FOrVpITU1Fpd8rYI4QLjoHsUC41r179qJe7ToIFS/Smti7ew+Om5jIkdq2GRvDytIKW7fqy5Hv5s6ag1MnTshW/Ab6W7FFXAPVw+usXSu3LxfXGB5WMINNFQYk6iniemlyGFq2b98e+vr60qH36dMH0dHRcnx5mhjnf//LmNqWXD5tZ4qON13cGzVuhC+++ELjNk2RG7mLu3MQNu6xgtnFa4hIECKcHCu7xCXFROOiwXb47DoE00UrkBgUhAR6402MQ0RMDJyueGC1zjbobNqFY6anESmEOzY5TuwfjQgh1DQU7eHj9rB3DkRoTDzi0hLlnO3XY0IRHnodgeLlYOdiXRjMFm/SYaHixSIaoeIYIeLHwt4jDGuNLbFevHSYs7gzbwAVypWXg9PMnjlTrpf9JaOl+U/f/SCXTRo1ksvWyuxkZcv8Khz6Ueht2oz163Rw+fJlVBYiTuzbtw8hwcGoULacXJ8ycQIePnqIGdOmI/3GDXRo21amd+nYUS6/+fIrufz1lzJy+bZBzv327exHCFSne6XieaIg2vgw2vOmi3uHjh3wz3/+U+M2TZEbueawv3odunvO4YSNN8KSbyI6ORVxicmIiU6Etf4eXNl5FFbrjRETFIHQuBSExScLoUzARVd/rNiwFyvWH8SuI1YIihHpcakIiE6GT3gqLrhGY+fxKzh7ORzOIWlwCk7AJd84WF8LxcnznjC3dMa6FTuwYqExLOx8Yel8HWccAnH2UggMTdwwZtkpDF94DIuMLyhX+nqwuDPFyZeffiaXt27dRGJCIsqVyfgu0qA0RJNGTeSybavWclm7Zi2cPX0GZqamcv3A/v2yvpvYt2+v+P8Zjf/95125PmnCBLmcPnUabt28+ZK4/y3+WVlaYqPuBlkv/7aRfjMdkyZNQlpampLClFTedHGvU6d20Yr79uOXUbfPCrQdtRkTVx3GxOX7MGrRbkxevBvd203EsF4z0b7hAEyZaYS+k7di4MydGDB9O7qP10f5BmNQpeUc1Ou6GN0mbMGA2TvQS+TpOckI3cYaolHftegw0hA9p+xB57HG6Dh+m4y/+qxGr4lb0az1VNStPwoDphmiq1hvO3oTOk3YjsYD9FCh7QpU6rgUtXvpiDdp5WJfAxZ3pji5esUFtWrUgP4WPSQlJqJ5k6aIjYlGy+YtpAvv1KGjbCTXq3sP6K7Xhb9/xgxx7Vq3Qcd2HaS79PPxRf26f2Hs6DHQ19six6Gn4wzqPwBHDh/G4IEDYXryJLp26oyggAB069IVbu5uaFK/oewXX6Fs+bdS4JnSwZsu7tpGbuSaY902a/zadC4qd1iJ5oM3ou3wDWg1RAetBq1Bk8bj0bHVdNSvPhSdey1H434r0EJsaztyE5r0W4Nfa49G2fpTUaHxJLGPLloP34zmA9eLz5vRauhm1Om+Gg37rkeTgbpo2G89Gg0Qnwfrola3FeKlYC7+qDkENeoNQ9Oey9B0gA4a9l+Nen3XoWqnZSjbajF+aTYHVbuvUa709WBxZ95GqIi5a+cucvaz48eOIzn5RZ91hilJsLi/HLmRu7jvsMHvbZehZi8h7GON0H6MATpP3I6+U7ajtRD2Pl0XomWD8Rgx3hjdxhmiz9Rd6DVlh3DmW1GxyRT83nwmqraZic4TtqLTOH10HL0FbYZsQNuhW8QLgA5aD9VDt4k70GnMFnQZuwV9p+1Ev6mGaNJqAlq2nowWLcdh0DQD4d4NMGTudoxYtB+dxxuiZve1qNtXB+3HGhRIHVhpEncqSo1LZYfFFAyBQYGwsbJW1himZPKmivunn36KTp07oXHjRqhQoYLGPJoiN3LNse/UVXSfuBND5h3CpsOXsfWYPXafvQYT86vYuNgAOxdvx7oxq2B9xhnnXIJg4xIMu2sROO8chpmLd2Lu2qNYsO4gnHzj4OyfiGtBqbgafAO2rnE4ZRsGc/tIuAbeQEBsKkLib+J60m2ERyVjx4Zt2LZqJ/Zv3oeIuDREJKUjIvkmQpPuin1CsMrIFiu2msu6+IKgNIn7ebck5RPDMMzbwZsq7o0aNUKbNm1k/PrrrxrzaIrcyDXH5WthWCVEdNvxiwhNSBUCm4SIxFgkxETDad9BXDHeA+uV6xDj7omExDjEp8UhLiUFkTHxWKtjhDWb9kFXbxeik1MQm5IqtiUhJjUBvqHRsLrgL+eL9wuPRUxyAmJSYkQ+cYzoaOzR2YI9a7Zi50pdpCYlIkHsk5SeJPZPhLWDPxZtOIHV+qbiJcJXudLXoyjFnYa0pAEytIVa6zZv3hwugVlb9lL3HYZhmDeVN1XcafAaVdwp2rZtqzHfq5Ebuea4eDkQSzaegMERS0QmCWGmOduTYnAzLhpX9u6B4wZDnF+2BlFXriA5KRbJN6KQnByDmLhIrF2/FWs378bmrTtkN7i41HgkCPGPT45GcHg0ztn7wtbJCwERkULUIxF3IxaxN8T22HDs1lmPfWs3w3jpSqSKY6WmxiFRHDtW7Gtx0Q1rjE5jrdEJWDm5Klf6ehSluFtZWSEsLAxPn2aMD//s6bOXuuJQP2eCqhtoAA1qLKXmpWIbl8A7uH8vY4xvgvYdPHiw/PxqFYV6LIZhmNLMmyru7777Ltq1a/dc2L/99luN+V6N3Mg1R0h4ohBTTzi4BogHm47bd9NEpOLBjWREOTkjxOI8vI+fwe3r4bh3IwV3b4ntd9JwIzUZlmLbORtH2Nk64PbNG7gj4t4dsbyVjqSEFAQHRyMoJBoJCclieypup6eIPKm4l5oC13PncdXcBh6W53A/TZxP7Hs/PRV3bqQhwD8M5+zcYX7OGcHic0FQlOJuZmaGK+JlSE9PD15eXqhXr54cW5iggTQcHBywfft2fPnll3LSjWrVqsHZxVmOBPb777/DL+ZvWJmfkn9gOg4do3z58nL/gQMHyjdBGoyEXP7EiRPldoZhmNLMm9ygjoYzJnGn338qhaXQlC9z5EbuOd4SSNxbzi2aKSotLS3lUIO3bt2SXY/Wrl2LvXv3yrm5SZwJEmY3Nzds0ddH/fr1MWfOHJlesWJF7Dnlikf3b8p1etMjaCQtgsSf0sjBT548WabRqFsMwzClmaazfnpjxb1hw4ZS3EnkO3bsiDJlymjMlzlyg8VdITDaC+0XVETTmT8WaEzfljFMaGZGjRqFo8eOyj/QiRMn5B9z2LBhclrJKlWqYMnSJUhMTJR5mzZtKuvnPTw85PSZ7733HvxiMya7oMktaAxs2oeGw6SXAxq+kF4MgoKCUKNGDXz33XfPi/Q1UWPcBxqvm4ODg6MkRdt55ZF2q2gaE2cW0aIItd49L45djdxgcS+FXPLS7MTPnz+PY8eOyfr8w4cPK6kMwzCMNmgS08KOBg0bSIGvXLmyxu2vRm6wuJdCshN3gia3UMfCZhiGYbRHk5gWRVC1a6dOnfDvf/9b4/bMkRss7qWQnMSdYRiGeT00iWlRxSeffKIx/dXIDRZ3hdiUcCw/OBErDhVsHLDVV86QO9QyPi+o4p6YlIht27Zh1qxZcj0/zNs1TON1c3BwcJSkWLp/HO4oDYkLG01iWtIiN1jcFai1fNcl1THNuG+BhuHZlcoZcoZaw+/ZswcXLlyAiYmJTNu1a5cc85u6u/n5+ckucsQKfVOEXQ+QLetpfm2CutXRIDfnzp2DqalpnofkHbO5g8br5uDg4ChJ0WlRlTe2tXx+IjdY3BWKsp+7JpydnWVreKpvoS5yBw8eRHJyslwnd06t4mneaeoet1D3KPx9PKSgE7Vq1ZIt7WvWrClbW964cUOmMwzDvCm8yf3c8xO5kW9xV13km0Jxizu1dKdBanr27CnX58+fL5149+7dZR942la9WjXcvHkTZx2C0bFtM2zYsEHm/eqrr+SSXDu9DDAMw7xpsLi/HLmRb3H//PPP5dCoBUVxD7RS3OJOoj1j5gwMHToULi4u0qFTXfqAAQOk0FMXt379+smXqn7jViE0JACjR4/Gjh075PCzf/31F9LS0mR+KsZnGIZ5k2BxfzlyI9/iXpCQK+3bN+tgL0VJcYu7Njj4pCmfGIZh3g5Y3F+O3MiXuNvZ2eGHH76Xn1etXoXy5cthxIgR+Oc//ylHU6PiZBrTfM2aNbLI+Oeff5YNvCiN6ocJmuikTp06cvQ0ulAqCVCHXi0OSpO4F2dXOBogh2EYpqhhcX85ciPfzp0OToJNk5L881//lGn6+vpy6FNKHzNmDH786UeZXrlyFTlEKpH5otTPBgYGmDBhgvxcXLC45w0LCwvlE8MwTNHB4v5y5MZri3tISMjzBl2XLl2SLbaJ6dOnY8WKFfIzuT31YjJflPp548aNsv64OGFxzxu9e/eWJTM0UQ39zc6cOYOu3brh6tWrOHr0qKxeoVHyaGz8adOmYc2a1XJ9wsQJcvx8hmGY/FCU4v4mUCDiTlOTEhcvXnxJ3JctWyY/JyUl4T//+Y/8nJ24k9MvTljc80bdunXl8uOPP5bLjz76SC5pkhqapvbIkSPYv2+/HGWJeOedd2RjwFWrVqFRo0YvzVvPMPmBXhbT09Nl11Hm7YHFXTteS9wJd3d3fPDBB/Kzubk5fv01Y9rUGTNmPC+KHzJkiOymRdB+NEhLhw4d5GfaZ+fOnXKqUq5zzxvFKe409zxBs88RNOscUbt27edpBw4cgKOjI+bMnSMdPbW9CA8Pl9tSU1PlkmG0gUZvLFeuHMqWLQtjY2P520K9ST4X3zlDQ0MlF/Mmw+KuHfkSdyp+v3z5shRs6p/t5OQkR1BTP8fFxUnnPn7CeCnyvr6+yp4ZP+5q/+x9+/bJJUHurjgpTeJuX4ziTg6dRsWjCQ7ob/3HH388L7GhAXSWLlsmZzaiNhTly5eXA+9QCQ8tafpahtEWS0tLWeqTmS5duiifIF8gP/nsM2WNeVNhcdeOfDv33Jg5c+bzOvfSQGkR913mkVi5PwjHLsTC0bvkumAqlXF1dcWmTZtkV0eGyQ805oOmxraZxZ2gXjeffPqpsqYdIVvGwnXUr3AdyaFNuI0pi7RrVspTLHxY3LWjUMQ9NDRUdnmjSEhIUFJLNqVF3NceCkaL6U6oN94ej5/kbfz44oLaWjDM6/Cvf/1L+fQyr4o74e/vj+07dihreSdYdwgeBZ/Es9gLHFpEoul8pDicUJ5i4cPirh2F5txLG6WpWL7uuEuYttVHWWOYNxMjY2NERkYqay+jSdyJ/773nvIp75C43/c+iMehZzi0iPjjM1ncSzAs7gqlSdyX7Q0Urv2ZslY8fJpLEegW/S1YuHCh/Eytm2mAI2LQoEFyyTC5Ua5sWeVTVrITd2rjQy3ptYHFPX/B4p43Xqf0mn478wuLu0JpEveiwscno3Tg7t27eKTMI3Bb+bL16tVLLjPPQa+2iCcCAgIwe/Zs+TkwMPB574pbt2/J5bNnzxAfHy8/E9HR0cqnnFm0aJGcHvd5zJ2bY8ydNw/zcogFCxbkGnTOnGLx4sXZxpIlS3INaoSYU1DblZxCT18felu2aIzNenpyKmGafEhT0LbTp0/LaYKzCxsbGzkqZXZBMxpSr5ns4vr167KqLrsgd05zS2QOmhnx3XfflY02aT6FzEHna9iwYZZ0iq1bt8LD01P5tuSN4hT3JyKS3A5p3PY07Cx8zxngiVhq2p5dPAk7g3DH3XgaYaFxe0EFi3veUMeB0RbqBUK/nfmFxV2Bxf1laGhgGnyIuizSOAb0w0kCTT+21Id95MiRclraDz/8ULaGHzduHNasXSNb0pM7p4lvli9fjmrVq+OZMsQw/YjTtvXr12P48OHyB5r47LPP5EiHNDAO8+ZBjd1yChoUifqsZ46HIt7/4APZE+PChQsvhb29PerXr58lnYIacHp4eChnzhsFLe5Pw8/i78gMYVWXr36G+PxMiO8JowU4vWOxFPBXRfxBpHnGS3GUpdz2LML8+bbMx6KXgMz7ItIyY7/Ui8p6Rl66Lgo13+vG2yzu1MizWrVqz8d1oe7c1HOIJgDT1dWVnwka54OCfk+pizD9dpKpoL/Prl27EBwcLPOamZnh2rVr8jMtqbs45aEu4tbW1vJY2sLirsDi/jI0Ep0KdX8jypQpI5fUt10dbW7//v1ylDr6chL0mbpJ0mA1a9euff7WKn9sBCTu1AeefqDph5gcGhXx0/7kEhlGhbpbZkd2xfJUmnPjxg1lLW8UlLiTcJ4wnI/tayahRYPquGK2ES0b1sDf0ZYIvLAN4wd1gL3JOtwPMsXEIZ2xetYQ+JwzhOXe5ZgwuBPO7l76XKQvn9LFnDE98NGH7wOJ5zF3XC90afWXOJYVfG0MMbh7c7lEvA2mj+yGEb1bATHWuO1/ElOGdcG77/4HSLuEA5tmokOz2rKEYJjIM7pfWyS7H85y7fmJt1Xct23bhsmTJ8vPVPr1/vvibyQgEVcbEdPvHb24RkREPB8LhKB0KuEk80Of6cWWSkFJ6Al6CaCXVIJ+bzOXhmoLi7sCi/vLfPrZpxgwcIAs5qS3TXojpXpzEm36UtLQs1Rsr04ERGk0F/1V8db533fflW+yNA0tfUGPHz8utweHBMs02kZjHNDbrzp8MRVhU9c5hlGh0Q6DgoKUtZfJTtypFEhbCtK5x107AKOVE3DVbBMs9izDoS2zEXl5Lw5ungVvW2NU/f0XmG5bgMWT+8HH2lCEAQb3aCHF/2+lGB2x1qhVpSxw3xnv/N+/4W21FZOGdkavDo0QaLcNNSuLbcKVn96xSLwUdATibHBJvDTs3TAdX332MXDbCR/TS8HdyzLvHPFiMGdsLzT7q6oUfHL6r153fuJtFXcalfPs2bPK2gvjQqOwviruVD357bffyjRCzUvQywBVS9HvpiZxp7FBqAdIfmFxV2BxzwrVi+fE/fv3lU85Q1/y7KA6eyurjL6yxT2/AFPy+O9//6t8ehlN4k51+/Qyqi0FKe7RLvuwR2cqrp3ejAuHVuPY1rlS3BvXqSzFtnrFXxFsvxN2Jjr47JMPEXxxB9bPGy7c9Z/CeVvJY1Ax/O+//gA8uob/E+J++aQujujPAR5cQbDDLrz7n3fEf5wrOKY/Fz3aNcAtvxNI8zmGU9sWZojHncv4/NOP5LJJ3SrA42s4Kq6jRf1qQML5LNec33hbxZ1KlKiESCWzuCcnZ1xfZnF/1bmrUJsSajBH4r57926ZplY3ESTutH9+YXFXYHEvPmg0w379+2ldnMq8+VAVz/g8DGJDZP7h1IaCK5Y3x9q5w9C7Q0PMHdcbY/q3w4g+raVL37hoFAZ0bopffvwaR4SbHynSNywchdlje4o8bdCyYXXMn9AbzyIt8VTExCGd0KlZbZQR+Z9GmKNO9fLyMxXD79Gdjs8+/gBxV/fLvFUrlMFQ4f5pm8XeZagl3HrFsj8g5MI2TB3eGZ98+D88Ei8MNf74DWd2ZdTva7p+baMkiXt0TN4a5BYEVNpI3zUanIvq0adOnSrTK1SoINse0YRZND4DtS2iCbQo76hRo2Qe+kxVkWlpac+H6169erXcl4r4yc3T5FsEpc2dOxd6enpyXVtY3BVY3BmmZEKNi14dujizuKv1l/mlIJ07CfwzEepS/SwbxIklNYSjYnFEW8m0V/M9Pw7lEcJNLp7WqTGd2oiO9qP91byycV6mfWmbup88TqZjFJSwUxSHuN+6l6asvQwNT0zF5a5uRVO1R0aE2hRR47fMUAt3Ko2kSbRULthdeF7KSd9TGmr90KFDcl2F1ql+naqi1BE9yfmrpZr5gcVdgcVde1KSk5Ek3kxzipta9jlmGE1Q8eUflSvjd+FmqAizevXq0jFRHfuOfIxKl5mCFPe3KQpD3MnhZhfdVlXDiLFDNW6jom8SToqqVasqRyt5vM5LqLawuCsUpLj/44O/8FXNsfiyRumJj34fgLh47SakMTtxAvGxsYiJjNQYCXFxsLezU3IzTMFAjTup4VJBTfnK4p6/KA7nnn5H828U1VX/9ttvctKykgqVNtGU2TTQUlHA4q5QkOL+UdluaDnDWY4BX1qi9qBDiE/UbiIaEvdU4d4T4+M1RlpKCos7U+IhcX/gfxRPI61eL6KslTpzDdvyEU9EyOL6V9LzGwV9vISTc0pMnfvde3eVT4wKi7sCi3vJE/ePh57AV6NOyfhSxGpTfySmP8CHQ45npI08hU0WQfCPvvU8L6WdcY+FX3Q6vhh5UqZ9OvwkrL0ScMEvEZ8Oy0j7TKQ5B6fisFPk83yfiGNEp96D8fnrcp2CzhUj0nTMAuSxKe0jke/ew6eYvs/jeb7/DsyYsnjgFufnae8Pykjru/ny87T/KWnNl194nvZO/6MyrdJ0i+dpdD9EtVlWz9PeH3Rcpv08/vTzNLpm4v3BGc+E4pcJp2Xa18o6xQ/jMsYhUJ8dBR2b+HefI8/Tmi21lWmZ8zUT10rQPappQwxdsqRN2euGB4+e4QPlWuhvNvOAJxJu3MeHma7v96kvuhGVBALXDYTntCoiqr1WXJ1eC/V+/gg+MzRv1zauz62J9/79T4QvqK1xu7YRPKcGPvzPvxBWQMfznFoZyZcyvrtFQUlpLV9aYHFXYHFn584wr8OfderJOtWnBTRZo7unlzyenr723fs0EXw9VB5v2YqVSkrpgsVdO1jcFVjcS564zznsBdcwza1jmdLJ8hO+qDWn6OYALyqohTMJJ0Xnzp2V1Nfjgw8+eH7MgoBGgizI4xU1LO7aweKuwOJe8sT996nmOHGl6PqvMoUPVa3UX2ijrL050AQ6NBTzxIkTZX/l1+Xx48fyeC1atJDLzJMs5Ydnfz+Tx2nbtq1cRkRGKFtKDyzu2sHirsDinj9xv5WeLkVcU9y+eZPFnXmJN1XcVahPfkFCg6IUJDTASmmFxV07WNwVWNy1F/ezpqY4a2aWsdQQ5mKbs6Ojklt7vh9rhiOXI5W1/EPjM786xzfNeJd5utrXhYaJpKlKM0PnyG2IXnVM6beF9WcC0GxZRgO9NxEW98KDxV07WNwVWNzz59zJoSclJGiMG6mpr+Xc/y6ghkkPHjx4qZ5x48aNqF27trJWcGQ+B400Vb58eWXtBa+OfZ4gnhPz5sDiXniwuGsHi7sCi3vJq3OnLmQX/TJmWXodaCznZcuWydnpiMxzyQ8dOlTOy0xzz9PgEj///LOcivabb76R22ne+u7du8sxomlu5datW6Nx48bQ19eXw0XScYn79+9h4cKFMDY2lutDhgyRg2rQuekHumXLltizZ4+cdILqZQcOHCjH1K9UqZKcoKdfv35yxrw3nTWm/miwiIvl8wqL+wtY3LWDxV2Bxf3NbVBHI5qp7t3S0lKm0YhWNCkDiTrNRkdzzLu4uODkyZOIjo7GqtWrERkZKaenJWi6W2qMpEIvBJldOLWWJrGnc3h4eMhxoWm6Wxo2lcaH/ve//y3z0Y81nefKlSty/euvv0aHDh3k57fBxXOdu3awuL+AxV07WNwVWNzfXHEnYScHPWfuHLRp3UamNWjQABs2bIC5hTlSU1NhbW0tZyAzNTOVor5m7VrExsZi4IABMv8PP/wg3bdK165dMGzYMGUtY5IHPz8/OROUOrY1OXf1BeB///ufXI4fPx6XLl3C1atX5TqVEIwdO1a2C/D09JTX+ibzxov78YIV99FjC3Ya5ClTpyifSh8s7trB4q7A4l7yxP2n8adx1DlKWcs/JLjLlmYUn5OTJsGdPHkynjx5gkGDBso6eCpmX7duHVavWS23L1iwQNab06QkqtuZMmUKTp/OGP0tKCgIN2/dlJ+JLVu2YMmSJfIzOXAqgqdzUKO6QYMGyRmkqAHfiBEjsGbNGlliQN2bKA9BRf+nTp2Sn99kdE4HoMmSjFHwShI+Zj6wXWf72mG10kpjen7jzLIzGtPzG2eXn9WYnt84v+480qOLZnIoFnftYHFXKAni3myqI5pNc9S4rbCjJIp7SYWEWNN84kzpxWGrA6J9ohEbGMuhRXie9ESsV6zyFAsXFnftYHFXKG5xby5ixf5gLN0bqHF7YUd+xP2McJrU1e2yvb3GoG1OYplfem50gp1vorLGvAksO+GLmiVwhDop7t5C3AOEaHHkOVjcSy4s7grFLe4tRdQZe0k69/oT7NFokgNazXBCw4kOchsFpbed7YzGkx3kPuT0m0xxRN1xl9BULNvMuizzv3rsvER+nXt6WhpSkpI0xs0bN0pEnTtTciipde4s7vkLFveSC4u7QnGLO4l5cPQdzN3mh+jEe4hOvod7D57CJ+yWPCYJP7FwVwDOOCWg+6IrCIy6g6T0h3DyTcUxu1i5jag/0V7jOXKKN7lBHVNyYHEv+ki6noS4gDiN2143WNxLLizuCiWhzn3eDn8s3BmATcdDMX6TF45fikPf5a644n8Dnea5YMFOfwRE3YKdRwoGr3aHd9hNXPRMQe+lGS2vJ+v7YJzYr6lw9JqOn1OURHGnKVYPOb7+CHVMyWGrdQi6rXdQ1koOJU3cr9peRXxQ/EtpcYH5E2jnc84o83MZJIcma9z+OsHiXnJhcVcoCeK+ZE8glorYahqGKVu8YeYUj/4rXOEenC6dPbFodwBC4+6i77Jr8Lx+E4vFepMpDohIuAeTi7FISHuAv8a/Gc69oKDBaWbOnIl58+Zh9uzZcvAYCkqnNOrvrqZRzJkzR6bR9szpd+/dVY74Mn///Tdq1qiBsr/+irJlyxZ6/CrO87oEBgbKXgB0r/QMMt/rrFmzMH/+/Jeelfr8KL+aRrFt2zbliKWb1xF3El1HK0e42rnCUNcQKaEpOLTjEI7tPia3mR0yw17DvUgJS4GFiYXMR+tO1k4w2Wsi8xzafgimB03haOkIj0vu+PzTL+DpIIRTOYezjTNWL1wtj7HPaB8sTSxx2fqy3OZ0zglGG4ykQ08NS8XGlRvh6+yLGP8YXHe/LterVa6KtIg0eZ69Bnvltv2G+6Gvo4+kkKTn59E2WNxLLizuCsUt7lTXPmaDJ0bremLkek+M3egllh5yOULHA8PXeUgX333RVZHmiTnb/DDLyBczDH1x885jWWxPrr/1zMsaj59blERxb778Aiw945S1/EGjv7Vs1VJOw/mf//wHTk5OuH3nNu7dvye7rtGgM6NGj5Ld2iid+pq/++67qFmrJm6kp+PW7VuIiY3BJ598jOQUzT8s1MVt2IBB4oOSUAo4If52+/btk9OKli1XDjdu3BD3ehuJSYly2Fx6BteuXZP3T8+KXgToWdGMYrdFPnrRIWGnwYC0YeFRH1SaZq6slRxeV9yXzl0KneU6GDFoBE7sO46yZcpKET8oxJRE/NiuY1g+fzmG9BsKm1M2qFG1hhTvTz/5FPfj7+Odd95BuHeEfMZPU5+i/K/lcTP65vPjd2jdQe4/c8JMfPrxJ4gPjJd508LTMG/aPJw9ehZ2Z+zw68/ixU+8g3788ce4E3cHlStUxtO0p6hQ7ndYHreE3ho9IfTV4GHvIQdm8nDwyFJCoE2wuJdcWNwVSoJzz2s0n+aERbsCcPfBE+nY+y6/pjGfNvGm1rmTq/6///s/+UPo4+OjpAJjxoyRaZmdJ03+Qj+yf/zxh5ICPHn6RI4iR3lzEvdBvfsBiRntI0oDZ8+elfdEc3w/efJYSQV++uknmU7981VoKF1KMzMzU1Iyxg6gtGbNmikpeeNNrXPfuGqjcN0O8HT0xOY1m1Hp90q4GXUTw/oPQ+C1QOmae3bpiYmjJko33bFNRySGJMp8d+Pu4j/v/Af3E+6jc9vOuB1zW74c0D50bC9HL6xevBpPUp/IF4Jvvv4GD5Meyud/ze4a1ixeI88V7BYk0+h4Y4aOEdtc0aFNB/mSULniH1g2bxnCvMLwLO2ZdO5ffvElkq+/XlE9i3vJhcVdoTSJuxrUer7hpPy1jn818ivu1CJeU0t5CpoOtrjFnUZ++9e//oULF17MREZjx9OPIBU7q9CodJT23XffKikZw9aS+L3/wfvS5Sclax7nvjSKOxW7f/7558paxvC5VOT/3nvvITbuxY/1ypUr5XPR0dFRUgALSwuZRuPua+vc31RxN1hvgD5d+6DRX42km6aSDyqCj/SNxFdffIXhA0cItx0nHfvOLbvw4/c/4tT+kzKfy3kXfPThR9i9dTca1muIe/H35PM1O2gmj50emS4d/qcffypfFGibk5WTXFJDOXox+OSTTxDrH4slc5Zi2oTpaNmkpRT5T4TLHzd8nMxLxe+0pGPRddHnKN+oLPeiTbC4l1xY3BVKo7irQd3hNKVrE/kRd+rnftnBAU6XLmkMue01+rnTCHXHXmOEOhqznX7A2rdvr6RADvVKaXqbNyspkMPG0tjvNGwsDSOr8u233+L999+Xw9DSCHRJyaXfuSeKly4aSpeeAQ23q0JD5cqi4UyOfdjwYTLf9u3blRRgs3hulKaO2qft7Hq7L4ZhmGHGuPolidcVdz3h1qmoOz0qHTEBMbgTe0fWj5NDvhV9Szpr+kzp5MhpmRqeKpfkrOkF9O/0v2WjN3UfKo5Xj0/7yGOoxw5NkUsqUifxV49P+9A6nZv2uxFxQ25Tt9OSrjEhOEHun/kc+QkW95ILi7tCaRR3ahVvaBYOU8d4WVSvKU9e401sULdq1SrpTkm0SKip3pyE6cMPP8T3338vx3WndEqjIIGjIvjMaTT5C6X997//RUKi5oldHj58gEFdeuJv8YP5LDxJROLLkfhimNqSANWpU33rZ5999tK90ox4dK/0XKjOltI+EsvvvvtOpn355ZcyjdouUPE9pdetW1c5aunmdcSditd1V+jCQNdAiqamPDlFkGuQLNa/ePaixu0lOVjcSy4s7grFKe5UtE7um4IEmwapUQeqoW2NlM/UYp5GslOL4hvQADcznGDvlSL3o6Bt6vG06RJXEsW92iwrmF6LUda0gxrSqa3Ku/foLseIJ2EyMjKSaYSrq6ssdq9evfpLjr1Ro0aynp7GflepV69etnXuD4RzH1CtER6uNMHdFUeyxEMTJyVn8UMT5NBY+lTnTo0HO3bsKJ9LWFiokgOYNGmSTNu1a5eSAtiJvyNNfkMt5FXoZUdbcecR6t6sYHEvubC4KxSXuNOocq5B6bLF+7zt/nJ/Z/80OXgNjUbnK5bPnv0tW8FHJd7Dyv1BSLrxELVGX8S9h09xwiEO1teSMNvYDzvMI+T+5OaJO/ef5rlb3JvWoK5J0yZIT8+Y0IKcOonVgYMH5Dqxd99emZZ5ZrdkcS9ffPGFdKmZxb5JkyYyb07iPrBaYzxcewL3Vh/LEg9OOis5ix+6N4KmoaX6XirVuHHjhkwj1KoMU1NTJQWy0SGl0WQ6KufOnZNpzZs3V1LyRkmuc6f664TrCRxahJepF4t7CYXFXaG4xF3vZCj0ToRh/o4AKeZE5aEXcPPuExy9ECP7uTdQRpy7fe8J/ppgjwePnmL5viCsPxoi9rkMW7dkBEbfwext/pgrXhDaihcGGr2u4aS893d/k8SdZmyjebCpQRyJD4kQdftSoTnbqVi6f//+0uETjx8/li8BVPdJM8epVKxYUe4/fdq0bBvUlRZxJ0ceGBQIZ2fn50Xs9IxUGjRsINM8PT2UFMiub5Q2YcIE2fOAoF4FVDTfunUbOXWuNqw2CxDifl5ZKznYb7GH+UJzDi3DYrEF4nxer7tqXmFx1w4Wd4XiEnfq137r3mOsPRyCMRu85P7lBp6XrnymkS+iku5jp0UEui3KaIREjp3oJ0Q/6cYjjFjnAa/QmzgpHLyjTyoueaWi+TRHRIv9mkzNe0v6N0ncqb6YRJvqyUmYGjZsKNPJje/YsVOmDR8+XKZRYzjq9kXCTvXPMbGxMo1aj1NRPL0EXLx4UXb9ykncB5C4r1HF3QT3Vh55Hg+Ov2i4VlyQiFMJhLOzi7x/ijNnzsh7ffTokWx0qKbRVLj0rAwMDGQavSgRjx49hKWlpUxr0yZjXvw///xTLlWoi2FO0br7QNRs2UvjNipFUV8gGOZVWNy1g8VdobjEnerFJ2/xkQPSdJ7vggmbvTFF3wcTxZK2zzH2k4PWUF07FeFvORUm02nQm2lbfTBdxPjNXrL+nUa4G7DSTQ5BO0nPG61F/sznyinyK+4k4EkJCRrjRmpqkTeooy5rDg4OUrSqVKksi5Kp7p3EvHHjxlKYqlSpgtGjM8SE0imNiqhpbnVKGzVqlEyjFvQkbEOHDpUilpioeYa6Bw8fYEDDNnh6xBEPDl7E/f0X8DQ4Dk+DMuLvuBfF3sUFNaIjwTY5boLFixfLKWtJ0Gl+eapLp5cYuk+6fwp6IaJnQO0RRo8eLdN69Ogh0+gliJ4LdYWrU6eOcobXh0oE6EWDYTTB4q4dLO4KxdmgriREfsT9rKkpzM3Mcgya9jW/VJ9tBTMtGtSR46TubIQcnOXpE/m5c5fO0rmSMFGLcBW10R2lx8S8OM/2Hdtl2v4DL+roaejVHIvlm7XD3+ZueHT6Kh6XoDp2wtbWFrrrdWV1Q8WKFWQa1anTCHQ2Nhl156tXr5bpRGhoqEwrV66skkKu/RE+//wL2Z86M68699xYYuKLarMslbWX8fX1ZXFnsoXFXTtY3BVY3PPn3GmgGnLvmuK2ENSiLJanPtd37t6RrpSEggi5fv35CHM0ProKbae0ChUyxI548OCBXKeW8jTEqsoYpW98jg3qSrC4U5c34uOPP5JLQldXF1999ZW8LxJzlTlz58i0RYsWKSmAq5urTFOL4ono6GiZVpAN6ljcmZxgcdcOFncFFvfSXed+9epVOeraqVOnsHjJYnh7e0vxUYMmglFxc3WTg9PUr/+XHDddpWbNmjJv5mFqe/fuLdP69etXKp071WWHh4dLYY6IiJATxND9qEPyZh7IhoraKe1AphILR0dH2XaBivAfPc4QXmpdTy8G1NhQbc+QV1jcsycuLk62aWA0w+KuHSzuCizuJU/cfxx/GkfzOEIddWGjum91XHhPL0/88ssv6NWrF3788UdZDH38+HE5YQoJGIWpWUYatZ5XR21btmzZ83xUAkBpJGyDBw+Wk6poQop703Z4ZnYNj0664JFJ/qsiCpJbt25JZ33i5Innw8fSyHI0+AwVw48cNUreO90v1avTvZJYq2kU6rOiceXVZ6WmnT59WusR6k67xWLp8YxSlVd528WdBlGith+MZljctYPFXYHFveSJe15ZuHAh3N3dZYt3ghrUqYOrUL06CRY5excXFxn0OfM6xZUrV7JNo6BuZNmOLf/gIQYNGayslRzKlSuHFPE3oEZxBDUepMF8CBJpGtDn1XulZeZnoN6/pjQ3NzetxT0n3mZxTxbfLfWl6dKlS0oqkxkWd+1gcVdgcS954l5m4hmY5OLc79+/L0eUa9q0qWwURw6zbdu2ytYMce/QsYOyln+ojjpbcRfOfdCgQcpayeD8+fMwNjZ+/sLTq1dPHD58WH4mqGSCRp17XbQVd3Lt1FBSE1Qd8raKO/XQaN26NRo1boR27dopqUxmWNy1g8VdgcW9dNa5k0OnPujkSPfs2YMBAwYoWzJ4W8WdegE0bdpENgxs2bKlHG42M8Ul7lznnjPZfccYFndtYXFXYHEvfeJOI62NGTMaHTp0hJ6eHqZOnapsecHbKO40/jtVIxw9elT2Q3dyytoGgMW9ZJJ5ul3mZVjctYPFXYHFPX/iXphd4WrOsYaZa/Y/dtQIjgZnWbp0qQxNvG3iTn3Zqa6dWvdTXTtNDqOJ4hJ3G+8EbDIPVNZehsWdxT0nWNy1g8VdgcVde3G/dOECrM3NYW1hoTnENi+PF+OUFyTUD/u9997D0GHD5Fzr2fG2iXutP2vJIvk/KldGcHCwkpqV4hL3h4+f4s79jMGFXoXFncU9J1jctYPFXYHFXXtxL2x+GGeGo5ezNqijcd+pVTH1tc7cJ1sTb5O4Ozk5yefy0YcfISoq54aIxSXuOU35yuLO4p4TLO7aweKuwOJe8sQ9uzp3Km4mEaNJTnLjbRH3AyY2ePfd/8jnkpDNGPiZ4Tr3kgmLe/awuGsHi7tCQYr7O9+1RtWexqjaw6jUxG8tlyE+IUW5g5JBduJOAmZ3MW/ClBdxpyliLSwslDXNaCvu1tbWsh94UfHRz63kc0lNy9sLWl7EnSbhyTyvvSa0FfdVQtz/WsDinh0s7tnD4q4dLO4KBSnu9+49wL37D0tZPChx0222WG4HK894Ze0FeRnkw8vLC8uWL5efO3TIWdxTU1MREhKirGlGW3GnPvdpaWnKWuHz/g/NxItMzkJM0Mx3ly5dlMOc5ibuNjY2uX4ntBX3S/5JMLa5rqy9DIs7i3tOsLhrB4u7QkGKO1O41KxRU87+RkPNVqpUSU72Qq3my5YtKxuTlSlTRk5LSk72k48/lsPI5oSHhwdMTEyUNc1oK+40VCuN5lZUfFKmDf78s5Z8LpUrV5bjvv/+++/Pnws9EwoaU5+ey/fff5/rS9LYsWPlTHs5oa24p915hKiUF+P5Z4bFncU9J1jctYPFXYHFveTx84TTOKZhhLrMI9BlB00cY33unPycW7E8jcEeH5+1hCAz2oo7DfuaeWa5wuZ/3zfFrt07lbXsWbt2rbxXGtQmN+fu4Zl7TwdtxX35CT/UmmutrL0MizuLe06wuGsHi7sCi3vJI6c6d5rMJS/kpc6dWpnT6HY5oa2401zwRTlG+DtfN5bPZcPGDUpKzuSlzp0m3Xn8+LGyphluUFewsLhnD4u7drC4K7C4Fy55cduvkp240+hrJGRNmjRRUrInL+JOXetSUnNuTKituKenp8tx74uKR4+fyuqJf/3rX1i5cqWSmj15EfeAgADlU/awuBcsLO7Zw+KuHSzuCizuBQdN4vIqQ4cOVT7lnabLLsDSI05Zexmaj7yDcO81atZQUjTzNvVzT7+ZLl96unfvLmfKy4ni6grnG30T1l6aq0BY3Fncc4LFXTtY3BVY3DXz73//G/PmzZMNsVSoGPs///mPLBqnccz37t0ri6BpxDhqef7+B+/j+vXrcoar/fv3Y/ny5XLWqxkzZkjxKQho1jM61sGDB1FRONbseJvEnZgwYQL++9//yvnbZ82apaRmpbjEPeX2Q0Qk31XWXobFncU9J1jctYPFXYHFXTPqvOg///yzXKqQcBPvvPOOXI4fP06KO/HpZ5/KZf/+/eSSGDw4Y77zmjVrymVe+HrUKRx2ilTWslKjRk389NNPCAgMlC3BNfG2iTtBz4Ray2/fvl1WYWiiuMR91Sl/1Juf0dDxVVjcWdxzgsVdO1jcFVjcNUPdzYgvv/xSLlWoixXRs2dPdOrYCdHR0dJJ37x5E++++y4iIyPluqOjo5yStW/fvjI/dV3LK7nNCpeamiJLD6irF5UYfPfdd8qWF7yN4k7d8KiUZNy4cdi3bx+GDx+ubHlBcYk717nnDIt79rC4aweLuwKLu2YSEhJw48YNJCYm4uGjh0oq5FSimcWBJikhgSeSkl6I4LVr1+SSBnVJTk6W3bBo5rK8kJu4E6NHj84QsBHDZfezTz/NKDVQeRvFnaAXnmnTpsmXqyNHjqB3797KlgyKS9xXnvJDXXbu2cLinj0s7trB4q7A4p53SLDJuRf2iHb99C7jor9mQc3MTz/+KOuXbW1tZcnB++//T9ny9op7XFwchg0bJqtTqDubmZkZOnfupGwFTp48WSziHhR3S45SpwkWdxb3nGBx1w4WdwUW99LL6dOnsXv3bjm/O3U/o6AGfwRVD5T/vTzWrVsnB3DZtGkTNmzYgDVr1jyPjRs3yvQ1azPWV69eLfNQGu1Haa1bt0ZiphKJzJC4Dx42RFkrOXTt2lWWoqilGVZWVvI+iKNHj8pGjnRv9OKSca86z58J3Tel0TY1TX1+9LxofYNYqm0y8kpk8l24hmoelpfFncU9J1jctYPFXYHFveTxYzZTvmrit98y/naffvqJXJJjpzr/xo0by3r5iIgIHD12VKY1aFBfjiUfGhoqqwn+97//yXR3D3eEhYUhJjpGlkxQGk0oQ2nUYyA75/5AiHu/byrjdodluNF+Sc7RdjEemF1R9ix8fvzxRzkxTr9+GY0bya3TfdHQslRcTy8/NF4Ape3bv08+EwrqhUBpLVu2kD0fKM3N3U32nvjiiy/kMaka5s8//5THzSsrTvqhzjwuls8OFvfsYXHXDhZ3BRb3kkde6txVqEFdmzZtpGhTIz8SI6p3JoHq1q3b8zngv/76a2UPyBnPfq9QQaaHCwFXOaAIG7U2V1m8eHHO4v59VdzpuQbp3VflHF1X4OFZV2XPwodKNKhIftas2bh48SL09fXxwQcfyPu7cuXK8zngM/eLj42NlWk0/rwKjTH/zTffyBehzGgr7tygLmdY3LOHxV07WNwVWNxLHtqIOzFkyBAp6osWLXpprvdy5crJkds6duyopGSMJ09996n4nj6r0AxyJGwkNCpURE9pySmaf1hKsrgTX32V0dOBugtSFQJhamqKWrVqyfs6p4zBT9DLAKXRQDgqNHof9YAoK56j2s6CGld+/vnnGgcsyglqUMdd4bKHxT17WNy1g8VdgcW95DF1rzuuhORtfnIVtcseFatT4zqCxKpjpxfCTi33adY46gueWdgnTpwo89LAOyqGhoYyjeqWqbW/Jkq6uEdGRmDgwAGyquKrr76SaSTodF/UTVHl8OHDMo0GwlGh6gwS8Ro1ajyfIe7BgweoWaumbKxH1R7aQDPCeYTfUNZehsWdxT0nWNy1g8VdgcW95PHk6TM807JFvrm5uSx6Jn755WfpQP/5z3/KPvBUL0/jr9MgOyRiH3/8sSy6J2dPA79QGgWtU161WJ/iww8/REJigjzuq5C4D6jVFA83n8E9A/Mc467+GTzxDlf2LDo6dewoG9e5ubnJbnGqa6d7pWly6WWISjco7ZdffpFp9Kw++eQTmfbZZ5/JZ0LTyFLVhvpM6tWrp5whb/hE3YSlBw8/mx0s7tnD4q4dLO4KLO4ljx+0aFCXGRJqajFPAkRBde4EdQmjbSRU/v7+Mo2glt+Ub+qUqUrKi4ZnLVu2lOubN2/OsSvcwP4DgLsvxgEoiZA4Ozg4Pn8u6nzznp6ecv2vv/6S6wTdE70QUeO50LBQJTVj3gCqyrCwtJTr+RqhbgEXy2cHi3v2sLhrB4u7Aot7yUPbOncVKo5v1qyZ/Dx23Njnde1UtEwiRo3uVKZMmSLTjI2NlRTI1vGU1q9vP/wt/hEGBga5iHt/4PYDJaVkQlUMllaWssEcOXaaD+Dxk8eyBXyjRo1eEla1t0B4xItShj59+sg0cv8qPEJdwcLinj0s7trB4q7A4l7yyK+4EyNHjZTdtQjq6lW5cmVZH0+j7amoYrVz104lBTh16pRMGzd+nJIC6fKpaD+7BnWlRdyJr7/5Ri6pQR1NDUv3mnn0Oqpjp9b033777UvtEdq1ayefAQmwCo2A17BhQ2Utb1BXuNrzrJW1l2FxZ3HPCRZ37WBxV2BxL3nMO+wNtzDNA57kBWoIRpCAUVFyZuFo1aqVrGOmvu0q1DWM8nbu3FlJofr0BzIfTTGbo7gPGADcK/nC5B/gLxsOnrfNmFWvSpUqyhbIUgpy8dQWITMNGjSQzyA87IWLpxIPyquWkOSVm/ceIyFd80sQizuLe06wuGsHi7sCi3vJ43E+GtRlZu3adVLAqBtXI+Ewq1WrJlu9UxoFuU4qqqe+2v/+179lGjUiozyUV204Ri8JNBhMtg3qHjzAwA7d8Ld7OB67huKpn/btBIoStaEgdY37q149ea/U8p3SPvroIynmVatWfelZUbF99erVZb28mkbPj+YY0IZroanZtqNgcWdxzwkWd+1gcVdgcS955LdBnQoNPEMi1KVLFyUFqF+/vnSc1tYvioZpFDrK16JFCyUFchIaeimg4mlqiJdTg7oHD4Rz79Ad8AjHE9freOKb/TS1xQ1N2kNCTfdLA9gQ1PiQBqehYWrpRUWF6tP/7//+DXt7eyUFGDlypNx3i/4Wuc517gULi3v2sLhrB4u7Aot7yeN16txVqN6Y6ouJESNGSGE6euyYXCeOic+URv3AVdLT06WTp7nnSdgJPT29N0LcVeh+Lly4IAelod4D1PWN7luFhqul52JmaqqkZEyeQ2k0qI8Ki3vBwuKePSzu2sHirqCNuFPXISqSpG5BNOAJDQ6iicSkRNkPmKYkLamsWLFC/mCXRApC3Em8aFjaXr16yXp3d/cXdew0QQzdOw3aoo685ufnJ/t2U/Gz6mKThYunLmHZjlBXCsX9xImTOHT4sKx6oMaGd+/elek3b92UxfT//e9/4eXlJdOIuXPmyGdlYmKipEB+9zN3n8sLy074ouYcK2XtZVjcWdxzgsVdO1jcFfIq7uRuMs8Z/t4rY22/Cr0A0AQdBQkVNxckJVXcN5oHwTc6Y5S5/EKiTfdHQW50/vz5MqghGKXVEc6TxlWniWEmTZ4k0+glQE2joHpoSs/Jufdp1xkIjBPCHoWnwZoHaSlJqL0CKObOnSvvk54LvcRQ2uDBg58/K3qRpbRWrVrKdcpLM85Rmrazwt26/xiJN7lBXXawuGcPi7t2sLgr5FXcybW/8847yhrg7OwsJyBJSEh4Ptwpfb59+7b8TH2sT5w4IWcfy1zs+Spq3+vAwEC5VKFjqV26CBo/fdy4cXKiFCpyTktLk9276LM6PCqdR3Vi9GPp7e0tP6tQdyeCfkhU8SPUY9EkKyWBxPQHuP/oqbKWf2hkNno2rwbVq2dep78f/Z0yp6mRmJiIZ39rLqEpjTx6/Oj5vdFzoKDv1KvPJLfI6TutCYeAJGw//2JQnMywuLO45wSLu3awuCtoUyxPE46QINKgICrqwCcEDfKhfqZuVT/8+KNsgUxp58+fl+mZadW6lexqRUOCUutjdc5tEnFqzDR/wXzZYpu6XI0ZM0b2S6biZToeDb5CP7L0WR1chIYFJaGmOlVyqDStJ20n4aL96TO1hqZ+ywStE5UqVZJVCCXlB/bXSWdg4lI4Lc/ppebV6hR6sdK2DvlNgPrxU9sC+o6OHz9eSc0fNOc7tWPIjlWm/vhrAde5ZweLe/awuGsHi7uCtg3q5ih1kNSiWkUVSRJh9TM5dyoCJXbt3iWLPQly+xQE1e2q+WmObHVaTUqj6UtpfHS1KoDqyGnwEIJaeVPXLYJGFJs+fbr8TA3HCNqfWkcThkaG+OGHH+Rn9VyE6tw7deqEmNgYJbVkkNc697i4OFmCQg2+MkMvRlSHrooNibc6UQp1B1OrSzZu3CjnLCdouNlXj5Md9LeiY6ulLUuWLJHL7KA6fhJRHR0dJUUz9DcuTOilRm1jQIwaNer54D70XPLK0qVLlU8Z32GCnD9NQKNOMvMquTWoy679ytsCi3v2sLhrB4u7Ql7FnaYUVX8Y6YeIiuhVUVVF81VxV0WExIAGAyGhpe5YFPRDmFncaWjQ9957T37OLMIqmcWdoDz0Q0qOiT4bGRk9/6GldbWI3cPD4/nxMh9XFXd6SaHqg5JEuclncdwld3Gn+23btq0U8swNvoYNGyYFgwasoSJ3qkc2O20mZ0QbMTLjBUid1UydNY6GZaW/q/o3zQ56MVO72Klzmqst67NDFbzML4SaUPPNnDlTLguSgIAA+femFxr1JWP9+oyllZWV7PevQtUQlJfq2dXvDJVEkcMn2rdvL49HIk/VSpSHqoeo9IleSKlE6VWWn/BDrbmaR6ij7/74CeMxbfq0tzImTpr4vDqNyQqLu3ZkVY+3lLyKO/2YZW79Pnv2bNkgiVB/AKmeXP1M84Orzn3nzp0aRYOKIjPvm1nct2zJ6E88YMAAKcTLly+Xo4OpQ4Oq848TNJ0ntX5WoZHG9LdmzJB29uxZ9O3bV35W86vQuiry5LxKCoedIhGWmFHykBv0TKidA70sqVC1Bgnu6dOn5ehqtevUhqurq6yu6D+wv8yjjmJ3Iz3DuapiT43rcoOe18GDB+XLAFWDUIkLOWDqG09VKzQSXP36f8k89FJIg8YQVK1DUEM1aplOz55eEKhVP1X10IA5VMVCrfaPixcutSRHG1edEzQYDTFo0CB4eXvJfu4qVLpA1Tgq9LJDqM9l9JjRsmshXbM6bK16fQRV/Rw4cACOjo4ICn7RVkTl6bO/8ejJ2+3OmfzB4q4dL//Kv8XkVdzJCdKPI/3oUZE5zQmuok5Moo7ZTZONnDx5Un4ePnw4mjdvruR8GeqmRXnIOatifcHuAq5duyo/U5A4E5mdF0EvA5MmZQgRjRdOE4OokLBRvTo5WJoRjFi4aKHcnwYjIei6aJ1eWNTr37t3r9xW3ATE3pLDleYGiTVd++7du+V48Sr0IkVF5WqLbio1GTp0KBo0bIBdu3ZJ500NJKkEhZ6Dj4+PrP6gdhGZHWxO0N+OpkglaEx2Qp1TXhVj1emq1SKquNPELTTuPTX4y1zE/Y0y/ju1gSCo9If+lps2bZLrrwOJMl0HLen+6XkQwcHBslqGXogyo14zzaZHDe7oe0MvJPR9pJIQ+s71H9Afy5Ytk9dJ30eacpdKATJPMKNy1j0OK0/6KWsMk3dY3LWDxV1B2zp3pvApM/EMTJzz36Bu7NixyqeCh9z65cuX5Wd1LHZVtFVxp3YQBAk4oQql6nTp+qhoPDo6Sla3qPXN5PwJejmgse1JiP/973/JtNdFLfKnqiOqWsg8kY7a7iAz1KaDGouqqCVGr0JVTgRVkdCLCJVG0TleJac6d4bJCRZ37WBxV2BxL3m87iA2R48ela6+MCDB3b59uywVIddLdfpUmkLF77SkNg40khtNRkMN9Ki4mtbVfCSS1JeeSgsoL+Whkhty8eoIcNT4T20/oVapFCVU//vHH5WydM98HVjcmfzC4q4dLO4KLO4lj4IYoa60Q+L+3XffPRf50s5iEx9Unfmi6ohh8gqLu3awuCuwuJc8bLwTCmQQG4ZhSj8s7trB4q7A4l7y8Ii4gS9GnMT3Y83w3RgzbLcNRWDsLXwz2lSm0fK0ayxcQlLw1ahTz/M5BSfDMSgZ347JyEfbrl1PwwH7cLE9I+2LkadkS3wjmxC5D6V9KdLuPHgC3bOBcp3ik+EnkX73McbtcH2e9qlII0Ztu/o87YPBGV3wem1yfJ720dDjMq3BovPP074YkdFzomGmtPcGZvTDrzTd4nkaXTOhrlOUmXBGpv00/nSWfHSdatofMyxk2sfi/Gpao8W2Mu2zTPnqi2sg/jfI5HlaN11HmfbJsBf5xm6/hidPn4m0F8ebstddtnz/OFPa8pN+SLn98Pnfgp7/dtvrCIm/Le+b0mjbxF1ZG9oxTG6wuGsHi7sCiXvLOb8qa0xJIEz8P45OBaKUeKyYeHWdQh2KJTJTmoq6TtsIoU9Z0qhg4NU0oe/P0yKUnoE372fKpyFNzZd2N2ta4s0Xaeq+mdPCld+r2BuZ8okg1HWKmLSMtGixfDUfnUtNi1PayGVOS1TawdH51bQEZdh+Or+alqr0PMy8L93nq2m3lVqCzGlqxwa6Jh/7WUMAANl7SURBVDVN/ZtlPi/dJ8NoS9OZP7G4awGLu8L1OD90W1oDzWf/wsHBwcFRwqLL4qq4dU+8HTJ54h/UEpYjEP4BfnD1vsLBwcHBUUIjIDBA4+83R9Zg584wDMMwDMMwDMMwJRw27wzDMAzDMAzDMAxTwmHzzjAMwzAMwzAMwzAlHDbvTBYCojzQeMYPaDnnNzSfXUYOEcXBwcHBwcHBwcHBkX20EO/NzcWyw6LKSLuVqLxZM0zBweadyQINy9tpcRW0nlcW5leOIP1uGgcHBwcHBwcHBwdHDrHTap2s+Oq3piEPn84UCmzemSyo5p0mzbPzzJiYjGEYhmEYhmGY7Dlgu0XWwLN5ZwoLNu9MFti8MwzDMAzDMIx2sHlnChs270wW2LwzDMMwDMMwjHaweWcKGzbvTBbYvDMMwzAMwzCMdrB5ZwobNu9MFti8MwzDMAzDMIx2sHlnChs270wW2LwzDMMwDMMwjHaweWcKGzbvTBbYvDMMwzAMwzCMdrB5ZwobNu9MForCvLu7u6Nt27YoV64cKlasiB9++AHt2rWDjo4OunbtiujoaCUnU9p4+PAhli9fjrJly+If//gHunXrpmzJnsjISPzf//2fzG9tba2kMgzDMAzDlB7YvDOFDZt3JguFad7//vtvtG/fXpo0Z2dnJTWD9PR0tGjRAp999hni4+OV1LcPeka9evWChYWFklKyefz4kTToFy9eVFIy2LJli/w7Dx48WEnJmUePHuHu3bvKGsMwDMMwTOmCzTtT2LB5Z7JQmOadamUrVKggTV3r1q0RFxenbMng5s2bGD58OEJCQpSUF1DeM2fO4MDBA7h06ZI0jZoICAjA4cOHsXfv3iwFBJmJiIjA6TOn5TURdnZ2OHHiBDw9PeU6QWbS1tYWp06dQnh4uJL6Mjdu3IClpSUOHDiAczbncOfObWXLC9Rrp/sj6Jh0ruDgYLlOPH78GIcOHcIHH3wgn8/27dvh4eGBpKQkJYdmnj59Kp/Hvn37cPz4cfj7+ytbXoZaM5w5e0Zc3x25bmNjI6/h+vXrcp2g66RWEfQM6Th0/rS0NLmNrs/X1xd+fn7yGVFtOZ3z3Xffxb///W/s379f5k9NTZX5t27dKu9j6NChcj3keghOnjoJR0dHPHv2TKZlhp6vubn58/1VaD9zC3M8efpEXgMVapiammbbOoOeBxUk7NmzByYmJggNDVW2MAzDMAzDFB5s3pnChs07k4XCbjZPZrRVq1bS2KnRvXt3uLi4KDlextLKEh9++CF27twp18lMkvGn/bp17yZrbAnjbcYybeLEiXKd6N+/v0z7z3/+Iz87ODjgypUrGDhwoEz/73//K5t3T5gwQRrfnj17yvRKlSqhevXqGDt2LI4ePYrOnTvL9MZNGj83np5envjiiy+wdOlSmUbGkowq5atdu7Y06m5ubhg1apQ0t//5zzv4+uuvZa36jh070L1Hd5m3UaNGuH//vjTVVKBQq1YtmU4GNTExEffu3ZPnexUyqep9bNiwQaZRYcD//vc//POf/3xecEHLYcOHyTQy2t988w369esnr6Fjp45yf/p70HNUCxD+9a9/yXS698xcu3ZNppNpp5YSZPyp2wPlp+budL10L4Rq3j/86CM0btwYmzdvxsqVK+WzoHT1+uzt7TFo0CCZ9rHIS+cgqHCBnhWl0z19//33GDlyhPwe0DOjdNpP/XvQ81O/V3RMIiwsDF999ZVMq1ipIiZPnvxWt+pgGIZhGKbwYPPOFDZs3pksFOWAdefOnUPTpk2luVKD+r6rNdRBQYH4SBg6Mr1krDt27CiNNDWvr1atGqpWrQpXV1eZ9+eff5b7nz17Vq4TVOtKaZ9++ulLNdLJycmyBQAZ2qCgICU1o+b/xx9/lPtQHhX6/M477+Dzzz+XhQ+3b9+Wpv/9999Hjx490KlTJ3ldVKhQo0YNVKlSRZpvgmrv69evL49Jtc4qZNS//fZbWTCh1sDTcevUqSPzvtoMXRNkdKlVAOHt7Y3FixfLY9L+R44ckekE3ZdaKODqmmGOCWrhQAUQdF90PSpUkEJ90D94/wMEBgbKNDrGL7/8gqXLlsl1gmrJK1euLM371atXldQMVPM+bNgwJSUDKhChdF1dXSUl4/nS86TCFNW8E1S7Tn9Xes6Zr48KYOjvUb58eVmIQJiZmcnj0vNX04jVq1fL9D59+igpDMMwDMMwBQ+bd6awYfPOZKEwzTuZ0yVLlmhsCu7j64PffvtNGi0ysAQZWFong58dVFtMUHNvqgWmPvPUHNzHx0fWxJLJO3zksMyjkpKSIvP+45//eKmZPBnUn376SZ4zKipKSQUSEhKksaRjp6WmySbe//rXv+WAe2pN86uoLQIym/fz58/LNIKOTwP1UTP5/Jp3Kqj47rvvZEGGap6pFQPtn9m837p167l5d3R0UFIzCjeoYITuK7M5JqgbAbVY+PLLL6XJp0IKqgnPTF7MO9WOZ4ZaOVD62rVrlZQM807PMifzTk35VSgPtSKgfTIbdSoQoGuh7ws14T99+rQsmKBrzPz3ZBiGYRiGKWjYvDOFDZt3JguFad7JaJNBpxHlHz7K6GueGeqnTMaOarEJMr4NGzaUabQfmV8a0I2gPuZk3lTTSc2pyQirJpKalWcHGT5qGk/HpX7cKtREXa3Bz9y8mprqk7FUa96pqXbfvn1lPjK/1Lxcbb5N10g11C7OGd0AqE99gwYNZN7MhpyOT7X8ZEypeTeR2byTeSaoZYB67MzQfVI+Mtdqv3W6Tqp5pnRq/k7mmp75gwcP8Oeff8r0zOMAkKGlZvTUMiEmJkZJfQH1L1eb0FNTdXV8ABU6H7UyoO3XrmU8d7Ugwtg4oxuD2uddZcqUKTJ9/fr1SkrGuAGqeSfTrULPSDXvmcdBoAIX1byrffjpb9emTRt5nU+ePJFpDMMwDMMwRQWbd6awYfPOZKEwzTvVUlOtKNXi/vHHH/jkk0+kWW3SpIms/aXaYRrM7VXIiP7666/S9FFQjTDV4Gc2aarxp6bwar7MUbtObWnaqcl1y5YtpdGnJvlUK07Hp8HSyPhRM3ZKr1u3rqy9ptpbykNptI2MuDqdGfXLplpv1eBSULNwMuGEl5eXrP1Xj1mzZk1ZyEBN6ume1XQqoKDB5IiTJ0/KAgE6Fj0rTaaaIENPU+uRsaW81Pydjr1u3TppgqkZ+uXLl+U1UDcD9X6pPz4N5kfnoXuha6Bo0rSJxmnaNm7cKM9B/dk1cfDgQVmoQddA3RroelesXCFNN52P+pyTgaeCC+r/T4UNlE4FHKtWrZLprYXpVp8FXR89c7p2eu5qOvWbpwHoaGA8eo6URtvatG0j/6b03aJCIfXvoCkWLVqkXDXDMAzDMEzBwuadKWzYvDNZKMo+7wUF1cKTOVMHKnsVqoUnk00Gnck7VEtPBtnJyUlJKZlQIQ4VHFDrjOygAQmpQEatqWcYhmEYhilI2LwzhQ2bdyYLpdG8nzI99XygOYoyZcqgYoWKsrae0mmk+cwD0DGaoT7/H3/88fPnSAPCZZ5KrqRC4wtMmjQJ7733nrxuqpWna6eg78LPv/wMPT09JTfDMAzDMEzBw+adKWzYvDNZKI3m/VXUfvEMwzAMwzAMUxSweWcKGzbvTBbeBPPOMAzDMAzDMEUJm3emsGHzzmSBzTvDMAzDMAzDaAebd6awYfPOZIHNO8MwDMMwDMNoB5t3prBh885kgc07wzAMwzAMw2gHm3emsGHzzmSBzTvDMAzDMAzDaAebd6awYfPOZIHNO8MwDMMwDMNoB5t3prBh885kgc07wzAMwzAMw2gHm3emsGHzzmSBzTvDMAzDMAzDaAebd6awYfPOZIHNO8MwDMMwDMNoB5t3prBh885kgc07wzAMwzAMw2gHm3emsGHzzmSBzTvDMAzDMAzDaAebd6awYfPOZIHNO8MwDMMwDMNoB5t3prBh885kgc07wzAMwzAMw2gHm3emsGHzzmSBzTvDMAzDMAzDaAebd6awYfPOZKE0mfeE2zGwD7WAY6glHMM4ODg48h9OIi6GnEbszXDlF4ZhGIZh8g6bd6awYfPOZKE0mXevOGcstx4HQ6eVMA84gbP+Rzk4ODi0DovAE9h1dQMWWY7AtaiLyi8MwzAMw+QdNu9MYcPmnclCaTPvS63H4LC7EQJTguGb6A+fRD8ODg4OrSIwOQSmvoeEeR/O5p1hGIbJF2zemcKGzTuTBTbvHBwcb1uweWcYhmFeFzbvTGHD5p3JApt3Dg6Oty2K0rx7e/vhqIkpztnYaR3nbS/hxMnTcL7iqhyNYRiGKSmweWcKGzbvTBbYvHNwcLxtUZTm3cvbF7YXLiEhMUVGfEJyniP1xk1cc/WAC5t3hmGYEgebd6awYfPOZIHNOwcHx9sWbN4ZhmGY14XNO1PYsHlnssDmnYOD420LNu9MTvz9MB3Pkn1F+OFZij8HR+FGkg+e3QgTX7y/lW8gU1pg884UNmzemSyweefg4Hjbgs07kxNPrlvh7u6GuHeoI+6bDsY9Do7CCLOhuHdyAO7u/AsPzMcBz54o30CmtMDmnSls2LwzWWDzzsHB8bYFm3cmJ56EnsPdXQ3wwGoKnkScw5MwCxHmHBwFG5Hn8Mj3AO7ua8HmvZTC5p0pbNi8M1lg887BwfG2BZv3osfD3R0rl69A9y5d0aZlKzRp2Ag1q1VH+7Zt5fqoESNx9MgRpKamKnsUHy+Z93DrDKMVepaDo2AjwlqY9/1s3ksxbN6ZwobNO5MFNu8cHBxvWxS1eb9gZ4/klBsykpLT8hzpN2/D1d2r1Jp3H28fdBDmfPyYsQgLC1NSM7CxtsakCRPx9yv9fI8fO4bmTZpi5YqVePr0qZJatLyN5v2puMe/wy3wLDx/9/p8/yJ+VnQ+Ou9TDdtKfLB5L/WweWcKGzbvTBbYvHNwcLxtUZTm/XpoGKysbWF30T4f4SD39fULUI5WOrh18ya6duoMXV1dJSUrlubmmDBuPB4+fKikvEx0dDTatmqFA/v3KylFx9tk3v+OsEC6twmO6i/A1OE9sX/LfCD+fJ7N8N8RlrjpcxwHN83BzFF9YHNgjfjjWUszryl/QcXfkZYIstsJnbmjsXTqEMRdPQhEWWnMW2KDzXuph807U9iweWeywOadg4PjbYuiNO9vG5EREWjWuAmuXb2qpGgmN/OuMmn8BKxYtkxZKxpKmnmHMKqIswFirKVBJXMtg9IpEpR1YZrVfahGGrHnZBpixb7qtuvK8WgbHYuWiReQ5HYEtatWxpzJQ4Bk8X9CPU8ORvz5cVIvSSNd5ffy2KMzU1yrMP90frpeOjddu8j3NCzj/LTM2Cb2VUKe4/oZWfMv09R91W3KOalQATG0j9iWdgk688egdrXKiHTaJ/d5Fm6RsT9tjxchrlFeK90PXYdciu3is2xlIK5HPXaRB5v3Ug+bd6awYfPOZIHNOwcHx9sWRWneAwKDYXbaArYX7LUOu4uOOHPWCu7u3srRSj5zZs3Gzu07lLXsUc37o0ePlBTN3L13F/369MVlJycl5fW5desWIsIjsi04KCnmXRrwCEvYHV6HFvVro26Napg7rj+mDu2Jmn9Uwqh+nbBk6hBZ492gZjX0bN8Mt/1OAkl2OLh5Drq0bIjTu1di7KBu6N62KRJdD+NvYcgXThyIFdOH4aLJBnRv0wSH9Bci1ec4alf5A4tmjhAPyBFzx/ZDx+YNYL5nJW54HZc19Op1/R1liTsBppg4uBvmTegP872rMKxXO/zw7Q84sHGOMPP2uGKmh3nj++OQ0RJMGtELTevVwrXTW6TRP3dgDQZ2a4OD+gswe0xfVKv4O85TjX2yHXasnY4hPdrBxGgxVkwbKu65Ck4YLcow7MJ0XzHVk/eyQ2eGrO2vU70yGteuiWjn/XgWb4vdIn3dvNHYJ+6pdeN6mDK0B9K8TLB06mBUr1hB7ttGpP9RrhzcLQyBBFtZaJD5uRdZvGre/y6ebiJM/mHzzhQ2bN6ZLLB55+DgeNuiOPq8q/3YE5NS8xw3qM+7m2eOfd7PmJ3GyOHDhREeV7wxfry4jhGo+2dtDB08SK5rzCdiotjWq0cPNPzrL4wfI9JyyEvbmjZqjA5t2slaeI15tAg699BBA/HTd9/ji08+w3dffo2vP/8S5X79FT26dcUm/e2IvnwQj/Y3KRE177ImOuGCNMl/1awqDJ8lkO6IbaumooK45qALO4C7zrh0chO+/uIbWB8UJjjpApLdjiDUfhccTTdjpjDiP3zzHawPrMYTcSwysN98+Y2stU73PYm/I60Q5bwPjWrXQHlxzJ7tmiHe/SiQYpel+TzVXKf7nxKmuQoWTRoMJNpKY+1mro8qFcvjmDDkUS4HZOHC6AFdsW7WSCyePASj+3XGHmGsz+xchgplyyHNz1TuR7XqqR5H8TjSEoYrp4jzlxHXved5zbr1gbX44L2PcWTrQric3Srvw9V8q7xHupaVM4eL51INye5HsGPNNPzxe3l5vlUzhmP+hIEY2rMtXE/rIdrlICqVLSvOMVk8PwdQ64ASUfPusw/PTnRGgHEnTB4/DmPp/4OG723mGDNqlPgeT0BYaKjyK8AUF2zemcKGzTuTBTbvHBwcb1sUtXl/m0abHzNyFFycnZW17LE9fx5TJk5S1nJm7OgxMD15Sll7faKjI9G3dx/MnT0H58+dQ1xcnLIlg6fhNiWm2bw07/HnMXdcP2ne7wcLnU69BKOVU1Hxt9/gd24bcNMRdsc34ruvv8MFE13cCbeQtcvDe3cQxt4FwcIMly/zC2wOr8Pt4NNwPSPMb5Q1Dm2ei5++/RHjBnWVfcYbCPO+aMpQLJw8CN9//S2cjm+QBj7zIHTUjD7e9QgqiHMP6Npa1lxTjbmXlaEw77/DbPtSxF47grI//SxM9CDghj1w20mabdPdy6G/fBI+/fgLHNSfD9wR3xNhpFM9j+HqWX3s0Z2FTz/6XBj1BbL1AB33stkWadgdT26G1YF1ePfdj7Bfb57Y97Js+r561kg0+LMG7vidhLF4Jr98/xNcTDcB91zk8eOvHsYB/YXws92ByuXLwmCF+M4l2r7UFL/YQql5v7O3OR5ZTlC+fUxpgs07U9iweWeywOadg4PjbQs274WHyZGj6N29Jx48eKCkaCavfd7PnjmDgf3755qvICkpzeap1psGhPMWxrhPxxZoUrsmzHetQPjl/Zg6rCfqVa8G/WUTEed2WA7cVr1SRSyeMgTxYn3lzBGyhrt3+2bYsmQC2jatj7aN/8JJo0Xo36UV1s0eJZumjxvYBafEcv/G2ahfs5o0/GFOe3BUbz5qVK6Evp1awt5EVxYiqIaX+pZTE/yhPduhSvny6NG2GQb3aIuWDetg0pBuiHDeD5/z29C1dWOU/aUM6lSpjPEDuyLR7Ygw5BdgtWclmtSrhd9+KoOGwniToX8SaSX77jscWy+O1wTzxg+E7oKxmDCkK0Iu7szouy/MOjWvb1SnJupWryrO3x7dRV4qqNgs7pEKJvZvnINaVf7A77/+iiYi36510/E03AIbF49DvRrVMKJPB7id3SrvpahHxs8S3Oe91MPmnSls2LwzWWDzzsHB8bYFm/fCZe+ePejWpQvu3r2rpGQlL+b94IGDaN+mbZHP/V7iBqyjpvI00BpFpKXsf/58XcSr62S0ZY09Ddwm1uUgb2R+Rch+9DTQnGKGZX5Ky7Q/6HiUhz5Hi1AGfXs15HnVweWU/C/V0tN1U/N3OZDcy89QHls5/6tN818c95ycBi7zNorM+8rIdH1yMDy6ZmX78zQ17yv5izXYvJd62LwzhQ2bdyYLbN45ODjetmDzXvgkxMejd4+emDpxEm7evKmkviAn8253wQ4N69XHnt27lZSi5W2aKo6jGIPNe6mHzTtT2LB5Z7LA5p2jpIVrpBvcoz3gm8R/X47CCTbvRcfjx4+xa8dOdGzXHkMGDoLB1q1wdXXFvj17MHzoMPh4e8NCGPl5c+aiU7sOss+8p4ensnfxwOado0iCzXuph807U9iweWeywOado6SEf2oQ3KI8MGjkQCxYNV+sB2YY+ATN+Tk48htFbd7zPdp8eu6jzZdG0tPTcejAQYweORJRkZG59o8vati8cxRJsHkv9bB5ZwobNu9MFti8c5SEUGvZHfwdcODsAew13QePGE/YuNti21FjHLI4jMMWRzBn6Wxs3bcVnnHeML1khsVrF2GV3mo4BTkjMC0YASKcQ1yw4+g2rNmyGrrG68W2yzLdLyUQfsmB2H/6gNi2RmzTxXHbEzjrZI7Lwc4Ivnldrq/SW4UlOktxxvGM2C8oy7VylP4oSvNO87ybmpnjnM1F2FCcz3uct70Es9OWcPcoPfO855XlS5ehzA8/wdvLS0kpOZB5v7e7Ee6bj8VjvyMiDuOx+L5wcBRo+B/DQ1cDYd6bC/M+ns17KYTNO1PYsHlnssDmnaOkhL8w1+7CsLdq3QIdOrQV6wFwDHRCjZrV0a1nV2G8AxCcHoLGjRuhWpXKcL7ugqgH0Rg7eQwqV/5D7OshTPhlNG/ZFJt3bMZt3MXUOZNRuVIlOPg7yub4tWrVEPlHIxHJOGxxGD99+z10DXXgHOyCho0aYOrsKThz6YwsFPi/f/wDw0cPRtjdCG7C/4ZFUZp3Jitenp74vWw5fPrhR5g3ey6ePXumbCkZPI11wf2zY4V5Hy9i3GvHE+tJeGg5QeO2NykeWIzHk3OT5VLT9jcp6G/6yGqixm1ahYX4XpgNwyOntcDfT5VvIFNaYPPOFDZs3pkssHnnKClB5p1McpfundGxU3tp3l1Cr6J23T8xbMwQWTMefj8SHTq2lQafatpDbodh9uJZqCrMu53PJYTcDMXqLavRo2837D9zADMXzUD1qlVx3uMCrou8c5fNQaUKv2O13mrMWz4Hbdu3lgUEu07sRrlff4XZJTNEP4mTx458GI3AG8HwiPWCT5Lma+YonVGU5j00LBLW5y7A1tYethe0DDsHWFnbwj8gUDla6efvv//G1MmT8ckHH+LLzz7H77+VlWb+TYWKJbZt24kr19wyEt5ggq+HYZ2OLu7df6SkvLls3rwFp8+YK2vM2wqbd6awYfPOZIHNO0dJCTLK9DelmvNGjerLmnbn0Cv4o1JF9B3UB6F3w3H9TjiaNmmMOsLQk9GPfBCNSTMn4reff5HN4w8Iw/7ZBx9jzKTROHj2EFq0bIYyP/6MdQbr5PYOndujQ6d22GmySxj2XbL23TPWW9b4t2zVHF99/DlGTxwFXaP16NazC5bpLkdw+nWueX/Douj7vF9CUnKq9n3eb76Zfd6Ji3Z2wsRPUdbeXDzc3fHNl19hzKgxJa6FQUFChTIzp8/AF59+BgcHByX1zcTHxxu//PCj+JuOlvfNvL2weWcKGzbvTBbYvHOUhCBz7BHrCTufi7gSdhVXwq/BztsOF30u4VqEq+yT7hDgCMcAJ7n9argr7P0cYe8v0oIvizxuuOjnII9D/eEv+l6Cb7K/rG13FPsFpAbi1EVT9B3YGzZutrK23dbzAqyvWaP/kL7Q260nm9J7JfjIa6B+87QvDZqn6Xo5SncUtXl/m0ebz468zPNe2nny5AkmT5gouweU+fEn2J4/r2x58/D29kaVipXw8Qcfon/vvjnO8V/aWb50KT55/0N8//W3sLK0VFKZtxE270xhw+adyUJJM++hoaHw8vDA/fv3lZQXeMe7sHnnyFdQk/uD5gdRp86fsol9kyaN0LJlM4wYPxxnnMzldk37cbyZoZr3hcK8u8XYK78weSMuNg5Xr17V+BulCTbvmnkbzHtaaqqcGq9Thw4YO2o0bKyt39iaWqptnzJpMtq1aYMNurpyFoE3kTt37sDI0BCtWrTCgH79cOrkSTx9wgPNva2weWcKGzbvTBaKxbyLlxdjIX4jhg3D5ImTREzEpAkTMWvGTHTp1Blffv45Pv3oY9kn8sP3/oefv/sBA3sPxJYjOlh7cTIOexizeefIVwTfDJUD0FFQM3zqZ++d4KsxL8ebG6p5X+swGfM3Tcak0RPl71BuQc2Ce3btLpsGf/rxx/j0g4/kb9SP332HXj16YO/uPUhOTFJ+6DJg866Zt8G8E1T7vmTRYnG/FkrKm4uLszOmT50mDe6bzowp07B7x05ljXlbYfPOFDZs3pkslLSa9/M2NuKFbhx2796NKy4uuH//xfy/ganuXPPOUWBBfepDboXKQe80bed4c+N5zbvFMHglXlZ+YfKGm6srRg4bjj27duGKs0uuzYPZvGuGzfubhzTv09i8M28PbN6ZwobNO5MF7vPO8baFrzDtNJK94QFDVKlcGYOHDUBAapCcB15Tfo43L7jPe/HD5v3Ng80787bB5p0pbNi8M1lg885RXEH9zIPSQ+TfkQaHo3UacI5qw0PvhCNYLGk7pcu51pP9ZRN3Mt9yMDlhtqn2POx+pBypnrbRwHS0L6X7CYMedi9CHONFf3bKR/sGpAXLPDT6fI/e3WQ6HY/OFZgWJK9D7ntDXB8NfCeOKa+RauqV66L9M98PR+mJ4jDvGSPIk4FPznOkpd9i817KYfP+ZsLmnSHYvDOFDZt3Jgts3jmKOsj4nr1sgU7dOuKQ+SGcd7dF/fr15PRwNLr8/OVz8eUnnwtj3Q47j+/EwOED8f033+KE7UnEPU3Act3l6NSlgxwt3sTGBN9+8RUGiTxhtyMwYtxw9OzbHXbeF2Hteg7NmjdB/b/qwt7PQZr7zuKcw8cMhWukG3af3IMyP/2M/gP7IOphNI5fOIneA3rhlN0puW/lipXQsmULOAZdRv+h/fDxf99H915dMWrCSAwdPUQcwx3+qUEa75GjZEdRmncfH38cP3EaF+wctY5L9pdxytSczXsphs37mwmbd4Zg884UNmzemSyweecoyqDaaqrl7tWvB1q0aAZTO1PsObUXhy2OwPSiqaz93n96HyqUKweD/QaIexaPUxfN8PMPP2DbYWMcsTyC8r/9hhPCaFNNOB0z5FYYEpGC1VtW49eff8Ze070ZfdlvhsLOyw7lfvkVU+dMwfQF01C5UkV5DTRwnWesJ1q3bSXNu0e0pzDqzeVUclSgsM90H45YHcVx2xPyWFv3bZXz+p64cAKRwujTdb56bxylJ4rSvL/pPH30BLFesQh3iUDE1cg8RZRrNKz3WWHTnI0IcwlH5NUojfk0RdjlcNyMvamcvXC4m3IH4c7ifq7k/bo0Bd0XPRfjVcaw3G+FaHHfmvK9CRF1LRr2xy9hy9LNCHYM0epvWpqC7ovuVW+JHo4ZHhN/0xiN+fIeUQhzCkecbxzPGV8KYfPOFDYFYt4fPX6Cu/ce4N79h3j85CmePXsmf3Bo+exv+pwpRNqTR4/w8N49GY8fPMCje/fl5yePHsrtal7aVw25LrZRifydO3dx9+49OXDZPbHvPTrO48ciz985Bu1P1/f48VOx70M8Ei8YT55frxqv7KOkPxHHvy/Oe5/OSyHOSUHp6v6ZrzXz+iORh54NxV26ZhH3HzzEQ/EcMvYtWT/ObN45ijKoOfr1O2GYNncqvvz4U2zYpitr4r3ivbF8wzIYHzKWtekVhXk3PGiIBCTDzOEMfvrue+w02SHne//x2+/Qpl0rXA66jKAbwThifRQLVi3AMWsTlBVGvf/Q/rL5e9zfCdLkly3zK/afPoD1RuvxwTvvQcdAR1j9NHFOHzRq3BA9enWTxxkwpB9+/OY77Dq+63kz/OkLpovz7pJpP4trOHXxFCIfxcAnQfP9cZSOKErzHh0TC0cnZ1x2vpKvcHB0RmhYhHK0ksUzoanXDrvCYpkVXPa4wP24B9xN3PMWIq+HVvkzlhf1LuHc6nOI94tXrqLgifOJg+VKa9jpXRTn1PI6NQTt7yGOo2nbmxWv/6xKS8i/6et+L0544OqBq7BcYQ2XfVfkOzFTumDzzhQ2BWLebR08sFTvKDbsMsN5Fy9ExiUiNi4W8UkxSEgRy9RoxCSGIz4mAqkR4QiwtobNOh1cWr8JvgeP45KeEc5v0IO/uQVux4h8saFIiAtHYmIUEsUxElOiEZ8Sg6i4aJy/YId1OnpYo2MMnU27sFbHCOvWb8F524tiv1ixTxyS0xJFxIvzi/2SaV9xfvE5ODQMV938ccHRGzsOWcDykhuc3QPgfz1MXF8M4pJjEJuYca74pCgkJEYgMSEKKXFR8Lhgiz2r1mPnsnXYt3Ijdq9Yh/2663HV1hoJ4r4SEiKRIvZNS4pFcnwc4uLEsRLixLOIh52zD1brm2DpRhMsWHcYy8RSx8AUVheuIiomGrHR4rkkJShPs/hh885RHEG14qb2Zhg6Zii6dO+MOctmwyPGC1fDXTFv+VyMnjQKU+ZOkUZ+ybolGDFhJKbMmQzra+ek2V+3da003QOHDZC147IPfGoQAtOD5UB0I8aNwLipY7BOf5004WTGg26GwPKKFUaOH45uPTtj4eqFWLBygTzWJd9L8hgm545hyKjB6Nq9ExaJ7VRLT+ccP20cRk8eLa/huM1xeTxN98VROqKo+7xfsHNAatpNpKSmIznlRp7j5u27cHP3LpnN5v8GfC38YbHUCj5nfZAQnIDYgFjE+hdexAcJnXWPwsUtl2CjY4v0mHTlYgoWMu9UIHHlwDXEBQuND4jTeD0cHK8T8cHxCLsWjnNrbOC8x4XNeymEzTtT2BSIeb94yQOrNx7Ctt1n4ejki/jIeCRHRSE5JgbJscLAC0OeEBWKNGHcbwujHGZzARd1NsFlgwGCD5zEtS07cVVvOyLO2uBeWCjSw8OQLvLeio7Cndho3BGmPT06UohyLHydXbFzyw5s3bQbWzcfwIY1htiio4+r5x1xOyoed6KjcV/s80Ds80AY44dieV+Y7/txcbgVHit+FAPh5xgAO1NHuF/wQPAVPyT6X8eDqGg8Evkfi+u9FxWJB5EReBIZiUfC8D+5HoqYi46w2rQNVhu2w3rDDliuN4Sl7haEWdngSfB1PAoOwcPrYhkWjgciP8WdwBDcCQhD4EUvHDM+i4OGFti54SR2bTyF/ZvNcMXMHqlefkh1dcf9oBDlaRY/bN45ijOoJj6/A7/RfrS/pm2UTgPNZbdNPaem/V/nmjhKRxTHgHVv2mjzgTaBOLvQHG4mHtKEFJXBpXNFuEXgwkY72Iq4lXBLuaKC4yXzHsTmnaNwgs176YfNO1PYFIh5tzlujZXDl2DjhNU4tXI73HacgJvRAXgbH4Sb4R64G++Gh8EuuG/aAZ+Nu+EwcyUOtuuHo+0GwWbANJi0G4p9TXvh3OAZuLZwIy7OXgu7uetgM2c1LGcuF7FMxEpYzlqN7YOmYEaDzhhXrxPG/tUNY/5sj7HVmmJFix7YL7YdHjgZJkMn42DfUTAZNBEH+43D4b5jcUQsd3YZgS1th2FtiyGYU6srVjYZBP32I7C11SAYteqHna37Y0+bAdjbZiCOdBuJg11HYHvbgdgmYmOjLpj+Sy1M+bEmZvz6F6b+8iemfl8VOtVaYF/7QdjVph+2t+yN7W36wqB1b2xt0RNbmnbHlua9saxOZ4ws2wpDy7dD/zLNMfj3dhj6e0dM+6MNtjbrg02122J//3Gy1qIkwOadg4PjbQs2769H5LUoYW4tce2QMLeBwtgWco37q0GmJ9TpOmzW2sDByBEP7zxSrqxgYPPOURTB5r30w+adKWwKxLwfXGOA7l/XwcgKbbC8Ti/sbDkMO5v0wfaGPbBbmNP9whDvb9EXBxr1xZHmg7Czdifo/vgntv5SH/uqdIDBr42x8fs/sb9WF1h1nwiTTqNwtt902AyfhzMDpsJ88HSY9Z2C0wNnYG+3sVjdqDeWNOqPla1HYGXLIVjbVBy71yTYT1wFh3HL4Dp1LS5PXInLk9fCeZoOXGduhPvsTXCesREXp26E5fgNODxoBawn68NxphEcpohtUzbAY5Ye3KbpwnP6BgTM0YffbD34zt2CgEWGuDplHY50HINDbcdgf8cJONBlAo52Hgf7kUvgv8AAXnP1ZPjO14fvYkN4LzKAz2IjuIp1h9lbsXvAChj1W4XN3Rdgfff52NJ3KczGiuuauw0e0zciYP2+EtP3nc07BwfH2xZs3vNPjGcszJdY4vIuZ2lApHl/xZQURSSEJCDYPgTWq6zhLK7l8b3HyhW+Pmzec46S/Dzo2oKuBuPciXPYrb8TEZ7hiA+M15i3uIPNe+mHzTtT2BSIebfcZoLp9QZiRfuJMO42E1ajVsJ62CJYDpqD8yMXCPM9C6eEuTbvNRW2/ebAvONYbK/QEjvKt8ThWj2wq2JbGJdthv21u8Oq22QcazMCJzqMxvHOI7GneV/sbz0Q+1oNwv62w6DfuDcmlqmHkcL4T6jYBqPKNMTIH2piXsWm0G/YE9sa98KOBt1hXLczDOt0hlH9btjWsDu2NxbbmvSFQdOBWFe/H+ZW6oAVtXtBp25vbK7XExtqd4KeyL9F7KdXpz0M6nWEfu322FijLXRrtMbqio0x6/sqmPJNZUz/vhamflsVU78ohyU/1cQmsZ1qz40bdYXhX51g2LArDBp3xfq67bC+cWesEusjf2uGYeXbYchvzTH4txYY8XtbTK/aARsa9cGW+p1xeMgkNu/5gM07BwdHQQSb9/yRFpWGc6upttsJ0d7RLxl3Mk3JIclIvi7u8RWzROvJ1zVvSwxOREJgAhKC4pEiticGJcr0hKAEJIUkISk4SX5+kZb8Yl0YeF8rP9kKwPWwW4HpanGad3o+9EzkM5PPM/ml89O9q0HPU92WsS7yi300PmOxndLlMxbrlB4fkPF3oees5qXjqeenJeWnfWP8YjL+FuJvZbTeAMGuwS/tlznoGLRN3TfzNnkt4hivXkvmoPNk/i6ooR6X7lvTfnTM1LA0pEXcwJC+g1C3Zm2EeYQ+z0vHo+PSMTI/U0qn66R82d1TYQSb99JPfs376jVr8I9//AN169XD/gMHcPfuXWULw7xMgZj3Ixt3ou/vLTG2Xg/Ma94fhr3Gymbgh4dMwNmJc3By7HScGDEJZkOnwWLEHJzqO16Y6/bYWa8TTDuNwoHmfbBLGNzj3UfAce4aXFqoA4cVm3F5jT4c1ojlWj24btoOV/1dcNbbCf0R07FuyAxsmbgCm8ctxpbRs3FigQ6CDpxByL5TCNh7HOEm5og+bYvYsxcRI5YRJ6wQYmIFj/1n4H7QBuf0T8DB2AIBRx0QfOwi4s2dkGLtjHTbq7hj74679m64dckVyTaXkWjlgKiT1ji7cC2Oz1whlhtxZqEuzMW6u8Ee3HZyxe2rHrjj5oW77t647eGFez4BuOMdhDT3QEQ4eePMHiscMjiNXRsOY6fuYewT5z931BaJPmG4FRiKuxFRytMsfti8c3BwvG3B5l17bkSlS+Nut9kOUZ6R0niQASEzFHQ1CItnLMKwfkPRvnkbjBo4HJ72nkiPuAk3OzdMGjVJbBuC7h26Ylj/IXC1uyZMUjJ2CZ1v36It5k2Zg6mjJ6N8md/Qq1MPhHqEwWSXCRrVqY/mDZrg2G4TpIXfwF79PWhavzG2rtsq95cGMyQRvhZ+sjWA12mfAumSVhzmnUyj7SlbjB02Bn269sTcybNRu/qfqFS2Aox1jaThPbnvJPp2642pY6ZgUO/+KFumDC6euSif8ejBozBSPPcu7Tph/PCx8LvsJ55PArZv3Caf8fTx0zFr4gz88XtF+Yytj5/DohkLUP/PuqhT40+cP3VePvfVC1ehQ8v2mDNxFnp07I5ffvgJoweNQqR3lNjHGlUq/IHyv5XF0N6DcHz3MWn+1XtQjbqRriEGi+3N6jfBwB794XHJQxry3Vt2iWO3xVz17/3rb+jZsRv8XfyRJkw3meid4r2Pviu9u/REe5HX9KCp3BbrH4fVi1ZhcK+BGNyzP7qK+zy4/aA8f2poKgJdAjF70iwMEttHDx6JesK4NxXnDxP3dCvqFmzNzmPc0NHo2rYTGtdrgMPbDyPWLxY7Nm8X38tumDlhBto0a4WGdevDw95DFoKo91VYwea9ZJCcnAx9fX2sXbtW6+gzqjN+a/Ipqrf9BUuWLdKYR1N07NhRmvdXo0qVKjh58qRyZQxTQObdxcUPhkansWevFayFCU4Ki8ft2HjcjI3BrRgRsVFiGYX74vO9sDDEXXCA0/qtuCp+zAP3mcBdiLXjmk0IPHoKd4KDcTsyUu6THiciPloso5EWHYnUyCgEenhj+5bt0FmzFUYGh2G0ZT/0dYxgcdICsWExSBAmODk6GolRkXKZmhCPJHHexOgYRIVGwtM1EJcdA3Do8DmYnXESL0D+4kUqEJFRMYiLE0ITH4XEuEgkJkQiKSEKSbER4jjhCHK7imNb9LF/1Toc1NmKg0L8TunvgN3hY0LIgxEfFY64GHFvFPERiBURJ647RjyDa57+MNxjis07z0DH4Dh0DU2xzsAUB0/aITgsGhHi3hKSYpWnWfyweefg4Hjbgs27djy49UCO8G6ra4uwq2GID8ow7ukR6Th75Cyq/1EZV85fxb24+4jxj8E2oZlXba/h0I5D+O6bb2B/1h53Y++K7few32g/PnjvPezcvEMeo2rFylg8cxGQDoR5hksjOXHEODyIfwDrE1bCPP6INQtX42HCYyydvQSr5q/A7ejbWUyQ2zF3mC+yQKBtkHLV+ac4zDsZ36TgZIzoNwwtGjZDtG80nqVBmPNL+PaLL4X5niafOxn6sUPH4EHiQzxKfIyVC1agwm/lZGEJmdSbItYtWYtvv/oaZvtNEXQlCH9Wq4EF0+eJZ/hIPruaYp0KWu7H3xd/l3uYPHoSalapIQtiTPefkoUop/adAG6KZxEQj6Z/Ncaf1WtKozxh5Hg0qPMXIn0ikRKa8vz6E4U5j/SORMdW7dGna2/s2LQd65fpoHnDprJAJ9Q9FEHXglGhXHmsWLAcf98AosQxqHZ80siJSAhORLOGjbFhua78HlFhzRnx3Tqx9wTc7dxQ7pcyWCvu6774XtyMvAnPS54i7VeMGDAc1ifPoVK538U1n5TfsXviniaI71C9P+sgNSwVK+YtR53qtbB51SYYrNuKyeJ85cQ97tXfDf/L/ij362/QEcd+mvxUFgRQoVDmv01hBZv30s8Jl+1otbAMBm9qgqd4oKTmjpGR0XPD/r//vY+hw4aJ3/krylaGeUGBmPdLzn5Ya2AmzOlpmAjzHhErXjJSkpCUloSUG+JlIz1JRCLSUuJwJyEWcc5XYL/RAI66W+Gz9yjcjPfIz77HTuFm2HWkyinihAFPEz9mqcJUp9AUblFISE2AX1AgjLbtxLoNhtAzPoCNeruwXmcLTE+eRnRUNOLjhYFPjkFSqhCO1HgRcWK/OMSnJorrioerZwjsLwfC5JQTzlp7wNntOrwCwxEjXqCSUpORnErXmnHNyeJ8KUkxSImPRmxQACz378NhnY04tNEIBzbvxKH1hji3/zBiggORGBslzi1CXHdcUiSihXmPiotERFwsPPzDsOOQFdYbmWL1lhNYo38KukanceiUA4IiEkS+OHHuJOVpFj9s3jk4ON62KErz7unlg5OmZ+Hq5iWMuKdW4eHhA0ur87jsfFU5WtHz8PZD2Bs4SINx/XKobKqumg8yUYbrDfDNF1/BXBitu8I4kQEk8xNyLUSYt/V4/93/4tC2Q9KQkdm7anMFv/9aFjpL1yFcmPUqwrwvEuadzHrAlUDUqVkHE0dOkCbqTsxd7DPYh++//U7W1K5ZuEY2mY5/tZ99QIYRojnnzZdYIOxyuHL1+aO4zDvVLg/pPQitm7REuHu4fL7UqqFh7b8we8JM2XS9do3amD5uGtIj03Ej4gYmj5qIn7//EXanL+CGMLwUZMB/++kXHNl+GN4O3qhZtTrmTZ2D9PB02az8T2FkRw0aKfOmXE+Vx6glzDldx7GdR/F7mbLSvN+Kui3N/bSxU1G/dj2Zd8zQ0WhQ9y+EeYa9ZN7J2AdcCUDlCpUxc+IMPEl5Kv5+t/Eg4QG8HLzg7xIAT3tv/F62HJbPXya/KyHCzDcS9zZtzBR4O/qgzI8/YcH0+bgTe1d+j6hwiO6fDPxnH38irmOavB7ZxF1Ep7Yd0bNTDxivN8KP33wnzTt9Z25H35GFDHTNdIx+PfqigfhMf8eHiQ9Fnjuy5YabnSvOn7RB5d8rYZMw9q8WChV2sHkv/eSn2Tx17yGjfvFi4WoP82ZQIOb9nL0nlukdh842U5w6d0WY5CTEJyYIQyrMrzDNScK0JwoDnpIUi1ux0Yiyd4DNmvWwWaED1237YL/BAHbrNsLj4GGkCSOcKkxwSrIQrhRhmpMjhRkXhjghCrFx0fAL8IWR8Q6sWLMZuluEcd+0HRuEkTcRxj88IhIxZLSF0Y8TJjoiLhxR9DklFtFJcQiNiYWbz3XYXwnC4RMXYWp5FY7XguDufx3hcfGIShAmPzlehFgK0x5H+8ZGIj5amHB/f5jt3otdq9dj7wYj7NDRx841G2Cx7yDChLGPjolATEI0ohNiECmWkWIZJgx9WGwcXP1CsO2wpXw+KzYdwZqtx7Fx5xnsPW4L39BYhMeKH+wUNu/5gc07BwdHQURRmvfSzLMnz3Bl31VYr7RG4IVAaTYymw8yUXHCcC6euRBffvYZKpeviFZNWmBwn0GyJviGME7rFq9F1QqVsGLuclnr3qNjN+itJqN0B7u27MQnH36Irm07w9fZD4eFyf/mq69k03hqak1GPUWY+EUzF6BRvQaI8IqQza8zX8PzCMxYXt7hDIullojxiFHuQnuK07yPHDAcv/78C5bNXiKbmXfr0BVLxGcyznsN9orn/Kl4FvVx0cxO7JPRR3vO5FmoIp7xphUbsVtvJ3qIffbq70VqaBoMdQxkzX3ntp3g5egNy2OW+Pm771FLGHoHc0c4WzvL2vEfvv5WmN9TMNlzXJjon9G/Zz8cND6AiSPGo1fnHsJce8ua+g3L1+OzTz7BoN4DsVNvO+LpOyCeDwWZ+ZPCaFcs+zt+/PZ7tG3RGm2btYbhekP5XdixaRs+/uhDdO/YVRr643tN5P00qd8IwVcCYXHMQrYi+PbLr9C8UTO0b9lOGPfjeJDwEOdOnkOtajUwsFd/HBfXOHH4OPmsqLafmr9PGDYO34t76NOlF2ZNnImalavj5x9+hIHOVoS6hYpn0h0fvv8/NK5bXx6X8nuLa6DWAdQSpHfnnnAVZp7GXiiKvzcFm/fSDw9YxxQ2BWLeHa4FY62xBTbvtcZBM0cERSYL0ywiSRjh1CQk3UhFYloSEpISkB4v0q55wslgDxw274DH/pPw3GOCSxuM4XnsNG5GRMmm7oli31hhuEMiryNamPa4RLEel4CgkAjs3n8cekaHobftJDboHcKmzXtxzMQSoWHiRy86DmExMeL8iYiIT8R1sR6ekIjQ2CRhlOPg7BmBiy7hOGp2FcfPXoGtUwCc3ILhFxoD/9AoBFOERyIkKhLBFKFhCAkJg7erDw5vPwDDVXrYpmMMY51tMFyhJwy9Cbyu+cLTKwhu3oG44ukPF3c/OLv7wumaFy65eMBUCOE6w5NYoHMIc1cfwMzluzF92W6s0jOByWknmFo4wOaii/I0ix827xwcHG9bFKV5T0lJg7+/0B3/ILHULmgfP78AJCYWfYHvk8dPce2gmzTCfuf8kXD95YHH1KDaYDKRt6Jvy2bbVPNJ/YUpnbZTLTzV4FJz7vTIm7gZeeu52aP0BwmPcD/ugawRpnVq2k1mjcyqegwaSIxq4jOfV1PIAfSEkXPc7gSrVeek0c8PxdZsPiQFI/oPQ8cW7WSt+D1hlul50TOk5utU4CGfV/xDWSsfJ/ajZ0TbaRulUX4yynRMSqdaZnqe1Nyc+o5THlqnSAun2vt0eTxaf3bjbznWQMXfysP2pA3+ToP4u92Utep0PDoXNY+nGmo6X+a/sxr0rOjvLL8PIg99pkIJCkrLuH5xLeL+bkbQtYi/tzg//b1pfxongfLRdav3oQZd/22RLpciD30v6PwUVIhB+9H90z1SjTutq3moYIFq9GkbHTtjkLpEWZP//JrCboi8L85X2MHmvfTD5p0pbArEvBvsMUW9TpPRrOcMdB40D5PnbMD0OWswfd4aTJ21EhMmL8TESSJ9wnxMn7AAEwdOwMD6HTGgTjuMaNkHQ5t0R/fqzTGkdS9MGjETY0fOwvBh0zFqlFgOn4ZBQ6Zg2IhZGDp8Jnr1nYC69buiYtV2qFy7B6qJqFi5Jeo06IJufcaia89R6NR9OLr1HoOeIm/nbiPRqesItO00BO06jULzVsPQrPVw1G08AH81H4xGrYeiadthaNRqAFp3HIY2HUegRbuh6NBtrMg/QuQfhLZthqFT2yGoX6U56v3eCPX/aIW6lVqjToXmqF2xGdq06o+2HYagRdtBaNdlJDr3moAuPcejvfjcqec4NGs/CpVq90WFWv3we83eKF9LRO1++OOvQWjddTLadBojntEqHm0+H7B55+DgKIgojj7viUmpMtS+73mJtPSbuObmWSx93n3O+Erj7m3mnaXGvSQHme1Iryhc2Gwn54FPDU9V7ijvFId5p1YGNCDfkN4D5aBsaxeuhpe9lzSlmvIXdNB5aGwC6p7Qt0svTBs9BeeOW8v0orj/tzHYvJd+2LwzhU2BmPe1m4/j2z+GoFLDCajedBJa91iIbgOXotewleg5fBW6DV4q1hegx6BF6N5/Lnp1m4J2dXuj3Z890Lf1KHRrMhjNq3dB5+ZDMXjwQgwYsQJ9hi1F/5Er0VdEz2HL0Wv4SvQetQo9hi9F3VYj8Uf9gajSZCSqUzQchPptR6P3yGXifEtE3mXoK/IOHLcW3cQ5+41chQGj1ohYi0HjdMX2VWjZbRZa95qLDgOWolXPeeg0YDE691+ILiJ/lyGL0WOMOOdYEaOWocfQxejeZzZaNx6ElrX7oGX9AWhSfxAa/zUQLZoOQz+65lHL0WfEEvQYskBc70L0G7UCPQctRk9xrI7i2LWaT0GVRhPxR5PxqNRkHCo2n4xqraai/cBlaNtrNsbP2oRnbN61hs07BwdHQQQPWJczAecCYb7YAh4nPRCfqY97aYl4Ybgj3CJxYaMdLm66iLspd5Q7yxvFYd4pZF/u4MTnUdSmmc6X+fxUc68pH0fBBJv30g+bd6awKRDzvk7vML76vRsq/jUU1RuPQqeec6XZ7dJrOtp2mYyOwqx37joZ3XpORfdeU9Ctwwi0rNYWLSq0QIc/u6Bjna5oXKE5mtXujG6dx6JjV6q5noxeA2ejW9/p6NhjCrr2ni6OOQO9+s9GrXo9UbZSR1Ss0RuVqovPFduhmjhG5z4T0abLKHHOUejQfRzadx2DDl1Go3O38WI5Dl3FcTqJa+nYdSoaNhuO+k2HolX78WjSehjaUK18G2HG2w5C204j0K7zSJF3DNp1Go4OnUegQ8eh+KtGG9Qo3xi1KrdCTRG1KjRBY5HWtf1gdO8+QuQfjm69xqBH3/Ho2W8ievaZhF59JqNrr6mo2WAQqvxF0R9/1KVa94EiBqCdeCZd+07G9LlruOY9H7B55+DgKIhg85494c7hsFxqhavCuMaSeQzQbDxKepAxCr0cCuvVNrhkYI+7afeUO8yd4jLvHG9XsHkv/bB5ZwqbAjHvOw9YoG67iegwaD4GjFuOJet2Yu2Gndigvwdbtx+FgdER7Nt7Crt3HMWB3cdx2HA/Vo+chlUDxmPrpIXYPnMF1o+dhc1zVsD86FlYnLGFuYUdLM/Zw8LGETYXXGBn7wZHZx/YO3hAb+sBzF9qiIXLd2PZyt1YsWo7topzXHELhJd/GAJCo+F/PRIBYdHwvR4ulhEiohAUlgh37xjYu0TgpLkHjpi6wOFquNgvDIHXhajHJCEsNhnXoxNF3nh4B0TA9rIHzJ3ccdkrFCeOWkJ/pQF26O7Fbv0DMFilj2PGBxHiFYToyHhExsQjKi4BUfF0nERExqUgMlocLzwNR89cg46xOTZuP4f1hpbYIJa62y1g5xaK4HgaH4AHrMsPbN45ODgKIti8aybaPRqWK6xxUd8eAecD5bRrtCy0sNWQVoARaBcEj+MecsC9K3uv4smDJ8qd5gyZd8sVVnAwckSQeAaF/hw43soIvBAEnzM+cnwGl71X2LyXQt5U825jY/PS/PMc+QsnJyflieafAjHvto4+WK5/Cht2nMWe43bwCYmVI85Hi5eSiAQaOC5WmNoYxIplXEQE4j29cXX3QZxbswmuOw/iivFenF66BraG2xHp5o7EKJEnPgrR8eHiGFGISYpFbDKNGB+D0KhwHDxyHGvXG2Hdpr3YsOUAVq8zxLbt++RAPtF0HpE3Pi0OcanKMi0WMSlxiBTX4uUfCUeX6zA1v4YDx+zgeDUU17zCECzMd1RikogEcb4EkTcePtfDcME9EDvMnLBs63Gs33IMG9fshsH63TDU3YYd6/VxSN8InpcvIzY2ClEJ4lppZPwUcb3ifLHJiYhPEs8gPhUWDt7YsNMc640ssHzjSaw2MMOmPWdxwdUPoYnx4hrZvOcHNu8cHBwFEWzes3I/7R6CbILgZ+GPAKsA+Fv6i6BlwUfQuSA4Hr2Ms0Zn4G+tnq9wIoBCHN/3tG+eR6C/GXcTAdbCXNlQCPP+GkHP1MvSCz5WvvKzpjxvQtC9+Z8LgPtZd7H++s+tJAfdq4e5B7wtvcXnYI158hznAuEjvpvhzhElpkUmk3feVPNO09hpMqMc2sWVApi7v0DMu+O1QKw1Pgu9PdbYd/IS/MLjEZ2SLIxsojTecakxiBemNik5BmnC4Cb5CfO+Zz+sVuvCwWAXPHYdwqW1G+FoYIxYDw+kxUUiSRj1hJQYOU87zdcekxgjzHEMImIiccrsDFat1cOq9cbQ2bwbuno7sWP3Qfj6B8h88TS3exqNdC9MMU37lpogliKEkfYPjMEV13CcsXDH0RNOsHMMgP2VAARGxAvDnS6Md4ow3UmIFgY+LC4Gntcjce5aCHabXsGctfsxZZ4BZs3bis0b9mPran3s3aAPFxsbxEZHIC5R3Ku4Ryo8iKVrTkmUBQJh8SmwcPLGKoNj0DE+g0U6h8XzMoPuTlOcv+KDyKQkJNwoOf/B2bxzcHC8bcHmvfgxMDBAw/r1kRAfr6QwDMOULti8c+QUJca8n3f0xqINx7DWyAz6uy3hERiPyIQ0YdxThWFORGIazfkejyRhrNPiopDqFwDnHftxdvEaXDXYB69th3Bu8Vpc0jPE/7d3HmBRXF8b//JPj6kmMc1UNYkppmmMPfau0dh77733hh1F7L13sIFgQxAUsGGX3ntT7F3zfve97CACGiSuopwfz3l2Z+ZO2ZnZZd57zj0n+vARJEUpoa/aUrzHn41Gol6fAjwK4TGRcNzuhKnWC2E9ezWmzlqDabNWYv7idfDxD0FUXBwiEyicYxB7Lh7RZ+MQk6TWVduIUMdy0i8M7ocCsd35JNZu3Ic9+wPgeTQQPiFq2wkJiFDrRWmL1tvwj47CkYBwOLifUmLbARYztqLrwAUYPGSeEu8LsFodx56tDoikeFfr6I6CM/HqGGiJap+JCI+/gJ0epzFtiT2mLXSE5Vx7WC/dgWlLt2Gb2ykERatzlfDw2W/NhYh3MTGxnGYi3p8sEeHhKF70D7zxymuYbj3dNFcQBOHpQsS72IMs24j3vQcDMG7Odsxc6YqFa/fgkG8UQuPPKdF6DhEJSpieOaPrrkfHxCEhSolqbz+4LlyOraMt4Wa1EIfnrIbLxJnYM2sRQg8eR0KEEr6RsQiJjkFYVCzCo+PV+3g9Fj0wNAYbt+zExKnzMWXmakybuwHjpy7DrAXr4XHYG4HhcQiOikdQVILJ1HrKAiLj4B8eD6+TkXDdHwK7naewYr0HdroFwMUjAAdPhONUYLyyaF3znZ54n5BYeAfH45hvDNwOBGHGYie06zkPbbpMx1iLFZg5bgnmWszB5pWbcfSID46fDsEx7xAcORkKr2MhOHwsDAePhMHzSCS2OPli4qztGGPliOETN2Hk1C0YYrkRc1ftw251PIdOhpnO5pNHxLuYmFhOs8cp3o8dO4GtDjvg6xeoLAg+voGZtsDgUDi77IOH539/AMhOTLOahrwffYyP3nsfFf4sh+joaNMS4WnBysoKW7duNU0JQs5ExLvYgyzbiPetO4+hU/9lGDxhI0ZO2wKb7cexY58ftu3xxq69vtjpql5dTsFFvbrsPg43x0NYM2EpFvQYjzWDZsDOYikW95iI+YOssMPGFa7O3tix+yQcdp+C4+7T2KamHXd7w169d9jtg2lzNqP3wBnoNXAO+o9cgV5DFmGoEtNrNx/GNhd/bHcNhL2zHxz2BMHBJRCOrv7atjr7Y+2WE1i67igWLPfCeOtdWLj6CJatP4b1dj7YtM0fm7f7YfMOf9jtYvsg9eqHLdu9sWVnEMZN24X6LaaiZ9/FGDliJcYPXQSL3tawUse/ZctRbN7mjY2Op2HjcBK26v0a+5NYYnsESzeexpQlh9B15GZ0GGqLtgPXoe0QG3QYvgEjrHdjwfrj2LjTx3Q2nzwi3sXExHKaPU7xfvv2HVy/cQPXrl3Pkl2/fkNv41nD090DgwcNNk0JTxNjxozRD6YvvvgiduzYYZorCDkPEe9iD7JsI96XrvdEqbqTUav1LNRpNxMDJ9phpNVWDJmwCSMm22HQ+A2wsHLA8PHrMXqcEr0jFqN7vf7oUL4NetfshqENBqBjudZoX70ThvSahpHDl2HY6JUYYrEKw8etxXCLNWrdtRg8fg2GjFuNpm3GoVTlzsq6oVzNvihdvSfK1uqLDn3mYMDY1eg5Yhn6cx3LTRgycQOGTd6oXtdj6ARbDB5riwGjN6K3EtFN281F36Gb0H/UBgyysMVIdayjpthjlKUdhk/YgGnzdmPW4j2YOmcHxlnZo3WnaejRax6aNx2HRn8PQ/vGw9FefY5OzYZi6tQNmLvEGTMX78Z09Wq9xAWzVu7DzBUemLHyAMbP34suw23QZvBqNO+7TL2uQ/uhNhhqtQszVhzG6i3HpVRcFhDxLiYm9ijsUYn3A/v3w3LSJMRnowoiTwsuu53Rv29/XL9+3TRHeBoYPXr0PQ+nIuCFnIyId7EHWbYR75t3nkS7ITYYYLkNg6c4YsVmbzi6RcHBJQxbdgfA3iUQDruDsV293+Xsjd1bD2PZ2GWY19cKa0YuwAb1fm6PiVgwbCYc1rrCZcdp7HDyxnbVdruzj1pPbY/vXXyxzcUHsxc5os/gWRgwYgEGjFyCnoPnYei45Vi10ROOLt6wdzqhvfYOTqeV8fWkWpfr+2CT4wmssj2MxSsPYpLVDsxbsh8r1x/CRvvjcNil1t1+Atvo8VfrOOw8CieXk9i1+zi2Ox7CuuU7YLPYAfMsV2DikFmYNWoBZg6bgdkWc+C01QNue47Dbe8p7HE/BRf3k3A74AsXDz84uweo4/aF5ZytGG65HoMmrMXA8WswzNJWCf3d2LEvEIeOh5vO5pPnaRPvo3d0wiqv2TgVewrHoo/haPRRMTExsYeyU0rAbzy5XIn3tv9JvCcmJsLHxwd3/pESTw+LiPenD2tra3z66af4/PPP8fbbbyNPnjz6fYECBdTzkJuplSDkHES8iz3Iso143+58An3GrMWkebswffEuOHn445h3FI77ReFUYKROBucbHIOAoGiEBIQh/Lg/9i6xxcYRU7Bn6hJ4zbXBNgtr2E2YAW/n/YgMiEQYS7dFxadYcFQsQmLiEBQRA7vte3SpuAlTFmGS9UpMtF4By9kr4HroBIJjVPvYRIRGxyMy5gyi4s4qYwb5MwiNSYB3YBT2HwmE2/5grN1wAI67TuOAVyhO+UQgIioJUTFJiFDrhal9hoRGIcgnCMHH/BDkcQx7Vm3CignWWDJuOmaPmIrFY+dg6dgZ2DhvKXy8jiIqLAJR6jij1HFGxMbqbPvMWh8aG68EcSJstx/AtEX2mDJ/qzpXWzF18TYs3uCCY+rzRp05ZzqbT56nSbx7xx3BjL0jMHPfKMwSExMT+082GlP3DMKxKE/TL8zD4efvh26du6JqxUo44uWlw9unTLZEuT/LYtiQoRjUvz9KlyyFv+vUwVZ7ewzo1x/VqlRFiT+KwcXZWW/D29sbHdq1x9QpU9Cze3e0b9tO/V+J0ssuX7mMESNGYPTIUejbqxdqVa+Ozh06YPq0abh95w5WrVyJwQMHonPHTqhWuSpc97jq9Z4WRLw/3UyePBmOjo6mKUHImYh4F3uQZRvx7uxxGsOm2mDKQkfMWuIA98O+usZ7VAIFbCSiEyMRGx+JuLgInImJQFJQEA6sWg9ny1nwtF6I43NWwGnUZGyfOBV+u/fgTEQYYlU7vU5CtHqNQrQuFReOsOgI7NjpjKlW8zDFapHOOD9t1grMmLcc+w4eRUxiPGISYhCr9h2rhHOMsmg1HX0mRh9PcEQUDh33g+fhANhs2QdHJy8cPOqHU76BSuwnrxMdq/YdFoQ4P2/47XLB9kmzML9ld6zq2B9LOw3Asn6jsWL0NCyxsMbC0ZOx2nomju1zQ3SUOu54tR9lkeq4o8+q/SbGIFxtMzAmHg77jmDe2p2YtmQrJs+3w4xl27HU1glepwPVcUu2eUEQhKedbQ6O+PrLfPBw99DTiQkJKPRjIcybO1dPX750CZXLV0SHNm31NKlVo6a2W7du4eiRI3DevRvnkpKwfNkyfJ0vv34lHdu310L/ktoGad+2LapWqqzft2nRGn8ULoLhQ4dqAV+nVm2UKlYcp06e1MufBkS8P91MnDgR9vbyzCDkbES8iz3Iso14d93vjVHT1sNqsSOmLrSH+5EARMbFIzwmFFGJ4UqYRiBBifjE+HCciQ7FpdAgHF+/AbsnToPntLlKvC+By8hJcJk0A4Hqn/f5iBCcjU9eJyEhAnFnItQ2IpUojlYCOwa7ndxgaTkbk6bOx4SpC5TNh9XMRdjttk/XlY+IC1dtI7Tgj1L7jEoIR3hcGCLU+n7B4fDw8lbH7Asbu73Y6nQEHkeDcMQ7CCFRXDcCUXGhCD15FJ5r1mPnWCssb9oNw3+rhHGl68Kx/3hs6jsWS7oNg40S76vGWynxPgOu2xwQFh6MEHXsYdHhajuR+jhoobFR8I+OwXbPo5i1whFzV+5S58kO1svssWTDbhw46Y/YxETT2XzyiHgXBEHIGps2bsQ3+QrA0yPZex8ZGaXF+6yZM/X0+fPnUaVCRe1RN6hT+y/UrlkLN2/e0F71P0uVRmhoKM4knkHhX3/D0sWLdTvmRenZowf+UsJ8jGo3ZtQonDt/Djdu3EDFcuXRtFFj3c4gJjoaXl5e2Safyr+xe9du9O7VW8T7U4qId0EQ8S72YMs24n2PxymMnLpe10G3XmyHPQdOKKHMOudRWjjHKouPp3iPwDklbC+FBOLkhs1wGDUe7lZz4LN4DXaPmgxHi0kI3OWEc2FBiI8IRlxUCOJjwxCnhHdMfJjaVqQS71FwcXHHhPHTMXLMVEyyWoCx42dg8qSZcNrljIiIMERGhyI6NhwxSohHx6hXtY1Y9RoXHYXQwDAcOeiNA55+sNu0F9u2HcThQ4HwPhGCmPAYxEWqddTxxfv6INTJDba9R8Cq7N+YUKQa5ldvheFFq6Pz96Vg2aQz7K0WYe0Ea8wdNRYumzYhKjAA4UFBiAwJQURwiHoNRnhgIAL9A3HaPwRO+45izmJ7LFi2EzMX2GHeEkcsVmL+wAFf9VmzzxdcxLsgCMLDE58Qr0Phv/j0M1hbWWkv++YNG/HVF1+ia+fOOJd0TmdUL6IEeZWKlRAQEKD+Z4WjdImS+OO3InDf544B/bn+p2jXti0GDxyE3376FSWLFdfrrVi+Ah/lyaPb16peE9WqVEHnjh0RGRGhxT5D5T98Pw+KFflDb3/Z0qWmIxME8yPiXRBEvIs92LKNeHd3P4WJk9Zi/gJHLFiwGR57jyI2JBIJASFIDAjCWSVqE328kXDqBBKPHcUFryM4unQlHAaNwt7RljhuNQ87+o/EjuHj4b1uI2I99yPC0wMR6gOGqNcQTh/ygr+rO3xcPOC4ZB0m9BuFcf3GYvzAiRjafQhG9hiAlVaz4OW4E+42G+FpswF719io103Yu84GTitXw3WtLXYsWYs1UxZixeTFmD1sJhaMmgfb6athM20pts5diR3zV2LnvKXYMWsRtk2agxVdh2FMufro92MZ9Pm6GIb/XhW2vUZjVZ8xGF6jOYbXaoahdRtjXNuOWDhsDGb2HYY5A0bDqscQTO46AFY9h2Jqj+GY1G0EejfqiQblWuDvcq1Qu1QTNCzfEg3+bII2lVpg1uBJprP55BHxLgiCkL3w8T6NX34shJ1psnivW7sWQwYNxs2bN01znm3olQ8OCsJ+T0/Ex8WZ5grZARHvgiDiXezBlm3E+/ypi/HLx8VRqVBNVP6+KtqWbYK+NVqgf7WmGFKrBQZUb4bBSuj2rVAf/ZUNr9YEPX4rj9Z5f0Lnz39Dv4Jl0PHzwmjF98VqYJRqP6hyAwyq2gQDlI2q3x5D6rTE8L/bYlS9juhYuh6qFSiFat+WR/Xvq6DKt+VQuUBJNCtSDcPqdcDQ2q1gUb8jRv/dHkPVcYys2xYWjbtgZL1OGFanIwbUaI++1TugTclG6FCmKQbU7oJ+tTpiyN9dMKJeZ3WsLTGsZmu1/+YYXLEJ+pSqi1ZfF0fbL37D0EIVMPKXiuhbsCS6fVcSfUrWwKBqjdGj/F8YWLsFBtZpq0zto3Z79KnZFv3V+941O6Bfne7oXrMnahdugpqFm6LGb41Ro3Aj1CraBE1Kt8DUXhMYE2k6o08WEe+CIAjZj5MnT2LK5Mno07s3LEaPxsYNG3UYfk7ixvUbWLhgAXK//TZ27dxlmis8KZh/4cyZ5Jw9FhYW2Lx5s34vCDkVEe9Pl+XNmxeFChXCyy+/nOHyR23ZRrwvsV6N0l/VQJ2irVCncDO0LddWCeHuGKZE8ZCanTGiTlcM/6sLhv3VCUNrtsdIJWZ7F62Dbt9UwIAfqmPYb3XR/duK6FKwEvoUqYNJtbthUv1eGKPWG1mHYlqJ4Kqt1fodMbhWe/Sq0hr1fqqGvwpVx9+//Y26yur8VAttSzbB6Aa9Mbx2VwxV4nxETbX/Kkr4V22H4bU6YUzdbhittj2wUjsMrN4ZrYs3RpfybTCgamcMrNxBrdcFg6q0Um3bYFTtdhhWpQWGl2+K4aUbotf35dC3QEmM+PZPzKnSDHuGW2PT4IkYoQR768Ll0fbX8uhWpg46l66LjqX+Rg/VpkfVFuhSqTnalGyAnlXbo03ZVqj+09+o/GN9VPi+Hir/1ACVfvwbjYo3xZgOI7JNaSER7+bhxq07mL0lBDFnZDynIAjPHmFhYbC2moZBAwZi9apV6NW9BypXrATb9etx+vRp9O/bD9UqV8GIoUNx6eJFvc61a9ewYtkyjB45Ui/na1xssked2+M0hyD06NpNZ+gnO3Zsx8cffAAXZxed5G/8uHFo3bIVbNR+rly5otsIj4fdu3djqWl4Bs898y/cjwsXLmgBIDkNhGcZEe9Pn3351ZeoUbMGiv5RFM8//3yGbR6VZRvxvnTKfJT44DfU/qEa/v6+KjqW+FuJ5iYYVLYuRldrhuGVGsKiejNY1GiGIeXrYnz1Juj9Qxm0/+hH9Pj0FwzKXxTdPy2Eznl/xOAfS2NSlYYYq2xM1UYYpWxkjSYYU7sZxtZtgWHVG6NriRr4+9uSqPNtadT5riyqf1MSNQoWQ8tilTC0TlOMb9gW4+opAV6ruXptjbHKRnL9+m0xqk5r9C5XX4n8ruheuTm6VlTHV7czRv3dHmMbtMPkFp0xtXUnTGvTGVOatodVg7awrNkMs2q1gmWx2phbphE2tRyARW37wqpNT4yr2w4j1Geb0LgjHC3nwWHaAmyZNg92MxfAdtpsbJm5EJunL8aWGSuxbNJiDO8+AQO6jEffjhbo19kCQ3tOxswx87HPbo943p9xKN7nKPEee1YeXAQhp3Dnzp1HljCO2+H27kfafT2JRHWMBvg6XwE47XLS04wWeOeNN7F65Uo9ffnSZRT++VcM6j9AT7u67sHwYcNwUYn52JgYlClREgPVMh57uzZtUez3ovD18cENJfhOnjih1+HQAeYVmDhhIoYOGZIyX3h4bt++jbVr16Jz585Yvnw5mjVrhipVqmhRbhASEoJRo0aha9eu6NSpk+6IITHqeg0aNAgDBw7U997Ro0fRpk0bWFpa6vrv1atXx6JFi3RbhtOzDvwXX3yB0aNHIykpSc8XhGcNEe9Pp73y8iv45ptvUL58eRQtWhS5c+fOsN1/tWwj3j2cD2PayMVYaG2D+VZr4WSzG5FepxF/7BQSj59G4knaKZz19kHSKR+cV/P8NmzFfss5OGw5F76zl8FrwnQcmGiNoPVbcNMvAFcCAnEpMAjn1T+NC6EhOBcSjKSgYPUaitP7DmO5EsSLZyzDsjlrsJw2ewVcHHYgISIcZ6PCcDYyBGciQpAUGYZz0WFIDAtBfFgoogOC4evljaOeJ7HDYS927zqI4/tPq3mnERMYjJigAEQH+SAuyA+Jwf5I9PdFnPdpxHodQZj9Ltj3HoXJZepiYvl6WNp+ANb0G4vlg8dj28LliPP1U+sFIzY0FDFqf9HhwYiICEKoeh8aGon9RwNhOX8Txs3agBGWK2E5dwumzLPDBseDCInIPl9wEe/mQcS7IOQcWK/9DyU8mTn+wn8MbY+MjESblq3wSZ4PcejQIdPcu/iofRX7/Xf8Wbo0rt+8roVvFyXGunftpj3bj5N1a9fhu28Kwnl3ct16CusP3nsPdlvs9HTSuXMorh6M+vftq6c9PTxQtnQZLF2yVHtma1WvgX69++AfUycF16/7Vx28+tLL6NiuPW7fuQ1n593I9/nnGDJwEL7OXwATxo/XbYWswYfJPHnyYOvWrXraxcVFP2QyBN7BwQH58uXTyRXJ/v37kStXLkyfPl1P9+/fH8WKFUvJucD3bdsml0Fkx83HH38MV1dXPd2yZUs0bNRIvxeEZxUR70+/MZS+Ro0a+O233/DSSy9l2Carlm3Eu/t+H1hYrofVAmabt8f2vV4IjohAhBLOEZHBiIwOQWRUMKKjKGgDkRgaiCiP/XCdOhsu46fCd/Fq7Js0HdtGjYfPxs1I8lfiOTgQsUr0xsREIFwJ8Qi1blhYEILV/P3uBzB54nSMtbDGlKmLMNFyHiZMmon1tpsRqNqEq/3FxjPbvBLRsTS179gwta1IhCjxf/DwSew9eBJrNjthvYMb3A/748hxfwSHqmOOjlDHG66z1etM9eozJERHIknNvxgZDu/tTrAZOBrW1ZorEd8Ik2t3wOwuQ7B98XLEh4YgXn3uWNU+Jk5ZPGvcRyEiPgphcfFwPegNq4X2mDhnCyymrcfEmRsxe/lOOLqcQGTcOdPZfPKIeDcPIt4F4eng1MlT2LJ5C7Zs2qy9weTa9esIVAJmn9te7Yl0U4KEoeFBgUFaaDKB2qqVq3DowEHdnnRQYpNh48ePHcNGW1s4KiF09sxZ09JkuGzTxk1a3CamKRkaGx2NHdu3632xLNz3BQveI97pAd2+bTv2uOxBs8aN1b4q4uq1q7iuBHuAvz+8Dh/G1atXcEZt94ASXadPnYL3aW91nCux180Nt27fMm0JWny5u7tjq5099rm6IVT9r4yMiNTbyixXLl/Wpe7eeeMtzJ83T4dRr1+7Fi/833MYOniwXr5/vye+yPsp6tSujaSzZzF6xEi8+drrOunelMmW+EaJ8d8LF4HjVge0a90GUy2nID4+HksWLUKNatUQFxuLaVZWeptLFi/R22D2/vfeya2vx4ULOSsHwKNg3759+PTTT+Gm7gkSq87xm2++qUX3ihUr8OKLL+oHdxIUFISC3xbU9xAZMKA/SpYsmRLlUbx4cXTr1k2/9/Pz0552d7V90ljdo/Xq1dPvn0RUiCA8DkS8P/1GD3zNmjV1Z+SjDqPPNuJ99z5vDJ64FpPm2cFqsR227jmM4JhEhMfHJZeLo5BOCEdcnDIliM8oER2uHnCcp82Ck8VknF60HG5WM7DDYgKOrV2HxEA/JCjhHqfEMuuuR8apbcQqEazWC1XzPDwPYc68ZbCctgBTpi3WxvfrN9sjMCJE13SPTAxTwjkMsQlhav/BajuhCFeCPCgsHF7H/OFxIAC2W9xhu3kvPA9SvPshJIJ15KMRpfYXHR+hxLcS4gnsPAhCTFQIzilRHnniFE7tcsWGKbMxr+dITGnRFwv7jIH9/KWIDPRHVFgQoqNDEaH2FaHWDVOfOSQmQlkcPI+HYNaKnZgwxw6jp67D1HlbMG3BZmxzO6ra3vtA9yQR8W4eRLwLQvYmWonlUkp8zJ09R4nyQCxevFj/s6UnmNgrgZ33o49gqUQmw40P7D+A3G++hV49euhxvEym9m2BAhg8aJBu37VzF+T74istXuh9nzp5Ml5/9TUtMunJLFqkCGzWrdedAqOUiOW+Fi1chNt37qD+3/XQtVNnvR3CRHX5lBA6eeIkYqJjdOb55UuXmZYCTRo2QsUKFfRxUNA2rF9ffZYSOH/uvE4oRu/2nyVLKSEch4sXLuhw9LatWul1KfK//PRzbHN00NMU0Z9+8gn27d2bLcYnyxhp8+Lp6YkPPvgA1apVg8VYC/RQ97O/v79pKXD8+HE0bdZUh8wz5D0gMNkLHxwcrEPpGzSoD3t7O+2xb9CggW7HsPuZM2eibt06mDhpIi5fvoKD6qH177//1l77xx0RIgiPCxHvT7e99dZbqF6jOj777LMMl/9Xyzbife/BAIydZY8Zq5wwZ60zNjgdhn9UIkJi4xBGAZ8Yi+i4GN2bGxWj3iuRHHLoGFxmL4bThOk4unANdlvNhcNYKxxcZYtY/0BEhoQhPCwKwVFRCIqJQkh0FAKVcPcLDYOz+yFMm7sCk6Ytw9SZq2E5fZV6vxhrNznCR/0zCYqMQGhsDELj4pTFquNQ21GiPCg6Ab6hifA4FgbXA2GwdTyCDTuOwuVQEA6eVsI+NglBCWcQph58IpLOITLponq9gOD4M/AJj4ZvcASOH/OGl6cX3La5YP38tZgzeg4WTV6EzWvs1D+0SARGxCNQ7ccvKi55HTXtF34W/hGX4XQ4HBMX7cKYObswzHorLGbvwKSFTrD3CIJ/3GXT2XzyiHg3DyLeBSF7YzVlKn78/gclpgN1IjQjFPiOEup8T0GS7/MvscHGVs8/cuQIPvs4r66/blCqRCkt2knHDh1QoVy5lIzw9DwzlH7Y0KGYN3sOfihYEBcvXdTbZmcA4etuJyfk//JLrFx5d7tLlixBwa+/UYIpCBPHT0D+L77SHmmD7p07o0LZsrh+I/n3pWf3HihTsjTOJSXh6tWrqFqpElo2a6aX3VL7q1m1Glqo6X/UX5L6f9ekcSNUKl9B77tP7z5o37adElzZ5/+SYB44DGHVqlX43//+pzurBEH4b4h4f7qtSJEiqFu3LipWrKQjkDJq818s24h350Mh6DbeBkNmbMWIWY5YsOEwdh+LhbuPstOR2HcyDB7KnA76wvmAL9z3+2G3vTsWWMzF/MFTsXbyEiyxmI3ZAyZh8YSFcLT3gO3WA1ilbIXdAazddgTLt3io9/uxeJMHpi7Zho4Dp6N++9Fo3GkymnezRr12E9B12CJYLXWC1fJdmL56N2atc4PVsl2wXrFbieTtGDd3GyzmbMfASZvQw2IdmvWZj6Z9FqL72A3oPm4D+k/dij4TN6HbWBu0H70K7UatQuvhK9B88GLU6jwVtdpbolmPGbCc44iOfaxQsWpPVCnXG2XLdUOtJsPQfuA8NO05E60GLUK7ESvQatgStByqbMgyNB+wDFXaTMevf43Dz7XH4ruqw1Co5kj8WGMUijacjM5j1mWbMDIR7+ZBxLsgZG8SExJR9LfC+PD9DzB+7FjtIaeInT1rlv59dtjqgHffehurV67S7T09PPFWrjcww9paT1OEF/rhB+0FJ+3atMGPBb/TXnyW1JpiaYlqlStr7zczqf/43XcooES65eTJOllYqxYtsXnTZu2VrFWtOj796GOdqf3YsWNo2aIFcr3yij4WXx9vLe45zp2h7ocOHkKxon8g3xdf6jB6Jg9r1rSZFvv8TBTvv//2G2pWr66Pi9MlihXDX7Vq6emw0FBUVMJ/YL/+cLC31+PVGV5/4+b9M4cLzwbsLDI6qVJ3IgmCkDVEvD/99txzz2nLaNl/tWwj3ict3IncRXogX4XByF9pBH6uOx5VO89HlQ7WqNFpOur1WIBanWahZpfZqNNjHup2U68tJyvR2x1lS3TE37UGokY1JYKLt0W1an3RsuNM1Fft/+oyH3W6LkL93stQp9sC/N19Mer1XKaE9AL8WGkQCpTshe8rDMMPFUaiYLnB+KXqULWf+fir6zzU6DwLtbvNU/ucg8ptp6Nau1nKZqNa+zmo2mYWqrSejVKNpqBYvcmo3GYOKrXhsnlq2wvV9ExUbDMDFVpbo0xzS/zZwhKllZVoPAWFqo3CH3XHoFz9UShSoj2KFG6O34q2RomqfVC5mQWqtpiIso3Hq22PRbH6Y1C0/lj80WAiijeYjJ9rWCBf2eH4osxQfFl6AL4qOwBfKvuxlgWa9l+qHg6lVNyzjIh3QXg6oNAOCgjQ2bQNLl68gIjwcCWGExAVGYVz587pMHuOU2dCuYSEeDU/EvFx8Xo9wyvOLOq+3j46qVxG4d/Mus2w+bi45PJoqeGYcT9fP8TGxGqv/QVTeTUDjmX38/XVYfH07l+5nFwmjVFuMerYEtSx8pgjwsKQoI6Hx8V1uJz74/TZs2exwdZWl3ULDQlBcFCQHqvsqsfRN8ERryN6m4IgCMK/I+Jd7EGWbcT7+Flb8cZ3HfFZyb74qvQQfK3E9B+NpqJMsykop0Rv2abjUb75RPzZdALKK9Fevc0U1Gg0GiWKt0exn5qh6p/dUa1sb5T6tR3Kl+mBZm2moW5ba1RoPgGVW1uiensrVFSvNTvOQN2uc1CxxST8XKkPChTrjIKl++DbP9X7Ut3xc5X+KNdsghLiU5VZacFfu8s8JcpnoaYS9TU6zFXzFqFiq+ko02QqSikxXqz+RFTrOB+VlLiv3nkBanZdhGqd1Hpdl6JOj5Wo3W05GvRZi2qdF+EvtaxotaH4sWQ3/FK6B376vR1+L9YGv5fugPJ/j0DdTvPU8S1C1fazUbnddFRuP01ta4ayOajZZT6KNbZEgSoj8U21schXbijyVx6OAtVG4Jf69LxvNJ3NJ4+Id/Mg4l0QhOwGIwrmz52L7775Fr//+pvOjl+9SlVYjLG4p/NCEARB+HdEvD+dxrHu33//Pb766iu8+uorePnll83ifc8+nvcF9Lz3xjdKjH5XYzQKN5isPe+1u8/D3z3n4q9uM5UYnoW/e81Foz7z0LLPHLTtao1qFZVoL9EObeoNQaMavVFNCeG6VXqha89Z6DRoIVoPmI82Axeiy4iV6DpyNbqNWo3uo9egq5qu1twCxar3Q4m/hqJY3eEoWmsQyjUaiS6jVqH3pPXoO3Ujek5ch65jVqLf5A0YMHkT+k3YgN5jbdFzjA16WmxA5+Hr0KrvMvQZZ4cBk+wxYb4Lpq5wxfTVrpi2fBdmrHLGXJt92hZt2ocVG/diouUyjBhsjRH9Z2Jkv5kY0Xcaxo2YixWrnODo5g0719OwdzuNnYeClAVjp1cYnI5EwdEzHHPXe2GQ9Q51XA7oZ7kN/ac6YvhcJyyyP4n9PmfUU5TphD5hRLybh9DYK1i6PRwXr9zN8CwIgiAIgiA8G4h4f7qMAr1EiRI6YWelSpVQqXIlVK1WVZeKo5hPbpPxulmxbCPe9x0KxYR5rpiy1B1WK9wxx8YT+/2T4Bt9UVkS/OKS4B9/FoHxZxAUm4CwyBhEBYbCY70ddlgvwIFF67F/sQ22jJ6CrVPnI8TrJOJi4hCVmIiIhHhlcQiPT0SY2k5ozDn4hyXAZoMTRo+bi3GWyzHBeg1GTliEKTNWwvNoAEJVu5CYM7p9ePx5NX0WoQlJCIo7g4DYc/DyjYKrEtZbnX2w0tYDTu4B2OcVjBOBMQiOTURIXCxC46MRlhCjTO1bHUNoTDQiI6Kwb/tuLJ0yG8unzMeqKYsxf8RULB47HUfc9iMyJhaRDJ08k4jIRPV6Vh2/+gxhcQkIjkrCjn2+sFywA2NmbMWQSesxbuZmTF+6DS6HA9V694ZDPkmeZfF+89ZNPR70cWKMJ3Q7cQY2rlH6/b8hY00FQRAEQRCeLkS8P13GZJ0sd1mlShVUrlxZC3i+litbDuXLl0e5cuVQoECBR1YyLtuIdxcPXwy33ITR1psxcYEDZq3diYN+EUr4nkV4nBK/ibGIOBONmMRoJChRnBQThcQAPxxctQo7xk2C17zl8F5uC6dxlnCePgeRR4/hbGwMEuKUqfXik6IQfzYGcYkxiFbbCIsKx2b77Zg0dR4mWi3BxBkrMGbyXEybvViJ9+NKNCcg+mwcYpISEHc+EfHn4pXFIuZMFKKVGPcOCoPHYX/scvXGuk37sNP1ODy8fHA6OEx3FESpfUadiVTbiUZ0Uox6jUE4a7ZHhmGfwzYsmTwNiydZY8k4ayweMwVLJkzBkT2uugRevGoXz2M+H4u4c+qY1bHHqOlIJeK3q/2wnN7YWXYYOcVGifdNsFpsjx3uR5R4P2M6m0+eZ1G8MwHUkKFDdC1blrd5HDCj85gxY3QJnqjwIBzwu/Sv4j1EHVuhQoXQtm1b0xxBEARBEAThaUDE+9Nl9Lz//MvPqF69uhbtqY1Cnh55ivhHlXk+G4l3HwyfshHDrTbAYs5mzFm7Awe8AxGmhHrMWQpvCtoIJCaG40x0CM5FBuOivw+8liyFXd8hcB49GcdmLcHOQWPgMnEaIlzdcTEiDPGqbWJ8mLb4+FAkJkQgPjYEURFBsN9ij7FjrWAxbhYmKwE/ftJcTJ8+H16HvRAbG4nYhEjEJUQhIUEJabXfWLWNmLhwRKtlfgGhcN9/GrtcjmH1+l3YsecQ3A+fgndgCCLjlGiPC0VMQhhi1Xoxar3YxEi1rjqOiBAcdHTE6slTlWifiBXjpmD+wBFYMnwMjmzbhrNqeVJsBJLUNhJjQpEQG4w4ta1Y1nyPisS2XQcwZc4mjJ+5ESMsV2HCzPWwmmeDnS4HkBCXfb7gz6rnfcuWLfjhhx90cidnZ2f9pVy2bBk2bdqEmjVrYvjw4ejcuTNKlCiu2xKOB2Wt2mHDhqFZs2aYMmWKnr9gwQJUqFABNjY2OHz4sO6x69ixo04ExczQLDNx8tQp/WP37bffIjIsCKcibqPd4CUYPWIgGjdujN69e+uEVGT9+vVo166dPgbWluzZs6eez1q7Xbp0wYgRI9CyZUv06tVLHy+Pa+68uXobtWrVwpw5c3R7QRAEQRAE4ckg4v3ptI8//hhVq1ZN8cDztWzZssiXL59+Lv/tt98eSe33bCPehWeL1OJ9z7GtprlPP9u2bcNHH32kve+zZ882zYWu58wvqKWlpZ5mrdsff/xRZ28uU6YM+vTpo+cTCvY///xTv+/Xrx/++OMP/Z4C+8UXX0RoaChmzJiBrVuTz9v27du1eA8N9oOdaxD+7jQVyxbN0WWhuN29e/fqddmzZ1C/fn106tRJv//555/Rvn17/X7w4MEoXLiwFu4U8rVr14atra3+LDwWX19f3U4QBEEQBEF4/Ih4fzrthRde0M/0fB5P7Xk3hDzHwdPRlz9//gzXz6yJeBfMgiHea4/8Cd1n/43hy9pnW+u3oCmW7pxqOvIHQ/FO8bt//34ULFgQzZs3Ny0BSpUqlSLeV65cqZNUkDp16uieNmOcPL/IQ4cO1e8Jx8K89tpr2kO+aNEi/cWkeDegh59jZeJjwnEk+AreLlANM6dN1lmc2X6X0y4MGjQIr776qhb+hD8UjRo1wo0bN7BkyRK0atUKS5cuhbOLs15O6HF/6aWX4OrqiqioKIwdOxanTp0yLc08h/3d0Hd+4wzPrZiYmJiYmJiYWOatg3V11Bj+g4j3p8zy5s17j+fdEO3FixfHl19+ibfffjvD9R7WRLwLZiE8PhB9lKAbsLAFBi7K3tZjTj0s3DbRdOT3h2Pevby8tLGGMesfHz16FJ6enlr0MvT9yJEjiIiI0GHvbBcUFKTXZb1mhrU7bHXAhQsX9DwDbsdod/v2bfj4+qQkqOP0iRMn9LZ8vE9jz7FErNgehP3uLjr0neH7Bqy5zBB8inl3d3e9HpcPGDAAq1evhpOTk/ayU8j3799fr8P6zPb29tq7T6GfFQ74uqD7rLoZnlsxMTExMTExMbGHs/4LmmKYEvIXrySZnraefp518U7LnTs3Spcurce/a2+7EvPMQ8WycRm1z4qJeBeEpwjX44mZzjZPzp07h759+6J4ieL6R4Te+HXr1+kwf0EQBEEQBEF4HOQE8W7Yq6+9it9//12H0FPIV6xYEe+8806GbR/WRLwLwlPEw4p3QRAEQRAEQXjS5CTxnto4zLZylco6dJ6Z6TNq8zAm4l0QniIyEu+JiYlYuHChHtPOEHxBEARBEARByE7kVPH+qE3Eu2AWfMOPodyAL1Bl8DcoP+BL/Nnv02xrhbu+hT7zG5mO/NFw/fp19OnbB5GRkaY5jwb30+ewxfOuQLfdYIsiRYro9+Hh4XrM/ePGfv8q/NL59QzPrZiYmJiYmJiYWOatwsB8qDgwP2qN/AlnL8SbnraefkS8PxoT8S6YhXtKxR13MM3NGXCc+cCBA3Um91mzZulkcZ9//jm+/vprncSiW7duWLNmjU5gsXHjRl33cdSoUbpeO8elv//++7pWfK1aNXXNSGaQZxK8Ni0bY/ZqNxSq0AkL51rrpHgcR8NM9nPnztUe+PU269G6dWtdQ57l7Fj+7dChQzoDJutMskQdy8YZme8FQRAEQRCE7MMq55lSKk7svibiXTALqcW7yzF709ycw+7du3XGSQpq8vfff+vSbAYUzxTcQ4YM0YKaywnLurFGJDPbM+P8Tz/9pGvGM8Fcy2YN8fy7P6FF33kI8PPW7SdOnJjieQ8NC9Vin1noKeyZAT8gIEAvY8KMjh076veCIAiCIAhC9kTqvIs9yJ5K8U5vJg+emfsYnixkP3K6ePfw8ND36JgxY3TZNtaAZ73Hixcv6uWNGzfWiSs2bNiAn3/+WXvGHRy2YuTIkfjwww916Th629kBQIHu4OCAhvXr4IDfWRQo3hJNGtTWnvp27drhvffeQ2xsrBb4nTp10skw6N1v1qwZJk2ahEuXLuGHH3/QXn9j/4IgCIIgCEL2Q8S72IPsqRTvrH19+vRpHZ6cHbGz26Jra+dkcrp4Nxe7DkXD/sDd2u73Q8LiBUEQBEEQnj5EvIs9yJ7asPmoqCjtmUzNhQsXEBCYHCZM6L1k2DDDjzMiOjo6pQMgLi4Ofn5+iImJ0dPkxo0b2qPJNufPn0/x8vOV8zmP+zS2Tw8nPZ88sS1atEBSUpL2dP7zzz96eU5CxLt5kFJxgiAIgiAIzy4i3sUeZE+VeKdoHjZsGPLkyaMP3hgnvHbtWh16zHlvvfUWCuQvgLJl/9RjjD/J+4meP3ToUN2W4rxt27Z48cUX9XyOKeb2ChcurBN8cR6NY48Js4UzPJ/zjDHLDE9mx8APP/yg58+ZM0d7Og8fPqzbcF7t2rWxb98+HD9+PEd6QUW8m4ecKt457KBDhw6mKUEQBEEQhGcTEe9iD7Kn0vO+bNkyffB169ZN8WoHBgbqsb/vvvvuPbWud+3apdsyozeTgBkwCzfnG6LeYO3aNfjf//6nxb1xcoYPH67bpg2F55hizp8/f75pDmBlZaXn5XShIeLdPIjnPT0cRvNvXL582fTuXh409IaRNYIgCIIgCI+TZ1W8M5kykzSL/Tfz8fExndGs89jF+/Lly7VArlOnTop4Z3g8S2zRwsLC9Dxi9PL8+uuvuHr1qmku0KdPHz2fJbpSw+zgLOHFZbucdul59PZzOq14b9q0qZ4v4j09It7NQ04T7/x+M4KF3ykm5+MQlf79++vpOnXr6JJ7xYoVw2uvvaajXhYtWoRPPvkEDRs21OuxXJ+Tk5Mul8d17Ozs9HbZ8Ve+fHkdWcPvKpeNHTtWR8pUrlQZLi4u+jcl97u5UaFChRw59EUQBEEQhMfPsyrehezDYxfvq1at0g/bRtg8CQ4OThHvkZF3x8Lv3btXt6XnnWPYDQzxPnjwYNOcZI4cOaK97iVLlUzx1llYWOi2rVq10tOEmb5Lliyp57Pkl8HUqVP1vLZt2+hpjnm/n9fvWUbEu3nIqZ53ls+jeCf79+/XUTZubm562sbGRpfI41AWQhFesGBBHWmzfft2ndmfWfffeOMNHbVDGDXDuvsU75MnT9YZ/llPn9n+2RnAnBbh4eHaM0/hLuJdEITHDZ8ztmzZokuKli5VCl988QXeyZ0bH370Eb7Klw+///47unbtCnt7e51zRxCEZwMR74K5eazinUL5q6++0gKZ1qtXL6xevVqPiTXm1axZE87OzroMF8e0G/ObNGkCX19fvZ2+ffvqec8//zx++eUX7V2vX78+3nzzTUyfPl23MWBSuipVqqRs55VXXtH/TNl5wOlvv/0W48aN02Pb6fU3jo+dAOPHj5cx7yLeHxk5UbxTOOfPn19/3/iennR+vxwdHfX0woULtYedFSg4zQiZfOrBlh1zut02Rx0dw/dMJOnt7a074qpWrarzVTBnBj3z5NTpU8iVKxe+++47XZKSD8bMkcE8F4IgCObGKC3K37TWrVvrMNPUQ4MqVaqEevXqmaaSOXXqlH6+eU39djGkkk4IQRCeXkS8C+bmsXveHwWG553iWnj0iHg3Dx6nzmDTvmjTVM6AiSopyvkAy/dGBA1fGUZvTHMZp2lGe74a49o5TRHOKB121LFaBeedPXtWJ5ukx93w3tPjlbaahSAIgrlglNDrr7+O5s2bPzAXR7ly5XRC3PvBqCEOG3r1tdewfv1609zHw5Vwb8Q5rUC8yxoxMfOb80ok7tuAWxfOmu7AZwcR74K5earEOx/Wz184r3uvKd7/+usv7VmXutiPFhHvj46TwRdQrrc7inZ2Rekee1Gm5z4U6+KGP7q4YteheFMrIbMwoSVzXXAoTaGfCmkP/IQJEyTsVBCEx86ZM2d0Th562zOTJPPfxLsBh+yxis6v6nfucSXf9JvcHMf7/ITodT0Rt3kIYjcNEhMzi8VvHYGgmfXh1elrJLrZmO7AZwcR74K5earEO710rO/Of5js3T6TeEZPS1jso0XE+6MlIPISqg3w1MK9bO99KKNE/L4TZ0xLBUEQhKcNPoMw3war32SWzIp3g06dOiFf/vyIjzd/R6//lJY40e9XXD2xCrdCt+FmkL2YmFnsTrQzYmz74XD7fEjcu8F0Bz47iHgXzM1TGTYvmBcR74+egIhLqKoEfIlubtibg4U7vUgHDx7UCesYFp8V2HnH9b28vExzkmEETlxcHBwcHFKqVuzevVsnyRMEQXhU8LeLVS+YjPNheFjxTocFc4BwX+ZGxLvY4zIR74Lw3xDxLqRDxLt58A2/hEM+9x8PmRNgyUc+wLJUZFZh6Pw333yTrvwj8fXz1UNqtm7dqqeZhZ7ROU8KDuthZ4Wnp2eGxo4FJrXKsh0/Dj8/P/j7+2fJuC47Opi5PyvG3AJ8ZZlOdqo8rHE9niPeF1kx5jcw8iZklax2Igk5F5aiZFnLHTt2mOZkjooVK95TaSczMGN93rx5db4Pc5JTxfutYPW/InIH/gl1zHD5g+xOiAMQtUNvI6Plj9r0sUZsB8LV9Qm0y7DN02Ai3oVHCZ8lWP7byHv0OGBFJCZRPnr0qGnO40XEu5AOEe/Cg2A99pYtW2oBXqZMGfj4+OiSbz///LMuCdezZ098//33uszbFrst2tPE0m4ML+UQF/7IFi9eXP/w0avE98w2TyjmWIWiTZs2KPJ7EV0Xnh51JqZj9mZugw+/r776qh77TryOHNFJngYNHJiSD2PXrl1aHH//w/e6ugQFHrfFY2R1ilq1aunKEgsXLtDb4BjTHj266zBVfoYaNWqgY8eOcHV11cuzMzyn/HxZMSYIpHjm+U1KSsqScd2oqCgt5B/WuB5FCe8hVhN5WGPnA7N1s+IAExdmxRjB4aHuFZc9e7BHXe+HMd4fe9R6rJ7wX4zVVdar75CNrW2WjMnNli9frsspPqxxPX6nWb2BFWGyatbW1pgyZYouufqwZmVlpXNXjBkzRpd3fVjjeqxQMWjQoCwZ12VnYHf129XjX6yP+g2qV7++/p356KOPdAm4Tz/99F+NvzesdsPfLv7uZdQmrXHb7CTgvvYfOGD6xpuHnCbe/wlzxLmTNhjYuT4++fBd7FhuoYT4zgzbprV/lHj237MAdasUR77PPkTckTXJgjqDto/C2ElwPWALZo7phM8+fh8zR3dS/yxdMmz7NJiI95wNRfa+fftw4sSJdAk+Y2JitEOAQ4W4zOhc57MCHTGcz2cWwmefFStX6OpgH3zwgf5fzqSfqYdS8xnByIlEhwWreaR26HAZnTzcLh1DTJ5MuA86NjifnQN8ViJ8Ht28ZTNee+01bXwG4D4p5h8nIt6FdIh4F+4Hy69RmLOm+vDhw3Xm94FKNPOHrkiRIvohmPDHl/XbKQqIh4eHHh/KMpAU4anDQIcOHap/BPlDzhrv7BSgwGZJSIrsadOm6eUuLi66Pb2tTObEmvBr163V+zG8UvwR5YMuBREpXbq0rgtPKPBYY56inrBGPDsV+KPLDoO33npL/zDzR7pAgQJavAuCIKSFHUbvv//+Q3fuZdXznidPHu3tNyfZVbwjZpcWxrdNXucrvpuAaDUveicQtg3X/Lfo97p9oJ3657MdiHNC0on1WqDrZWr+nVD1PnIHEo+uvWfb3k7z8Obrr2HLwhHJ++J2VTvuz2iX2ricYvpqxDbYzh6MF194HvFHVutjQbjad9QOnD2+HrfplVfb0+sFqvXUfB7/uZO26h+Vk96H4T3Xn0dtj8esj0G1NdbTnyHGCRe9bfUxvZ/7LYzr3xI4syfZE6/aX/XbjAunkrd7J1TtV23b2Ab3yXacz+3p7T5hE/Ge82CkHMt2/+9//9O/aez037tvr34u5DMbO37J5cuXsXDBQj2PnZwcCkk45JLPnZxftmxZncCcDgB7e3v97MZnu507d+rnSD5v0knEttwfS4KzM7RChQq6w5XzKfhZupidA+Hh4boN57M0MaFzg171d999V8+nQ4iwE4HDMdmpyo7YTZs26SjIB1UZMQci3oV0iHgX7ge9U2+88QYOex3W0/xBnThxIqKio/D777+niHf2bH755Zcp4p3h4fyx41h1etwbNGig5xN6zr7+5msknUvCRx9/hGrVqqVUkOAPM3+wn3vuOe2hI/zRLlq0qN7vooWL9A8rf7QJPcGc3rEzOZyVWaAZJUB4DOydZS1mMn36dN1ZwB9d/iOh955eektLy3Tj6QVBEFJDEV6pcmXTVOZ42DHvhJ2i/M00N9lNvGuBrIT5HIuu+jf9j5+/xZJp/dCoZhk93bxOOSyY2gfFfyuID99/W7f9R4nWWhWKovTv3yPmlA0qlvwFJQoX1AJ29fT+KKq2EXd8HVaq7TSsUUoL8VM75+DtN16D6/pJ2LlyLL7/+nOsnjkQccfW4Vaq4+G2T++eh2+/yoslk3sh3Gs1Kpb6BbleewVnlei+HrIVDaqXxJShbRGt9vFn0R+V0H4TCUfXIu7oGhT7tSCmjegAH7dFeEOtU7VsYe09P6n2/8v3+bDKuh9CDq1CsV++RcH8nyJGvUf8brRrVBnVyxVBmNoO9/vcc0roqH3g6n6sUp+j2p+FEXZwBZZY9tbnZY5FFzivmaA7JN5583W0V+u3rFdBbW+ljhhIfY6flIl4z1lQCPNZjPcnI71SQ7H+Vb6v9DJGUBFGxL300kt6eGTqZJ0bN27U7RhhyedAwqi93Llza1FOp1FqGEHJ9mvXrjXNSYb74Xw6fozt0xHFeYsXL9bThF55PtdyPh1PBtwPo6Jy5coFb29v09zHi4h3IR0i3oUH4ezirH88GdY+evRoPY8/jvRwd+7cWfd60lvOnk+GuXPMN0PcOU1vOXszGZ5er149HaLOnksD/iBPnDRRJ4Lijz17OAl7WLk+PVfcJh9m+Xrm7BkcOnxI9+jyh3rkqJH64ZhhvPS+s13btm2xefNmfaxNmjTR4bl79+5Ft27d9DZXrFgBOzs7/PDDD6isHsbprWfnAHt9DW+/IAhCathRyLHovfv0Mc35dx5WvPP3lJ2eRpioOcmOnnd6kMM9l+H9d9/CUstewPm9OGRnjddfe1UJ1PHq6doD62YN0tO+LvOBBGfEKlHdpVl19G1bB7Ur/IFfv8+PS94bcSvMEd1b1dQP4p9/kgf2i0Zq7/XpXXPx/jtv4Y1cr+LrLz/BGSXak731d4/jthLmUOsX/rGA7hzQUQDn3LByWl/teb/ksxGb5w/T4fcHtlgh/MAKRCmjR/yfeGe0bVgZv/2QHzcC7fTYeqh5OOumpu1RttiPKFyoABCn/tdFbEfisbV46cUXMHlwG6ydMRCvvvIyDmy20svZmfDuW2/CckgbfW6KFPoa/TrURdTxdQjeuxjnT9lojz+jE7jd9g2raG88jz/1eX3SJuI9Z0HvOYUuv3srV640zb1Lhw4d9LJGjRrpaUZJPgrxTkcQ269Zs8Y0JxlGTr399tt6H3y2JHweZdslS5boaSLiXXiqEPEu5CQYas/QKIp2euMZLcAhARwjzxApQRCEjGDkUf78+VG8RIlMjXnMrHhnxwBzgTCniDFe09xkS/EetROBrovwv/89h2nDO2jx7mYzWT9Mb1kwDLjsiSVK1HPad/d8JbzXIvdbb6BB9dJw2TQVf/zyDd5+MxfsFg7H+H4t0L6RErNX98Nm9mC88fprCNm3BCe2z9brOy4dDadV4/T7Dk2q4HLAFu3953Ho8PToXZg+qqNePqRbIwQfWYOerWvpaYfFI5FwdA2+L/CZ3i6F99j+LVC59K+I81qNkztma0H+83df6eiBDk2qol/7v3EnwQUb5g7R2xjfv5US9K5Yad0Phb79AtGHV+l187z7Fr7N/ymOqON0t52sz0XDGqUR678FU4e10+vWq1oSc9R5qFH+d8yf0F1dP0f8VPArVC1bRHdEPK6Eepk1Ee85j969kyNDOOySv5up4TBIhrcfP35cTzP0nRGeFNipn8HGjUv+fjJs3sAQ7zSOWSfGqyHemdslNexA4PwuXbqY5gDNmzfX8xjRacAx8uyg5fyMxPtLL72IwMBAPY/PkY8TEe9COkS8C4IgCELmWL16tX7AY5QPx3bej38T7xy+w2ggjuHkeMzHSXYU7/RUX/TeqN9f9t2Eyz4btZebHmi+cprG6YveG3Q7jo+n91qPjVfvL5y21d7u6wF2elz4CSWkg9wWay8323M9Y3v0lFPoXlf7Pa/ach3jWFLGn6v1wjyW6oiAcyfX6/HuHE+uBX7kDh2+H+S2CBdPK1GqprmuXha1E2eOr9PLksfvq3Os9qPHxiuBHX9kDU7tnK2PwViPxvV4LL7O89Vn2YDogytwQx0Xvenaix+5HVEHVyJi/3J9bBzbz8/EBHfMB8DPlfIZsomJeM8YhpdXq15dJ/v1fAZL3DJZ3G+//aZ/K0uWLKmHTzJ3CCMxr1y+YmqVzMKFC/HCCy/otjT+bnJII4dQvvPOOzqqkklrCXMWGe0o2Jn4mDBnEufRw879cdhniRIldFSlMdTSgJ0ETGhsbIdDLGfMmIFixYrpaTp3GKVpYITe07hNjpt/nIh4F9Ih4l0QBEEQHo7DXl749ddftfimV4eVCFKXImS4Z+qEdVzGYUTt27fXniY+IBoJNR832TVhndizZ0+LeGc0TerSppm1BVsnofzAL9FofAkEh/tn2CYjY4g4RaYhCmlM1tuqVSs4u7ikZEIXMofheWe4/bOGiHchHdlRvHsd90OnvpboNWiKmFnNEj0GTsGgMfNw/oL5wjX5T2izrS1s167FJhubLNvalSux7yEzPguCIJgbJt1kbg1WzihfvrzOdpzr9de1ff7FF/ohvUePHjofBz1uTxoR72KPy551z/sq55kpnvfzl8+Y5v477MxjdE5q8f7Z559rL6+5q008S7DThefrs88+0+ewR88eunMkdUfq046IdyEd2VG822x2wpsF6qJivwOoPOgoKg30EjODVRl6CkVb2eKLn+ogJi7z/3QeFor3LRs2wNfbG0nqRzUhLu6h7dzZs1q4u0lSOUEQhP9EdhTvDDfPbuO101p2SwaX1nh8t4IzXvakTMLmM4adeM2aN9NVb1hjXMgafL6kWGe+EGaz5xh75hF5lhDxLqQj24r3/HVQrpcbKvT1RPk+7mJmsIoDDqNI89WPTbz7nD6NMwkJiIuJeWg7m5iIvXv2PBHxHppwGa3nHkC7+QfRYcGhe6y9slazD2DzoeTMp+ev3MTwdSfRas6Be9vNP4QWs/bD8Wi0bhd55ip6Lz+qt5uundrekZCzpnZX0HbuwXT7bjvvIDotPITjYcn1Rk9HnkfnRYd127Tt+BoQkxxZ4eGXiDYZfBbO67nsCM5cSg7VczoZh8bTPe5pQ+PnGrr2BM6a2tkfjkJrNY/HnbodPxfbXb+VXAZwhVsomqvPn7oNjfOmOCSPZSOztgeg6UzPdO147ubuuuuNmL7NHy3Vecqo3YLdQbrN5eu3YLHxtD6fads1neEJe6/k5Dg8xr4rMr4WnLfzeIxuF3/+OgasOp7xNZt1AHu8kzPlBsZeQrfFXvqcpm7Hc855PlHJCXz8oi/oY0t77tim2xIv+Edf1O0OBZ3V841raRinu6hrHnU2edw1rxmvT7proebxuC+p80Hs1DXL6NryfI7ZcAqXriW3W+8Rnry9NO04b4w6r4ZjY4FTUIbXltdxTqprNsneJ8N2vGbLXIN1m5u3/sEkO59015bHwHVX7U1+yD13+QaG8XuWwbXl+euhzp/xeYX0aPHe92dc8JiFK0rAXz667InaTd91WDapGxwWDFHv12bY5kna1WPLcfX4Ckzo1xwBO6fjxqmVGbZ7UnZFHd+NU6swZVBrnLCz1O8zavck7JqPDSJXdcHhDvlFvAtCFhDxLqRDxHvONRHvmYNirOYkN/w1ZS/qTt13j9VRVmOiK1a7J4uKpEs3tHDjvHvaTdmHquNdseFAcqmSsITLWqBwu2nbVVPregYkJ2EJTbiE2pP3ptt3bcu9qG/lroUdORqahAbTPHTb1O3+Uu346h2ZXH7K+VQcak1O/1lqqeNoPssTCRdMovxINCqMdbmnDY2fi4LRaEeBV2Oimz7ue9qp7bHd9ZvJ4n3OzkBUUZ8/dRsa542wOanbkPGbvFF53J507apNcMVkJf4MxirxWD3NOaZVVe2mbk3uDKAIpSjn+UzbrtLYPVinjp1cU8dIgZvRteC8LaaOmZhz15QwPqg/W9p2PL7tx5JFvm/UBS2OeZ5Tt+M553k+EZ7c4XIq4pw+trTnjus1meGB0xHJIt/dNwF/c33TtTSM0w2tPRCu7iVi7xWtr0+6a6Hm8bgvXrup261Vn7uCRfpry/PZZ/lRXLia3G6JS3Dy9tK047w+6rwa4n2qvW+G15bXcaIS4gZD1p3IsB3P3awd/rrNjVt3MGTtiXTXlsfAdec5JXfMsPOoawbfM67Xe/kR3fl16/azEzb5qIlxnA9/qzYImN7hiVvM/G4YX+8PHfL6/HP/h+WdKiFybpcM2z4JC5zRAeFzuqLOL5/rY/zy3ddwcFwzhM7qmGH7x208vqh53dC8WH59fB+98TLcRjRE6OxOGbZ/IjatLYLm98bV6OTv77OEiHfB3Ih4F9Ih4j3nmoh3QRCeJWKSrsIr+CxOhp/DrTsi3p8Gli1fjv977jktPGkvvPAi9u7bZ1qaPWjZqnXK8dEKfP0NzqUpgfUk6WUqzWXYRx99jOjHXM4qpyLiXTA3It6FdIh4z7km4j1zMDT9gw6bkau5DdaYPOyCIGQ/xm32Rp52m1Bs6C6cu5IcQSBkX6ZMmXKP6ExtmzZvMrV6cty6dQs1a9bM8Pjee+89hIaGmlo+GZiUq1mzZhkeX65cuXBa/c8VzIuId8HciHgX0iHiPeeaiPfMcSriPL7p5YBPOm1JCXsXBCH7MV6J9w/ab0LxYSLenzbmzp2L7du3m6ayJ71798bFi8m5KLIjTH7GGtbC40PEu2BuRLwL6RDxnnPtcYp3u40bsc/NDcePHMHRw4cf2k4cPYrtDg5PpFSciHdBeDpggsLcbTbg98E7Rbw/ZdALb2NjY5rKnnTu3Bnh4cm5MrIj7FwQb/vjRcS7YG5EvAvpEPGec00875kjLOGKzmLNrNjufsmJ5J4kLItiYWGB999/X9ePPncuOQFaatjml19+wccff4xp06bp8inZjQsXLmDGjBn6GL///nvEqOucFnq5ypYtqz/r6NGj9ed6EFevJWdez4iFCxfq+ttSlufZhYkg9/km6HHvt24nJ0sUng5EvP93RLw/fkS8C+ZGxLuQDhHvOddEvD+98JzWqFFDC1+KdNaMNWCN04oVKiCPErwV1Ovt27dNS4CQkBDs27cvRcxzWUREhF6frz4+d7ODBwYGakuLt7c3Tpw4YZpKHnfJfSaoa8uOBI4DpcjmPoyOBR5vorqGZ5PO6vYGN2/eRPv27fHuu++iQIECOHs2OXs+4Tr169dHnjx5UKhQId3WIDg4GIcOHUr5bDz2P/74A40aNdLbuHPnjg4fZe1XHg87CkhsbCyu30jOlE+CgoJw5MiRe45JeHph+b2tXlFwORWHmyLenypEvP93RLw/fkS8C+ZGxLuQDhHvOddEvGcOlvb6rIsd3mmzEes8s8eDG4UxExUFBARob3KpUqW0kL11+xZq1aoFV1dX1KlTB8WLFdPtOf3zzz/jxMkT2vPMZEZ//vknli5dqpMbde/eXW+rW7duenrq1Knw8/NDpUqVtKgm3B/FMaEQZ8dB9RrVER0drT3nFNnr16/H2nXrsHnzZr2defPm6fbsNKhcuTIiI5PLrhlcuXIFXbp01kK8aNGiKFiwoP4MFNMNGzbUY2DbtWuHL7/8Urd3dnbG62+8rkU5t8V9bNy4US8r8nsR/Tko3GfOnKmXde3aFWvWrIG7uzv69u2L119/XXcocB47PYxOhty5c+toBuHpZuym03i37UYUHSJh808bIt7/OyLeHz8i3gVzI+JdSIeI95xrIt4zR3Yc807BWa9ePR1WHh8fr4Tz+6hevYYWvI6OjrpN+fLlUbx4cf2+efPmqFq1qn6fGg8PD7z99ttwc3PT07YbbLWQNTzuY8eNw7fffos96txTDDP03GDRokV47rnndGcARX7Lli1NS5KhYH7hhReUgJ+LVq1a4fDhw6Yld6F4b9++nfb4X716FZ999hlKly6Nxo0bY8XKlbpNgwYNtHhn5wTb8AG1Y8eOsLe3xxtvvIF169bpdr/+9iu6dOmi3/PzfPBBHnh6uutpMn/+fHz44YeIi4vT58XoiDDgtlNHKQhPH5Kw7ulFxPt/R8T740fEu2BuRLwL6RDxnnNNxHvmoHj/Won3j7OJeGeIu5OTk/aIb96yGdeuXdMPbBTdK1as0F7rkydPIo8Sr2+99ZYOc+cDZ758+fC/5/+HKlWqaC/8nDlz9MMyRTnHntObPmbMGD29adMmHQZvlCE6deoULC0t8fLLL2tv/dFjR7VgX758ufa8f/LJJ/juu+/SlU7icb722msp3vHUsAwTPe5cj50C9KYzrP2dd97B9OnTdRt/f3+9/H//+x+OHj2qBTiPp2+/vujWvbt+T7HP0HeKcY6NHz9+PPr376+XWU2z0ueHwrx7j+T2e/fu1e1fffVVJfA/0JEKhQsX1scqPN2I5/3huHPrDq6ev4prF649cbOebA3b1bYZLssu1rtrbwT5BGW4LDvYoD6DcPzQ8QyXZQfjvXb90vVnapiSiHfB3Ih4F9Ih4j3nmoj3zBGddBUj1p/EwNXHcCQkyTRXeBAU4uwMGDp0KCZOnGiaKwjmJf78NZyOPI/A2Eu4fUfyGDyI27duw3W6K3aO2wm3WW7YO3vvEzX3ue7aMlqWXcxjngf2zsl4WXYwHt++OfsyXPbETZ03FysXOI5wRNSxZ6ecnYh3wdyIeBfSIeLdHWV770PVgZ5oOeEIqgzwRLneGbd71uxxi3d/Pz9cOHdOC/GHtYvnz8Pdze2JiPc7SgRcvHoTF5RJEqx/h14Va2trDBjQH2HhktldeHwcDDqLeU6BWOcRjus35bv6ICje987aC+cpzog4GYFo/2hE+UaJiZnFYoNjcWzjMWwduhVRx0W8C0JmEfEupEPEuztKdt+LTlbHsfNwAjpOPYbSPfZqAf9nr336tax65Xu2LaeM743p1Ga0Y2fAwywz9kV7nB0Hj1O822/aBEc7Ozht345dWTCut9nWFh5795q2+vhgwrpPmbCu9YZsk7BOEIT0jNvsjTztNqHYUBnz/m/cI95PKPHup8S7jxJaYmJmsNggEe+CkBVEvAvpyOninYK53oiDmLkxCO6nzqLztOOoO/wgFtiHwu14ImZuCobn6bM45JeEQfNPY8xyXxwLPA/3k2fRQQn9Ukr4l+m5F/3nnsL2Q3E4FXIRW9xj0NTisJq/DyW77UU7y6PYdTgex4POw04tm7QmQFv1QZ6o3N8DixzCcCLkgt7upDX++FOt9zhEvITNZ47smLBOEIT0SMK6zCPi/em2aN9oxPrFZrgsO5qId0HIGiLehXSI590df3R2xcilvnrfwxb54IfWzpixMVhPD1nojZ/aOGPnoXg93WnqcRRV7b1DLyIi/qo6Pg80H++lhP4Z9J1zCgPne+PytVvYd/IMfmrrgj6zT+r11uyOxBcNd2KDa7Sebm95DHWGH8TFq7cQlXgNixzDccg3uSb2aqdIvY+MjvVRmoj3zCHiXRCeDsZsOI23Wtnit4E7kCTi/YGIeP93iw+M1yI5o2VPyuIC4nB4z2EM7TsUPTr2gP9hfz0vo7bZyUS8C0LWEPEupEPEu7sWyoMX+uh9D1Gv3yvxbmUbpKe7Tz+B71s6w0aJ7us37qCphRd+aeeCA95JSrxfQ/ne7uhifQJXrt/GBrdoVBvoidDYK9irxHuRjntQvKsbHDzjcOv2HRz2O4dTIRcwYXUAfuuwBx2mHNP7oKf+p7bOKNhyNzpZHVPL/XUof0bH+ihNxHvmiD13DZPtfGCx8TROhid3sAj/nTv//IOwsHBdJs7Xzy/ZfH2fGWM5P+HxcvXGbSRdvqHzUzxLGa3NwZMW7xTFZ4LP4GzIWSQEJiApNElbfEA8Ir0jtSA9F3YOCUEJus3Z0LOI9olGjJ/6f6DeJwYnIiksSbdje87n+pyfenux/rHJbdV7vQ2TGKcw5/p85fa5nMfDZdyvlxLIDf5qCJ+DProd95H6+GncrrEu33Ne6u2eCTmTvCwoeZlhxudOu0yfE7UOl2e0nt62mn8t7hoG9hyI7775Dt4HvPU54ufk59P7VPvnNLenz50ybovrGucr9XYfh4l4F4SsIeJdSEdOF+8c3950rBeOBSaLMi//cxi0wBunQy/oaY/TZ7XYjkq4qqe3HYzD1PWBOH+Jycv+wTy7ELSeeER7z0mIEu7G+2m2gToEP+ZM8rSR/fi2Wm/t7kiU6OaGfnNPIeH8DT2fuBxNRKV+HjqcP6PjfZQm4j1z8LpRDJzPBgnrKEg6d+mM119/HSVLlkT+fPl0LXWWQKN99NFH+P3333X5tJKlSmpjvffffvsNb7z5Zko72ldffYVixYqhVKlSuh1fK1asqOu6v/LKKynt3s2dG7/++itKpdlmsWJ/4Pnn/4c///wT8QnJkSmZhfdEo0YN8euPhTDHchoWTpuFBTPnYMGCBU+9sZwdzdvH2/Rpnxws+ff2O+/gl19+0fcA7xvjurKE308//aSve/I9UArlypXT9xVL7hntaHnz5r3nvmL7ChUq6PVz5cqV0u5NdY+xDKFxT9G4zRIlSuCll15C0aJFER2THH1kDvZ4x2PcptOYuysQ125Kzf4H8STFO8W11x4vlC5eGrnUfViuVFl89+13+h6qW7MuIk6HY57VPF0iMv+X+fFDwR/w8Ycfw/eQLwb3HoxaVWph1uRZKPh1QVSrWA3hJ8Ph6rAH+b/Kr36v3kWzek1RoUwFvPTiS6hboy6aN2iGP4oU0/fg6oWrtZAd0meI3l/JP0qiTPEy6jhy6X0ccj4Ez12eKFbkD7zz1jvo3rE73BzdUoQ9jSLY0cYRNavWwpSxU1ClfFXk+yIf9m3bh0kjJ+rtFvnldzRU4v+zvJ+joBLZPgd8cCnqEjYs24ASRUtg5MCRKP57cXya9zMc2H0AV9SzwwLrBShTogymT5yOapWq4dsC32Lvtr24GHlRdyJUKlcJ7Vt2wBSLKXj7rbfxw7ffw0+dEx5P/x790bZ5W0wcNRHvvvMuurbrqs8xP98rL7+CP0v+iddzvQ6LoRa4HH35nuvxOEzEuyBkDRHvQjrE856cTK5Et71aTPO1dI97p0spgW9Mcwx78jSXuen3TGJnzGNnAN8X66Le99ynxP8Z7WEcu9IPjUYfQutJR+FwIE7PrzrAQ4+X57h5Y3uPQ7QbJuI9czBh3edd7ZC7zUasf8IJ6+7cuYPevXvj66+/xtcFCuCFF1/UD4qsVR4TG2NqdZdLly/pmueGwOLr8OHDde3ztERERKBGjer6AVc/fBYpAj8/P9PSu1y/cR1Tp07VNeTZjnXjExIf7qGF90STJk3UQ3VjXI5U9178BeBicgeZ8OigeP/+hx+0oH7jjTf09fr000/h7OxsanEX3ltLlizRHUBsx06hhg0b4syZ9L8N586fQ+fOnVM6eb755ht4eHqYlt6FtfznL5iP3Llz63bs6MnoPn1UyJj3zPOkPe8XIi9okZr347w44LQfd87egds2N32fTBg5QQtdCvqOrTriauxVXE+4jp6deuLN199U4j5Ci2l6kD/64CNUrVAVtxJuoodaXvDr7xB+Khw3Em6gRuUaKFuyrBa35yPOa7HfTAl5itfQE6Fa3FtPsFY3NLSX+vdff8evP/2KCxEXtLinIDc828Zx8/1Jj5P4/NPP0b5FO8yYOANTlYCfoT7LXse9CD8djg/zfIjRg0fjTtIdeOz00J/J0dYRh10O471338PKeStxKfJSsrc85Cyux1/D4pmLtbjeuGITzoef1/Pr/1VPf74T7ifw43c/ol7Nv1Xb68livXt/fK/OT5RPJMaPmIDP8n6GaeOnwXKMpXq1whK1PXrqrcdb4/1338fp/af1PsXz/mgR8S6YGxHvQjpEvJvXKPprDdmPHjNPoP/c02ijxDsT0lGwZ9T+cZqI98yR3ca8Dxw4UD8M0ipVqgQ7OzvTkruEh4djzJgx+PCDD3W7L7/8EhYWFrr2eloOHjyIjh06pnjwixcvjmXLlqULO046l4Rp06ZpocZ2X6htFi5cWHvrE9R1fRjuFe/qmOIu4J8LIt4fNbt27cJ7772nrxc7fCZPnoyLFy+alibDjpylSrQXUdeS7d5++2106txJh/6nJTAoCEOGDMG7uZO3+d133+mygJcvXza1SObq1as6+oCeebb78MMP9X1Fz32M+j6bCxHvmedJi/dz4ee02KSwpHcZV4Atq7fgtVdzwXWrqxapDAunN/lKzBXtfZ4zdY6+n6YrwQx1GwcfC8ZHH36kPdG4DnTv2APf5P8Gkacj8U/SP6hVrZYW7+fDL+ByzGW9vdZNW+OmEvqBRwK1eB87bCygbl+uQ0/3oF4DdWfBkN5DtHD22OEO34O+KeH2cf7J4pcecoptHjPnD+gxQG+L4p6fafSg0cAFaMHOY965YacW5J998pkW/vud9iPAKwDtW7THhuUbcMT1iD6ehnUb4faZ27gUfUkfe4tGLXRnQtlSZfX+PHZ44EbiDXRq3Qlfff6VFuVb123V+/i7Vj0EHQ3SkQL1atfTkQrzp83HO2+/o9sxpP5JCHeaiHdByBoi3oV0iHjPufY4xTtLxW2zt8fuHTt02beHNa73pErFUbx/3dMBH3d8cuKd4mjevHn4/vvv9UPaF19+gZ27duLGjbtDLgjPddeuXfDOO+/odi+++AJGDB+OM2fTX1//AH/tNWf4NNt+kOcDrF27Rguv1NB7OmHChJRQ6ueeew7tO7RHUlISrKysdEh0VsLmRbybj3379qFu3bp4+ZWX9TVjx03aMfi3b9/GihUr8Mknn+g2tPr16yPA3z9dxw0jONq1a5cSbcF7xtLSEhcuJg8vMuA258yZowWVsc3GjRvrTiPui6H35gybH217Cm+0sMEvA7ZLwrp/ITuId+sJ05HnvTzo360/xg0bh+Vzl+ux6/RIO6x3wNLZS7FoxiLsUs8EFM30JEecisB86/laZC+ZtUR70ClKGe7O6WVzlsFutR122zlrbzbnbbPZhm222/T2OO/g7gNa+DMSqWn9plr8T1VGjzrHrvMYQtR22Xbt4rVa8Bri3bCzap+uDq6wGGKB8SPG63U5HGDLqi36c/A4nNUxrF+yHivmrcCq+Svhd8hPj0vfunYrRvQfgZmTZyLkeIge5899UvhvXL4RA3sN0lEJx/Ye05+N+2OkAbc3YsAIHarPbfI8UPRzvzxGHu/QfkP10ABu67j7cSyZvUQfD9tT2PPcpv4cj8tEvAtC1hDxLqRDxPvjs7K93XUCu7+GHdBj4R9nTfeM7HF73v19fXHh3DntRX9Yu6iEh7ub2xPxvCdevI7FLsGYtysQ/jH3ei0fB1u3bk3xYBrG8OPt27drkebp4YktWzaje/fuKWHMH334IVq1agV7e3vs378frq7q3Knz5+HugZUrVyphVydlW/SeDhgwAHv27IGHh4du6+7urrfPEPs8efLodhzP3KBBA6xZswYHDhxQdlCHTnOMdHz8w4v3xkq8N2vUBFdik4Azl/HPZRFb/xVGXLRp0wYvmoZT0D744APtBec15f3ior5D9MAbERSvvvoqqlWrhkWLF+vr6ua2V90DrvpeYNh9ly5ddScQ23766Wfo2LEjHB0dU+4rbne3027dwcNOJWObHMrBCA5uc//+Axg0aJAeihEVbT7xznHu567cwEVJWPevPEnxTgFJ0dqqSSvdGUihGhcYl04gP8gepm1qi/GNQZRvlA5d573a5O/GCPQKyHLGdh5HVo7lQetkdRktK8fyOEzEuyBkDRHvQjpyqnincOZY97K97x1jzmmOYdfL0yyjGetlJLyNdTJa9mev5Ndppiz2LscS9fh4Yx98Tbtdvjcso2P5ryZh85nj+s07CIy9pIU7E9c9bgIC/PHDDz9o0URRVax4cRRSYp6eeIorekT5EGqIpj59+sDW1hYrV6zQ3s6Vq1Zi3bp1mDlzJj7//POUtp999pkWcTY2NsntlK1atQob1LUaPHhwigDkGPjGjRpj48aNWKWEP9uxA4D7pvecyckeVrxfo3hv1hTNfi6NC+PX4/qkjbg8wSZTdmnUGlzf6KnUx5NNHpgd4bj1bt276QR1FOm9evXSERPDhg3T1896mnVKBAWHSXDIw/r167FmzeqU68rOGd4PTC5n3Cu5cr2mh2vcc1+ptpyeMH4C3n33Xd3uxRdeRO3atbHeZr2+l4xt8p5q37692T3vO4/HYPDq45hq76szzwv350mKd3qJKZY57p1j2+mFf5yikwKeGeW5bx4DPfpPKpw8p5iId0HIGiLehXTkNPFOwUzP9+rdkTgedB7bD8ahw9RjqD54PyzXBmDn4ThMXO2PrZ6xcFUCm6XiOD6dSejqjTyItc6ROBpwHuuco3SWeW6Pieaajj2MdS5ROOCThM37YvQylnszEtBZ2QTq2u/up87ihhKDu7wS9DaZAI8Z591OJOrtzrcP1eXm2lkexcpdEbr83CqnCHVtEtB8nNcjHSsv4j1znAw/j3w9tuKD9pthu//xJqzbsXMH3lPCiAniDCjImDm8Tp06enwyRRO95zt27MjQ20jvZ8HvCqYIMYqrkydPmpbe5dbtW1q0v/9+8nhmjpWmkEsbRk/oeaUXle0qV6780AnrUsT7T0q8j12H6xM34IoS8Zmxy0q8XxPxno7zF87rDPCMyjByG7CD5cdChVC/Qf0UTzttypQpOHv2rG6TGnrRy5Ytm9KukFqXye0yuq9Sdwa9/PLLevrChXvD6Ak7nIqXKK7blSlTxuwJ6/K034RiMub9X3nSYfNiOctEvAtC1hDxLqQjJ4l3Jo/rM/uU3seeY2cw1y4MsWev62kK6PGr/PV7loJjHXZP77M4f/kmaiphP3FNgNYKna2O4/tWu7HQIRROh+NRsa87FjsmC7pmY73wdTMnTDBth6K78ZjD2nNLQc867kxed0Ft0/lIAv7o4gbX44m4eesOFjiEw2F/nF7vVOgF/DX0AE4EX0DihRtoanFYdziwhByjAjL6bFkxEe+Z40klrKNgz537HezcudM0B3qcOb3dhriieBo3bpxp6V0uXLwIJycnFCyYLNo5Vrlq1SoIDAo0tbhLbGwsFi1alFJG7OOPP0bXrl31WPfUMLHZgYMHtDhkO4bRMyT7v4v3tSLe/yMBAQFanDMKg+PODRidYVxX5kGoUaMG4uKSf2cMbt68idOnT+Hvv//W7SjEKdp3795tanEXZpnf6rBVlxlkW3rcGzVqlC5hIbd54uQJvT+24xh5ZrGXbPPZB0O87568Gz67fODn4gdfZ18xMbOYv5s/Dq44CIdhDog8Fmm6C59+RLwL5kbEu5COnCXe3ZQwD9D7GLnUVwvt75Sg7jvnFNpbHoPFiuSyWP3mnkahti7YqAR30sWbqDZwP5btSBboI5b44ie1rLja1rjV/uikxDw96hTgbSYdQeGOe5RAP4Cr129rwT58iY9eb9mOCL1NHkfc2evYdThBZ533i7iIiIRrumTcN+p4yvVy18dRR4n1o4Hn1PLLaln68P5HYSLeM8dJJd7z99iKDzvQ825+8U7RzHHLFN6n1TljyDuzdLPmMYUQjdm7Z8yYocV8WpgwzPCK05o3b45jx4+Zlt6FnleGQhtCjMmbRo0ahaio9F4Rhj3Ta8rxqWzLMdInTpzQCev0mPeHTFiXefG+Lp2JeL8Xhsd//MnHuhLAqVOn0LZt25Q8BYZR1Ht7p687v3fvXlStWhWvvPKqbldKXUvHbdtw55/055bbZ8k5tuN90KljJ91pkBZGi7AKglG9oKwS7IcOHdIRIOau826xyQdvttqI3wbtwoXrcn/8G5FHI3Ha4TR8tvuIiZndTjueRuCeQNy4cm+i1acZEe+CuRHxLqQjJ4l3jilnGPtixzDTnpJZroR1vREH4Rt+UU+7HT+DsUpAx51NroXNcHiub+8Rq6cJvemT1gbg906uqD5ov1onOUyVofYhMVewcW+MFtwMnV+6PVn4X1GCPvF88j+tazduY/rGINQfeRA+Ycn7JWcu3EDbSUcxWW37xq3kh8+FW0NRsR+PP+PPlVUT8Z45zl+5Ccej0bA7HIXIM1dMc80DxTjHBXMs8qVLl/S8iMgIJZp+wfPPP4/nlBjiGHRmCKdAql69uhbS9erV0wnCjMzxhjGMmsuYVZ4ijZ5Q1u4uU6b0Pe3onf3rr7+0sR23ybB8Zh83So0ZRgHGbXB/9PayYyE2jTf33zDEe9OfyuC8xXpcn7ARl8fb3GvjlFgfqwR8Grs8YjVu2HoApu9HTmbu3Lnao75lyxbTHGDIkMH6XmFnDwU0ry0rAvDa89py2AS95SwfmPq6UpjzuvLasx3vLV5/1v6nN95oR+HOaAt66o37itvkunnz5r1nm7/++queX7NmTV0pgZ1KkZEZe91Ywo415f+LXbl4Dv9cv4jbVy/gbAbL72cM7WdHVtrqDYIgCA9CxLtgbkS8C+nIiQnrKKqZ9Z2eeL4ayeKKdXHTlrxs791p1Y7rUfgb63F56uRy9I6n3qYx1l3vL9V6d9dX+1XzK6jlHDfP+dwPxT7X4auxf70v07YepYl4zxyXr9/CoaAz2B+QiMQLycMszMHRo0d0aHG/fv1Mc5JD5ymcFi9ZbJoDnfiLZcCMsej0tlKkG4KJCev8/ZOHbqTFYqzF3VD6t9/GrFmzMkw2x9BqCjd2FLAtxd6xY+m99wzLzkqpOC3emzZBs3LVcMn+AP7ZdgQ3th66a5s9cdvv2QmtfNRwDDqHNnDYhFGP3cfXB/nz59ci3bg31q5dix9//FHX8jdgzgSj5BujKZg1PqMx7Uw0V6xYsZT7ivkQgoKCTUvvwn3xWIzwfIr+1Psz4Ph7indzet4ZGdNi1n4MWHVcf28zC79Do0ePFvEuCMJDIeJdMDci3oV05ETxLpZsj1O8223ciH2urjjm5YUjhw49tB0/cgTbt27V23jcMGHdV93tdSIsGzMlrGNoPJPPcew5CQsL06KrfPny6RKL9e3bV3u7mXSsfPly2ttO7zhLcTHMnuc7NYcPH0a79u30WHaKK4r3GTNnICIi4p7x0WTzls1afPFYmLm+Q4cOWtxduXJvxIGfv58+Do55ZsdBlsa8U7yXrYpLWzzxj4MXbtgdTLGbG5V493kyNfWzO4zIKF+uPIoXK55Su33kyJH6WvD6pYaJBTl+fezYsTp03ginZ+cPcynQ250alpobMWIECn77rW7HnAZDhw7VHQRp7yuG3LNTh9nr6enneya3S7vN0NAQvQ3um0MssuOYdxHvgiBkBRHvgrkR8S6kQ8R7zjXxvGcOcyeso7BhGLynp6eeHjlqFN544w3tqWTpLy8vLz2OvWnTpvjqyy9Txp3TKJpatGiRLss314tR543h92zHdRjSzFrvaaGAp0A3xr4z3JqJxdKGwnObl69cRts2bVPG33P/DJsW8f54CAgM0NeJQlxPBwQg31dfokGD+rh8+bIeYsGScOxY+eOPP1Lq/hv3wBdffIHjx4/rdQ3odadoZdi4MU6dEReLFy9O17nDe4ACnyLc2CY7Byh+U2Nss0ePHnjh+eRt8l5hJvvsKN5ZfUHEe87myJEjOtGiIDwMIt4FcyPiXUiHiPecayLeMwfF+9c9HfBxx0cr3nleGjRogJ9++kln66YwYxg0xxJfvHTXe2lhYZEiwAoUKKBDnekR7dSpU4YhyPv27UOrVq1S1ilXrhzs7TP+blPocTnbUeixg4De+7RQ3PTv3z9l7HPhwoVhZ2cHa2trHQWQ5bD5stVEvGcSZn9nhAXPOaHYZoTE9u3b9TRhlMWnn36qrxE7gDgmnckNK1aqhF27dpla3YVCnKLVqP3+/Q8/6KEUGcHEeKkrHXBsfEadQYGBgdp7z/2zHSNIWHJw+fLlukPBnGHzw9efxMtN1uGHvo5IuiyedyFzMIqJ9yojUgThYRDxLpgbEe9COkS851wT8Z45OHb2YNAZeAYkIuERjXlnRnedzKtRQy0YBvTrrxOPpRZiBw4c0J5SCmV6S5csWaIFEMe000NK4cZQ6dy5c99jnE/j9mhsk7adMZ3ZtmzDcdJGO85nGDQ9tMkJ6+4mc8wMLDvXuHFjNKtbH1co0oPicDsgJsVu+UXhTmL6muE5FVYW4HVgqLqfn5/OLs9EcDyPhOPOO3bsiFy5XtNZ3fe47tEin+8/UOKd49Ep/FNf19xqe7yWqa8/Le31Nyz5HrjblvMyule4LPU2OZ/3Cjt+mIzxfgnrniQi3nMulpaWKR1SNHaeCkJmEfEumBsR70I6RLznXBPxnjkuXbsFd78EuPrEI+58slj6LzA8nt5R1mc/fPiQft+yZUt9nsiOHTu02GHoOj2jaenSpYvO7m1ko3+STJ8+PUsJ6/hZ6cVlGbsrV82bwf9phmHqXTt31mPQOe6cHTcUyIbHm+PLeR7p5V6xcoWelxpGVtDz7enhYZrz5KD33dwJ6xa7BKP8GGe0nL0fF9X3NrNI2HzOZNSokfcId8NYTcH4PRaEByHiXTA3It6FdIh4z7km4j1zMGy+QM+t+KjjZtj+x7B5ZvBmRnl60Hv37o28n+TF/gP79TJmBqd3m6GbDKPPCIo5ivfqNarft83jhOGmIt7Nw/kL53U5QGaPZ+11RmEwgSBheTPOp5BPm6QuNazP/8MPP+iQ9ycNowDMLd4lYZ2QWXQOj8uXdfQKf4/43QoOCdbvOV/GvwuZQcS7YG5EvAvpEPGec03Ee+Z4VAnrWGqLXlCWf8uX7yv06t1Lz2et7ly5cukScGkTz6VFxHvOICgoSA+r6Ny5M9q0aaOE++faO8yyfqVKl9LJB5nZ/d8Q8Z45RLwL/K5FRUeZpgQhc4h4F8yNiHchHSLec66JeM8cKaXi2mWtVBzFKcd3/66ES4WKFXSCOo5nnzx5si7zNmjQwJSxy/+GiPdnHwrtb7/9Fn/99ZfOLM9qBKyx/1vh33SZv4OH0tdQvx85TbyPtj2F11vY4JcB25Ek4l14CES8C1lBxLtgbkS8C+kQ8Z5z7XGK9002NnB1dsbRw4fhdfDgQxvXc9iyBW6Z8DY+aq5cv43jYedwNCQJZy893MM9a6kXLVpUJ/Bi1u9Ro0ZhQP/+Ojx+4sSJuH078+NyiYj3ZxsmJWQoPJPLsRwbp3/5+WcUKVw4wyoA/0ZOE+9ZRcS7IOJdyAoi3gVzI+JdSIeI95xrj0u8P+2cuXgdy91CsMg5GIGxd0u4/RusnU7BzgRIFFBl/yyDDz/6EPPmzze1eHhEvD+7DBkyRN8rjMaoUKG89rqXK18ewcHBphYPT04T7zph3WhntJz1cAnrRLwLIt6FrCDiXTA3It6FdIh4z7km4j1z3K3znvmEdStWrMCLL76Ykr2YSepsbW1NS7OOiPdnj2vXruryVMa9QqtTpw6io/+7yJUx75lDxLsg4l3ICiLeBXMj4l1IR7YV7wXqomL/g6g86BgqDfQSM4NVGXoaRVvbinj/Fx42YR3Lpxki7Msvv8T2HTtMS/47It6fHdw8juPVvOXxVYGCKfdLk6ZNdCb5R4WI98wh4l0Q8S5kBRHvgrkR8S6kIzuK9627PPDFz/XwY4nG+LG4mPmsEb77oxGKVuqoxFeS6ewLaTkZfg5fdLXHu203Yr3nvyes69ihAz799DO4e7ib5mQdlguLjIw0TQH//PPPIxHvjAKgWOzWrZveZlYxt3gfMWKEPk5GMjxreBw6jVx5y6nP9xzat2+Li5cyPyQjI27duqXvldTJDx+FePfx8cGbb76J0qVL6xJaWeVxiPeRtqfwWjMb/NR/G5Iui3gXMo+IdyEriHgXzI2IdyEd2VG8C0J24uatO4g+exWRZ67gyvV/H0e7bds2jBkzBuPHj9c2adIkbcwub2lpqc3KygrTpk2DtbU1ZsyYgZkzZ2LW7NmYM2eOLh03f/58naxs8KBBeP7557WALVSoECZMmKDre9esWVM87085e/efQO58VTBg4FBMUffEuHHjUu4X3ivG/cLSgrxXaIzq4L1C471CmzdvHhYtWqRff/75Z32vvPPOO+jWvRv69eunM9dLwroHI+JdEPEuZAUR74K5EfEupEPEuyA8mIQL1zBnZwCsHf3gG/XgOuzEwcFBl4K7ePEiEhMTdW3umNgYbXw4pHeUWehDw0K1hYSE6LregYGB8Pf3g58yXz9fPb106VI9dv71119HixYtsHPnTrRt2/Y/i/dNmzbhlVdewcCBA01zsoa5xTs7QV599VWsXbfWNOfZgeL99U/LY/IUa5w/fx5nz5zR1zQ2LlYb7xfeK7Tw8PDk+yU0FMHBQfp+CQgI0PeKn5+fum/8ceToUZQqVUqLd1Y4WLZ0GebOnfOfPe/c/gcffICqVavq65ZVHod4n7HdH4X6bUOtSW64cFU870LmEfEuZAUR74K5EfEupEPEuyA8mLsJ6zI35p2h6BRQrNMdFfXfHgZv3ryJ23fumKYeXdj8o+JxeN7/UX/PIgybf/PzivpeeT3Xa5g5a6ZpSdZgPoTracSnjHnPHCLeBRHvQlYQ8S6YGxHvQjpEvAtPO48ywVdGPGzCOmdnZx22TFFGq1ChgvaUPgoeVcI6et7z5MmDkSNHZusx7xYWFngnd27Y2NiY5jw7HD8ViJpNB6Flq7Yp9wqjIRguz+v8KHgU4t3bx0cnXmRG/OzueRfxLmQVEe9CVhDxLpgbEe9COkS8C9kRDw8PJJ5JNE1lDEOFv//+e5QpU9o0xzycCD+Hz7vaZTphHQkMCtRjjSnIPvnkE10qrnjx4vD29ja1yBqSbf7ZZPbs2fjf//6Hl19+GfnyfYV3331Xi0kmofsv5DTPu05Y11wS1gkPj4h3ISuIeBfMjYh3IR0i3oXMcuTIEf2Au379eqxZswbt2rW7r0eUNaqZVIuJtDhOu3Xr1hg7diwuXEgeM04RunXrVu35pRh1cnLS8zm+l+N2n3vuOfTq1UuPHScU6kOHDkXPnj2xfPnylIzarVq1QoUK5bFlyxZ9PNznfxU8aaFj+tbtf5TdwZ2H8FLzs3KcMAX8x0q8M3P6H3/8ocUUz2VWEPH+7MLviRGxUa1aNZ1sLnfu3Bg8eHCWRWVOE+9ZRcS7IOJdyAoi3gVzI+JdSIeIdyGzXLp0Cb/99huaNWumpw8dOqTFxsaNG/V0Who2bKjDbZm4jVSvXh1vv/02zp49i+3bkzOyE2Zbp2A5fvy4nub2cr+bG+fOndPT3Xt0R9lyZfV7wkztDPsmLVu2xK+//qLfX716Fd98843uEHiUxJ67hol2Phiz4ZT2wj8M7Ejo0aMH3nrrLe1NZeixu7s7SpYqhfz58z90OTkR7882p0+f1mL7vfffw8cff6wFL73yuXLlQu/evfU9/jDkNPE+brM38rTbhGJDJWxeeDhEvAtZQcS7YG5EvAvpEPEuZJYrV67oLNYUEYQh4F988QXWrVunp9NSr149lCxZ0jSl/smtXKkFCbOvswza119/jbDwMJw4cQKvvfaaridNWNP7ndzvICkpufZ8rVq1dNvbt2/raSZxo5eS0PNevnw5/Z6dBOxcGDZsmJ5+VDzsmPeMmDljhhbr9evXR968eXX0QGxsLMqWLYvPPvssJfLg3xDx/uzD70fFihX1vcFIDb7yWrPyAEV8p44ddUdaZpCEdZlDxLsg4l3ICiLeBXMj4l1Ih4h3IbNQcH/44YdaUNB7zDBwhvXSm0zBkRYKa47j7dOnj2o7XIcCs7QVWbd+nfbCU/h16dpVi/o6dero5HMsi1WgQAF899138PT01J0GLI9G7zzFC7O4s7SWq6urbsMOBEdHR3183A47GHx9kzsCHgWPQrwTlpCjgB89ajQqVKygzyNFGT8zoxKYQI7h/w9CxHvOgCKS56ZsuXI6QoX3Bmu6E3ZuvfHGGzoCxohOuR8i3jOHiHdBxLuQFUS8C+ZGxLuQDhHvgrmgyP6tcGHT1NMLQ+Xzdt6Ct1ptwDqPMNPcrMGwaHZMDBgwQHc2vJv7XVhbW+tlFGINGjTQIfaMUsgIEe85C0aRfPP1N9i+fTsqVaqkI0uM8oMU5hyKwU6v+90LOU28T9jijY86bEbJ4U4i3oWHQsS7kBVEvAvmRsS7kA4R74I58PX1xdGjR3D8+DH9YPxfypE9ae6oQ79647a225z4j3DM/59//omaNWsiMDBQi7Jff/0VYWHJmew5rrl9+/a6bNjcuXP1vNRQvNetWzdbCA16g0W8m5fVq1enRGVwiMrrr7+e0uFDGHWS54M8qFK1CmJiYkxzk2H+iB9//BGHDx82zXlyMLmlJKwTsisi3oWsIOJdMDci3oV0iHgXhAcTlnAZHeYfQvNZ++Hu92j+OXP8PjPw0yvKzPz0kFKUWU6xNLVITnbHjPtvvvmmDp1u2rQpBg0ahL79+uGFF17QHnomDKT3le8p9jm0wLCX1bTRhkMUaBzmwJDr559//p62zDnA5UZbtuPrq6++ek+7l15+SR+Psd+XXnoJZcqUQWxcnOmoM8c1Jd4bN2uKpsUr4PzC7bixdDeuLnb677ZoF64u3IFb3pkr6fe0sH//fnzwwQeYNGkSrl67ivLly6NQoR8REXF3GAfzJrAsISNemKG+cePGunOFQ0l4b/GaGteXw09SX1feT2+8kXxdjTbGfcXydanb8p4w7qt33n4n5V7hPZS63YsvvqjvNbbLrbbF+5FDWlhRwlxMtvPBZ1224M9Ru8XzLjwUIt6FrCDiXTA3It6FdIh4F4QH86jGvGcExViePO9h79692uNevnwFPY4/ODhYL6dHu2mTpimCiCLp088+Q/0G9VPK7lEMMW8A8wuwTYUKFbS3NiM2bd6MKlWq6HYUZfR+792317T0LucvnMeo0aPwWq5kQVakSGHMmjUL129cN7VIhqX5suJ51+K9eVM0/qQQztaxwKV6E3Du73H/3eqMRVKtMbju8OQ9zY8aXufvv/8ejZs01tP0ZFOET506VU9zSAVD099+6219zSjImQ/i22++gYeHh25DFi5cqAU923AIx4QJE3TehbQwr0WbNm10OxrLHtpusDUtvQsTSPI+YOcC27FDavLkyemS6jFqQMa8C9kVEe9CVhDxLpgbEe9COkS8C8KDMad4JwyHfu+99zB//nw9zTr69G5aWFjoaRITGwNbW1t07NhRi6SqSoA7OzvrjP4UcPSA0xt79NjRdAKE46HZSfDBB3m0uKLnnGH5FINGBn8DdhpQsLENvfMM59+1a1e6EmXsOFi8eLH2upYrVw4JiQ/30HKPeP/LJN7rKvH9X01tK6mmEu9bnz3xTiiImfiRHmzmSDh//oIegvHTTz8hNDRUt2GCRyZ6ZLTGL7/8gryffIKNGzboe4BecN4DTJy4bPmydAKb665fb6M7CSj+2cHDYR0Utzdu3CuGGaI/ZMgQ3aHEjiNWhOA9evnyZVOLZC5dvoQ1a9bq+7ZYsWL6XjYXIt6FrCLiXcgKIt4FcyPiXUiHiHdBeDBMWPdZFzu803oj1nmaJxz71OlT+PTTT9GtWzc9TRFVo0YNLbKMEnoG/fr102Ld8IgybP3IkSOmpXfhWHKG3XO8NNtR5LOmvpHwLDUce1+7du2U0Ptvv/32vknOJk2cpMvbGfunR1bE++Olb9++2nvOMotk1apVOpTd8MIbsMIBQ+mNYRJsw7YZiVR65OmJN64rq0SkvfcIozLYiUTRznasQGGjBP+t27dMLe7CaI2vvvoqZZsse2du8S513oWsIOJdyAoi3gVzI+JdSIeId0HIHrCuPUPQ6ek0QuIpvii4jNr1DG+m15xC6NVXX9Fh0hz3TI85LSQkRJv1dOt7xrU3bNhQz6d3NnU7ivZ27dqltKMxjJrb5PLUbZn8jMditKPY79mzpxZkWQ6b/+AHnKk8DBerjURSlRHKhv83qzQMZ8sNwfXNnqY9PbssWrRIj0vftGmTnmYiREZfMFqCeRSMMHpGdfB6McdC2uvK+2H37t3Ilz9fynX9rfBvOHDgAMLCwu65r/g6ceLElHY0Jk9ku9TbpO3YsSMljJ7G6IyhQ4fq+5vHlt0Q8S6IeBeygoh3wdyIeBfSIeJdEB5MaMJltJ5zAI2sPbDX17z/nG/fuY2WLVtqjzuFNaHYKfJ7kRQh9Nxzz+mwZoZFc2wxw+stLS113f3PP//8nnaNGjXUgovtxo4dq23atGno2rWrDo032jKcmvPYjuHVbMf1+J7Zyo12tMqVK2PcuHF6nDPflypVCnHxD5ew7vq162jSuDGaNW2GK+cuKjV/C//cfnorEjwpXN1c8f777+kOF4NRI0fec714nSmy6ZXndeW143t2uqRuR2HNe4r3EtuwLUsB8r6i995ox04hVgmYPHlSyn3F/bMtw+JTb7Psn3/q+5MRHyxp9/vvvyMqynzifezG08jdZgN+H7xTPO/CQyHiXcgKIt4FcyPiXUiHiHdBeDDmHvOeEVbTrLRXddu2bTjsdVh7243wdxq93vTUG7AOeGpP599//424DDLA/6P+KLiM8PgXX3xBixaG6aeFIdmpw6j/+OMPBAQG3FP2jyIwq6XimA29WZMmuJJ4Hrh4Df/cTB92Lfw79J6zM4e5CkJDw2BlZaXrwRvXjeH1+/btM7VOzoHwZ9k/U5Z/Y0poR099Wuzs7HReA6MtRfuZs+mT24WHh98j3Jl0kfdP6m0uX75cEtYJ2RYR70JWEPEumBsR70I6RLwLwoN5EuKdODg66HHF06dPN81R4lsJZ4Y/16pVSycsY3kw1nynYHruf8+hWbNmusZ+WhjKTA+o0QHA1+HDh+Ns0llTi7swy3iHDh1ShBg7CjLKSE8RyE6C0qVLP/SYdxHvj5Zz587rKgMMT0/dqbN6zRotzg8dOqTD2ulFZ/k2XldGTGzenBxyn5rz58/rkHxmjWc7Jq7jPRcUFGRqcZfTp0/rHAxGmTgeAzuc0sJtsnOBnndJWCdkR0S8C1lBxLtgbkS8C+kQ8S4ID+Z42DnkUYLg1WY2WOMeZpr7ePDz98OXX36pxbRB33598dFHH6UIpjffeBP9+/c3Lb0LvZ4UJQxXZjsaBdmSJUtMLe7CbPLsCGCiOrZjlvGmTZuky0ZOKOI6deqUsk1mPxfx/uRh5QAmkmO0hNGBQ8/5N99+g/fffz/lejE7PTtz0hIZFYlBgwbp4RZsx6SERq6F1HA/Xl5euqOA7die90BG9dvpkef9auyb65hTvE918EOBnltRaawLzl8V8S5kHhHvQlYQ8S6YGxHvQjpEvAtC9oZey2rVqupEdszezZJchhh67713UaFiBT1evWu3bnpsM7OEU+zTC2p4WZmdnuXEWrdpjV69e+l2zGzPtq1atdIeUaNO/JtvvqFD4Y02fGXWer5SpBne+xdffBGv5cqlBdlDj3mneFfCvVn9xrgcFg/Ensedsxfxz8Wr+OfCFfxz+TrDDEythYeB48sp2K2trVGnbp2UxIXskGHpOCYo7NGjh76eTDjI93/99ZeudsB2NGaIZ5JDXnd9bynr06e3Hr7B6gZGxxGHXxQuUljNb4fu3bun3Cu8b2rWrKU7mdiOx8Cx97yvsqNAEvEuiHgXsoKId8HciHgX0iHiXRAeTGDcJdS23IuKY13gdDLWNPfxsXLlSj3+3RBWNCaRY3k4ZhhPTEzUrwyX3rt37z1jjwsWLKgzjhvtaGwXHx+PlatWppR8o3CnKHPfty+lLTPbs+OA+2F4vLFNrmM5xVKH7TNZWcmSJR8+2/w1k3ivUReXD/njn6OhuHU4ELcOBeDmAT/cOhWmFH7mPadCMkFBwahQoXzKtaKx42bBggX6uvKaGteV3nmKbaMdO2XoaY+NjdVtjPuK5uzsjMKF7yZNLFSoEGw32JruleRtskICS8uxM8hoR/FOUcx7bs6cObqTKNqMY96HrTuJFxqtxXe9HZB0WTzvQuYR8S5kBRHvgrkR8S6kQ8S7IDyYJzXmPS2e+z11CDw93jVr1tTCyeDIkaNKRJdI8Z6XKF4cbm5uuHrtqqnFXdavX4/8BfKnCCyORebYZSazSw3LinE/9Niy3VdffYmtW7dq4WfADONZSViXIt6rK/F+0B84GpIs3pXdVNMi3v8b7Jxh5niWifsgzwf6XjDgEAmG1xvVBthm6dKlWoCnhSXjihYtmnKvsBTdgf3704ncpKRzukpCrly5dDsmT+R9ljqnAjuRJGGdkF0R8S5kBRHvgrkR8S6kw9zinVms6cFJzbVr1+7JWP0wcAyuq6trtqwV/LRw+fJluLi4ICpKHlQyQ3YR7wYMdWYSuYsXL2oBT5FmjFNm6DPrdqfl1q1b2Oe+T3viDSHGUmFBQcnl6FJDD+riJYtTMtLTI7t48WLT0nsZMmTIf/O8i3g3K/b29vixUCF4KsF98+ZN7UHPmzevvq6s2T96zGhTy3thcjsOkTDulS+++EL/7qaFwx+4DyM8niUHWYEgI9jRI+JdyK6IeBeygoh3wdyIeBfSYQ7xvmvXLu3NYYkiPrDNnz8fjRo1ShknyYRJDws9gxxTyczH3Ma6detMS7IffADMyIv1pPH29tbnkJ5bnsNVq1aZlggP4kT4OeTtvAVvtdqAdR6PN2FdWpiErnfv3nrcu5FcjmHRLVq00KI7LRT4AwYMwKuvvqrbsl73+PHjTUvvJSQ0BDVq1NDt2BlQsWJFnXAsLex8m2plpcUf21atWvWhE9ZRvDds3BhNq/2FS/v9AK9gJdoDkk1N3zoRKuL9EbB582ZdRu7XX39N+f3lND3qabl957ZOZvjRx8lCnCXimDuBnX1pYRg8kxYakR6FCxfG8ePHTUvvwg6D+fMXpAz7YIeRORPWzXMKRLGhu9BwmjsuSMI64SEQ8S5kBRHvgrkR8S6k41GLd46PNR4QM2KUekDimNysUr16db39tWvXmuZkLyigmBiMSaGyI4x4MLKPi3h/+uD1Yx1viiWOH2btdX6f+P7nn39OZ7wX2ZbtjLb0fmbUjsnMuNxoS0vbzmjLOuJczm0xmRnDph8GRgJs2rQJmzdtxq2rSjDdvI1/btxKZbdZlF74jzBcnoKZ18m4przGFPMZXVfOZ5i80S6j+4rt0t5XNN4/GbU1tsljYMK7tJFY2QER74KIdyEriHgXzI2IdyEdj1q8czwsH+IoDum9Y9Zhjp01oCfQ09NTv2e5Io6TNIQIx0iSEydO6ARZFAgcT8u60waGZ3DFihUpYzo5zW1QDGQG1qdmNAC3xTra9E4xQoDvuS0+tO7fv9/UOhk+1I2xGKOPk5mY2Y4JvhiGSvi5UoeZsjQTj6ly5co6Szjf8+GVop7jUZm8iQ+3fKjlNnkemACM4oyfi5+dD74MSTVgMjJmEGcpqK+/+Qaf5M2rH4aNMFR6ubZs2aLn0dPFTOLjxo3Tx/PhRx/qWs8krXhngqqmTZvqJFQ8Ho6H5TUQkvGJuoCiQ3fhx77bYO/1bD7cBQQEaA89BYyQM2BUBSM5shuhoaH6NzIrjNlwCm+1ssVvA3cgScLmhYdAxLuQFUS8C+ZGxLuQDnONeWdiq++++y5FzNJKly6NnTt3mlrchQmzuJyljVJj1BFOLWBr1aql5/HVGPfOcM1vlJjlfApoJmT6Nyi2KZC5TpMmTXQYKPHw8NBjfT/88EP9EEk4PpzhoalD9a9cvZLy+Tp26miaC0yePFnPGzhwoGlOMs2aNdPzR44caZqjRHNcrA5jZjmvw4cPm+YCjo6OyJcvX0pCMoatGh0ifn5+eh6hWDc+A8PhDSjCOO/zzz/XtZf5IMyhDEauAUO8b7HbgkuXL+nOBW7fqA0t3Et2G/P+MOzbtw+tW7c2TT0Yht5z/Lrw7DNv7jxMmDBB/zZ07NgBkyZN0hEU/F1gR+ajhr+3GzZs0DXi7wc7EthRy2NgAr2sIGPehawi4l3ICiLeBXMj4l1Ih7kT1pGDhw6ibqpSU8xITFFhQHHB+anFOxMhMdyT81OLd8PznnbMO0sUGeMq6VGiAKb4T23cnuEpp5Cl55ztd+zYrucRdgjQs84xwtwmqV07ucOAofoU9zx2GgU3jREEBhYWFrotxyWnhon2fvjhB72Mx0Y4vpTngh0DFPFsw4dpvk+dHIpjlLlelSpV0j1c8vOwhjKjHDhkgdBzz/YU8WmheDfKfhn1nwcNGmRaKmTEoxbvvAa8f3nuOW6dD40MLX7v/fe0Bzwt+w/s1wnDGM3B+58RElyX15nwXmT5tnnz5umoC0ZmsOPJy8sLP/38E7788kvMnTtXJyhk1Au/BzNnzkSDBg3u6ThixAXvvbZt2+r9MDfCjh079LL/Ao+PUSeMLuG9VvSPP/TnNRImMqIkf/78+nizwvLly3WUCr87/N3g8fP8pI2eySy8NvyuGp13hFEx3HZ2JygoCH379tW123leWC2gefPmiIm5O86cv2vNmjVN91vCdRkpdL9OPHbIsqOVUUtMmsjOWOY+MDh58iSGDx+u72fmODEifVavXq1/Tz9X9+iAgQORYAqbt54+XW+Px8djJbyG7DhlJ+fAAQN13oV16zOf3ySr4p2RRjxv/P1nvhKxnGUcysHoMxHvwsMi4l0wNyLehXQ8avHOB/DixYtnmDyL1KtXTz9Y8+HOwBDv09XDnAG9MPQIc35G4j3tmHd6TpiQiYm86OXhP2SKEgpaw/gwaXjY6Z03xPv27dv0PEJBQbGTWry3aNlCt+NDZlrCwsK0B4tjeIkh3hmynhYeIxPusXOAXh6GzVOwz50zV6/DDgZ6Pum9Tw1FGZczrD9tArGjR4/qz83kUuHqWIgh3vv376+nU5Pa805PmBFWT2F4/ET6hFOCEiXh55Gv+1YlCjbDdn/6BG5Zhdff6ORhBAQ7ce6Xh4Be0dSJHll2i9ft4MGDetrD00MLY0aR8F5wcnLS85s1b4ZSpUrp93FxcVrk38+ryfs79T4Y/dGtezfTVNagp5U16SmuU1eI4Lj9wMBAfT/y+0rhd/7CeT3NiJNjx47piBN6Yg0RTvG8Z88efc8bcPtsz/VZ2YKwPTvFjOE5hG22b9+u5xneX35nKWqZDJPHxiRu3CeH/nB73B+PjZ0ORrZ1/j6wg4XZ2I3OB/7WUfCGhT/ZZIYGFNDswDFC4vl7TJFMGK3Tpm2bdAnrGJnDzj522PB3iNchLTxHPA9GpxHPKe+1unXr6uk1a9bo68Xf2hIlS+j9Gttp3LixjpYiFOi8tzZu3Kin+ZvM+9kQUdwmOwgIx+zzPue9khnmOwVp4d7I2uOhEtYRdmbweovlPON3WKIuhKwg4l0wNyLehXQ8avHOB9v/PfecFqn0LNNjZcAHZ3r6OE6dD8wG06ZN0w9oFN4ODg5arFNwGJ7hJk0a69B1Ygh6jqWn8CUU2Sxn9WOhHzOdDIn/sCkquC3jIZJQHBtljwyRwG1SaHEejePOKaaYpInefmZxNzA+C9vzgZSCKLXgNkQX92E8/BO243x6TjNi6NChejk9o4ZHi2KF54PiPXXYPT1IbMtyYmnhAz3zCHC58YDMnAR8mOY8Cnujg0MwL0zq2KtXL/2eoorRE+ttkvM+pKVLly76njKgZ5Jl3yiOGElBTzHf29ra6u8YPZmMLmEoPIdEcPgEv4sUZhS2jCDh/cfOAxsbG71NilRD6BPeE8bx/Rd4z7GDyyg9xwgSI6cCBTJ/Jzifoo/ngZ1XPBcLFizAWSXo6jeor5czCoAdED/+8KP+DhKK7cGDB+u64kZuDX42fkajY6Ndu3baG0/YluX0eI/zgZ3z2WnCvBeMEKC3nR1w/F7TE00YRs7za4hhCkr+NvG4CY+bApbnOzswbNgwfa8YHYpM8mkMnZg5a2a6zsHUsHOEnZc8z2lhRyUjJBjFYcDfEt43/C36vejv6Nevn57P3ysuM2CnrfF7xN9DVipgpIcBO315/nmP8twzpwkxwugDMyhpKAiC8KQR8S6YGxHvQjoetXinSKAY5kMYxe+MGTO00KZXh95yJovLCHp1Fi1apL3v9LoReiEZwkqPTGo4TZFPD9CoUaOwbds2/dCfWZigjV44PhjyQZ9eSnqi2KFAgWDM5/h8essNuF8+5FOIsO41S2tlBB80mXzvfmG7FEupx64TdibQI3q/iAUDCgUmu+P5pPjm+TbgAzQ9aPQQ8vgZjsxzQ08XYVuG7PMhmcsZcs82XG7M42fnNvj6oPGpOQnfqAv4gwnr+m3D1keUsI73Gs89rxXvBXa+8PxTGBq5DlLDnAZGhxDvEyMqhFCksXPLzt5O3z+8dkbnGMUx7+/U3mp6jbkdJjc0QsEpqLgN7p/Cmp5nHh/FXOpOpoeFx8bvsLEfYnRwjRgxQk9zv6+//npKBxQ9uIwE4XESi7EWumPP+G6wPnzqTgZ+F1m7PK14N7zLvOfLly+vv5P87hZQAvSMqZOPQpfDEFLnyeDvDjvXUvavxDw7WlKXTOM+2EFpaWmpox1SD515kvAcMqKIkQ78HOzMYUJMRvQwgoeiOvX3mr+DDFNneDq98/z9vV/OEKOTj+Kevz8NGzZMGerEjg2eJ4p7dkAyCoRtjXB43mtcxvuY24+Lj9OeeHrZuT3+rhKeT3ZK8Zzy95edR8wtMmTIkH/9bSQjbU7htWbr8ZP6riZdfjjPuyAIwsMi4l0wNyLehXQ8jjHvgvA086QT1oWEBOsw5I8++lCLxqcNRqhwqMjKlSt1R0KrVq20kPP399dCzhi6QeHIjiQKNk7T+0pv71+1/9LTXJeCmkKaoo8dGOwkpOeXyykQuT2raVZ6mh5mdmhx3Pebb76px4EbUSeMTqFn3agQ4bQ7eZgBBSJrm3OeMTSHnQmcZoRD6vNP4fvOO+/ozpKcAKMS6BU3R0K7R0VWx7wLgiBkBRHvgrkR8S6kQ8S7IDyYpznbvPDoYSQCOx4Yjs8IhpwAIygYncHoo8jICJw//3B1/R8XIt4FQXiciHgXzI2IdyEdIt4F4cEcDzuHjzpuxustbLHWPXskJROeDAwP57CFWbNm4aIp54aQfVjnGa6T1fVZfgSXrieP+RcEQTAXIt4FcyPiXUiHiHdByBwHAs9g06FI7X1PbeuVYAiIuajbnL9yU7ex3X9vG2M68kxyRvSEi9exRbWz2R9+TzsaBUjCheTkZ/HqlW1s07ThvM1q/TNqOyQ47hLWeaTfFo/N8Wg0Ll1LFjL+6jht1Ly07Thvq1c0bt1OTsrmHXkea9zD0rXjsTmdjMONW8nteE4y2i/bufvefZDZH5CYYTvuw8PvbpJJN594rM2gHecdCU5OpHjrzj/YfjxGf7a07TiPx06uKPG24z7tVqv9BsQmX7MrN27B3isq3XnhOed5Dk1IHuvOc63np7m2Nmp608FIxJ5LvmYxSVexUU1zfup2xvbOXU7Oah119qo+T6nb0HgcPB7eS8Q3+sJ9ry0/37UbyWPYT6vPfb9zwvNlcDwsKeNrq/bh6h2P2+r8El6/+13bAwHJeUju/PMP9t2nHfdxKCg5fwOTzjufist4e2reyfBkT/71m3fgcCRan6fUbYxzZ3zPLl69CQd1X6f9vGs9wnBQ3ZOCIAiPAxHvgrkR8S6kQ8S7IDwYlor7qrs9CvTcqsPnU9vXPR3weVc7LN2TnLDMP/qiTmyXv8e9bTn9rXqlkCaHgs7g5wHb9XZTt+P2Pu1ih/2ByYLWU4nejPbNeT/1354iaNcpofRpZzu1/r3tvuhmjzIjdiM0PlmALnIOwpdqHveTuh3nMSnfZZO3csZ2f3zQYfM9bWg8ttqWe1OEZe9lR5G385Z07T5T7drPS66KQLov8VLHl74dIxo6LbhbKaHFbE89PCFtO84btu6kbnNVidWKY130Z0vdhp/pi672mLnNX7eLViK6kmrH65O6HS1P+01Y6pp8zaLPXUWRwTvxVZrt8ZzzPG9QIpzwXHN+2mvLMoI/9N2mOx6Iy+k4fNfHEfnStDO25x2ZnHhtx4kYfT4zuha/D9kJ36hkoTp3VyDyqs+fth0/V+VxexB/IbkDZ5qjHz7n9lK1MdpVUOfBVLUNYzedzvDa8jo2meGpBTTh9eM9lbYdr22vpUd0G3b2tJl7IMNry/D1AauSy0+yQ6Du1L0Z3iucN8kuOQHjmUs3UHK4U7rvhXHulu5JTiIYFHsJpUY46eudut23vXl8W/R3TRLWCYJgbkS8C+ZGxLuQDkO81xj+Pcav7Y01LnPExMRS2TrXObDzXAA7j/kZm1pm6zY3ue2eOdii56Vtk/y63mintpncLoPtqnnrXZPb8fV+bbg+t8N2Nmq7D2q3Vh0X2/E4H9SObXS7vXNhf592m91VO9P2Nu6bd9/tbVLLjO3drx33wWVGu03u99/ehlTteAz3a8djZxt+5vu1436Na8Z2D7oWPLdsp+8DPS9tm+TXe65ZRu30vAX6Hklpd5996mtrXDP1ee7Xjp8v5druvf+509dMtaFtUO3ud215/o12vH7329491yyT1/ZB14zHxDb/di0ye830vWw6L2JiYmLmssFLWqPqkG9FvAtm4/+YyVdMzLAziUk4cNINdUb/igYWRdFw7B9iYmJiYmJiYmJiYpmwemOKoNnEMggI8UFiQmKGz9tiYlm1/2MtWjGx1BYaGobI8CgxMTExMTExMTExsSwYy2lm9JwtJpZ1C8H/AwylW67HSTGKAAAAAElFTkSuQmCC;" parent="1" vertex="1">
          <mxGeometry x="51.5" y="3.552713678800501e-15" width="517" height="230.01" as="geometry" />
        </mxCell>
        <mxCell id="nJHd5v2eKX-yQzIDTByT-7" value="Total&amp;nbsp; Picture" style="text;html=1;strokeColor=#b85450;fillColor=#f8cecc;align=center;verticalAlign=middle;whiteSpace=wrap;rounded=0;strokeWidth=2;" parent="1" vertex="1">
          <mxGeometry x="255" y="250" width="110" height="30" as="geometry" />
        </mxCell>
        <mxCell id="nJHd5v2eKX-yQzIDTByT-9" value="" style="edgeStyle=elbowEdgeStyle;elbow=horizontal;endArrow=classic;html=1;curved=0;rounded=0;endSize=8;startSize=8;exitX=0;exitY=0.5;exitDx=0;exitDy=0;entryX=0;entryY=0.25;entryDx=0;entryDy=0;" parent="1" source="nJHd5v2eKX-yQzIDTByT-1" target="nJHd5v2eKX-yQzIDTByT-2" edge="1">
          <mxGeometry width="50" height="50" relative="1" as="geometry">
            <mxPoint x="390" y="520" as="sourcePoint" />
            <mxPoint x="-10" y="560" as="targetPoint" />
            <Array as="points">
              <mxPoint x="-40" y="480" />
            </Array>
          </mxGeometry>
        </mxCell>
        <mxCell id="nJHd5v2eKX-yQzIDTByT-13" value="&lt;h1 style=&quot;font-size: 17px;&quot;&gt;&lt;p style=&quot;margin-top: 0pt; margin-bottom: 0pt; margin-left: 0in; direction: ltr; unicode-bidi: embed; word-break: normal;&quot;&gt;Study&lt;/p&gt;&lt;div style=&quot;margin-top: 0pt; margin-bottom: 0pt; margin-left: 0.38in; text-indent: -0.38in; direction: ltr; unicode-bidi: embed; word-break: normal;&quot;&gt;&lt;span style=&quot;font-weight: normal;&quot;&gt;1.S&lt;span style=&quot;font-family: &amp;quot;Times New Roman&amp;quot;;&quot;&gt;egment anything&lt;/span&gt;&lt;/span&gt;&lt;/div&gt;&lt;div style=&quot;margin-top: 0pt; margin-bottom: 0pt; margin-left: 0.38in; text-indent: -0.38in; direction: ltr; unicode-bidi: embed; word-break: normal;&quot;&gt;&lt;span style=&quot;font-weight: normal;&quot;&gt;&lt;span style=&quot;&quot;&gt;2.K&lt;/span&gt;&lt;span style=&quot;font-family: &amp;quot;Times New Roman&amp;quot;;&quot;&gt;nowledge distillation in transfer learning&lt;/span&gt;&lt;/span&gt;&lt;/div&gt;&lt;div style=&quot;margin-top: 0pt; margin-bottom: 0pt; margin-left: 0.38in; text-indent: -0.38in; direction: ltr; unicode-bidi: embed; word-break: normal;&quot;&gt;&lt;span style=&quot;font-weight: normal;&quot;&gt;&lt;span style=&quot;&quot;&gt;3.&lt;/span&gt;&lt;span style=&quot;font-family: &amp;quot;Times New Roman&amp;quot;;&quot;&gt;Feature cluster&lt;/span&gt;&lt;/span&gt;&lt;/div&gt;&lt;div style=&quot;margin-top: 0pt; margin-bottom: 0pt; margin-left: 0.38in; text-indent: -0.38in; direction: ltr; unicode-bidi: embed; word-break: normal;&quot;&gt;&lt;span style=&quot;font-weight: normal;&quot;&gt;&lt;span style=&quot;&quot;&gt;4.&lt;/span&gt;&lt;span style=&quot;font-family: &amp;quot;Times New Roman&amp;quot;;&quot;&gt;Few(zero)-shot learning&lt;/span&gt;&lt;/span&gt;&lt;/div&gt;&lt;/h1&gt;" style="text;html=1;strokeColor=default;fillColor=none;spacing=5;spacingTop=-20;whiteSpace=wrap;overflow=hidden;rounded=0;" parent="1" vertex="1">
          <mxGeometry x="-480" y="30" width="500" height="130" as="geometry" />
        </mxCell>
        <mxCell id="nJHd5v2eKX-yQzIDTByT-18" value="" style="edgeStyle=orthogonalEdgeStyle;rounded=0;orthogonalLoop=1;jettySize=auto;html=1;entryX=0.73;entryY=1.015;entryDx=0;entryDy=0;entryPerimeter=0;exitX=0;exitY=0.75;exitDx=0;exitDy=0;" parent="1" source="nJHd5v2eKX-yQzIDTByT-4" target="nJHd5v2eKX-yQzIDTByT-13" edge="1">
          <mxGeometry relative="1" as="geometry">
            <mxPoint x="60" y="200" as="sourcePoint" />
            <mxPoint x="-180" y="200" as="targetPoint" />
            <Array as="points">
              <mxPoint x="52" y="183" />
              <mxPoint x="52" y="193" />
              <mxPoint x="-125" y="193" />
            </Array>
          </mxGeometry>
        </mxCell>
        <mxCell id="nJHd5v2eKX-yQzIDTByT-16" value="Study" style="text;html=1;strokeColor=#b85450;fillColor=#f8cecc;align=center;verticalAlign=middle;whiteSpace=wrap;rounded=0;" parent="1" vertex="1">
          <mxGeometry x="-60" y="180" width="60" height="30" as="geometry" />
        </mxCell>
      </root>
    </mxGraphModel>
  </diagram>
</mxfile>
